<?xml version="1.0" encoding="utf-8"?>
<!-- Generator: Adobe Illustrator 22.1.0, SVG Export Plug-In . SVG Version: 6.00 Build 0)  -->
<svg version="1.1" xmlns="http://www.w3.org/2000/svg" xmlns:xlink="http://www.w3.org/1999/xlink" x="0px" y="0px"
	 viewBox="0 0 1455 1455" style="enable-background:new 0 0 1455 1455;" xml:space="preserve">
<style type="text/css">
	.st0{fill:#B9D989;}
	.st1{fill:#B1DED4;}
	.st2{fill:#E6C954;}
	.st3{fill:#A6ACD7;}
	.st4{fill:#FFF200;}
	.st5{fill:#2B3990;}
	.st6{fill:#27AAE1;}
	.st7{fill:#B19177;}
	.st8{fill:#92278F;}
	.st9{fill:#F0D0B4;}
	.st10{fill:#3C2415;}
	.st11{fill:#A46C35;}
	.st12{fill:#603913;}
	.st13{fill:#EF4136;}
	.st14{fill:#F1BB58;}
	.st15{fill:#DABCAA;}
	.st16{fill:#E4B69D;}
	.st17{fill:#473D2C;}
	.st18{fill:#7ECAAC;}
	.st19{fill:#EED1A3;}
	.st20{fill:#7F7058;}
	.st21{fill:#8BC63F;}
	.st22{fill:#ED1C24;}
	.st23{fill:#8C715D;}
	.st24{fill:#282829;}
	.st25{fill:#B6E4FA;}
	.st26{fill:#F7901E;}
	.st27{fill:#DFAA59;}
	.st28{fill:#CF9E76;}
	.st29{fill:none;}
	.st30{fill:#D08D14;}
	.st31{fill:#C68F62;}
	.st32{fill:#464547;}
	.st33{fill:#543E36;}
	.st34{fill:#F36E21;}
	.st35{fill:#1B75BC;}
	.st36{fill:#48342C;}
	.st37{fill:#25B34B;}
	.st38{fill:#5E533F;}
	.st39{fill:#C18759;}
	.st40{fill:#473C29;}
	.st41{fill:#372E1F;}
	.st42{fill:#584D3C;}
	.st43{fill:#B08874;}
	.st44{fill:#62AD91;}
	.st45{fill:#996953;}
	.st46{fill:#E7A414;}
	.st47{fill:#9C7761;}
	.st48{fill:#ED1C2A;}
	.st49{fill:#906852;}
	.st50{fill:#301703;}
	.st51{fill:#7D4921;}
	.st52{fill:#FFCB05;}
	.st53{fill:#7C361C;}
	.st54{fill:#B33A31;}
	.st55{fill:#DFB28B;}
	.st56{fill:#662D91;}
	.st57{fill:#72594B;}
	.st58{fill:#262262;}
	.st59{fill:#BE1E2D;}
	.st60{display:none;}
	.st61{display:inline;}
</style>
<g id="Layer_4">
	<g>
		<g>
			<rect x="718.5" y="215.6" transform="matrix(6.123234e-17 -1 1 6.123234e-17 430.8999 1024.1001)" width="17.9" height="162"/>
			<g>
				
					<rect x="619.6" y="296.6" transform="matrix(-1.836970e-16 1 -1 -1.836970e-16 943.0626 -314.0062)" width="17.9" height="35.9"/>
				
					<rect x="583.6" y="296.6" transform="matrix(-1.836970e-16 1 -1 -1.836970e-16 907.1306 -278.0742)" width="17.9" height="35.9"/>
			</g>
			<g>
				<rect x="520.8" y="323.5" width="17.9" height="17.9"/>
				
					<rect x="547.7" y="314.5" transform="matrix(-1.836970e-16 1 -1 -1.836970e-16 889.1266 -224.2142)" width="17.9" height="35.9"/>
			</g>
			
				<rect x="493.8" y="332.4" transform="matrix(-1.836970e-16 1 -1 -1.836970e-16 853.1947 -152.4262)" width="17.9" height="35.9"/>
			<rect x="466.9" y="359.3" width="17.9" height="17.9"/>
			<rect x="449" y="377.3" width="17.9" height="17.9"/>
			<rect x="431.1" y="395.2" width="17.9" height="17.9"/>
			<rect x="413.1" y="413.1" width="17.9" height="17.9"/>
			<rect x="395.2" y="431.1" width="17.9" height="17.9"/>
			<rect x="377.3" y="449" width="17.9" height="17.9"/>
			<rect x="359.3" y="466.9" width="17.9" height="17.9"/>
			<rect x="341.4" y="484.8" width="17.9" height="35.9"/>
			<g>
				
					<rect x="323.5" y="520.8" transform="matrix(-1.836970e-16 1 -1 -1.836970e-16 862.1967 197.2843)" width="17.9" height="17.9"/>
				
					<rect x="323.5" y="538.7" transform="matrix(-1 -1.224647e-16 1.224647e-16 -1 664.9124 1113.3409)" width="17.9" height="35.9"/>
			</g>
			
				<rect x="305.6" y="610.6" transform="matrix(-1 -1.224647e-16 1.224647e-16 -1 629.0563 1257.0687)" width="17.9" height="35.9"/>
			
				<rect x="305.6" y="574.6" transform="matrix(-1 -1.224647e-16 1.224647e-16 -1 629.0563 1185.2048)" width="17.9" height="35.9"/>
			<rect x="287.6" y="646.5" transform="matrix(-1 -1.224647e-16 1.224647e-16 -1 593.2003 1455)" width="17.9" height="162"/>
			<g>
				<rect x="305.6" y="808.5" width="17.9" height="35.9"/>
				<rect x="305.6" y="844.4" width="17.9" height="35.9"/>
			</g>
			<g>
				
					<rect x="323.5" y="916.3" transform="matrix(6.123234e-17 -1 1 6.123234e-17 -592.8033 1257.7157)" width="17.9" height="17.9"/>
				<rect x="323.5" y="880.4" width="17.9" height="35.9"/>
			</g>
			<rect x="341.4" y="934.2" width="17.9" height="35.9"/>
			<rect x="359.3" y="970.2" transform="matrix(6.123234e-17 -1 1 6.123234e-17 -610.8073 1347.4318)" width="17.9" height="17.9"/>
			<rect x="377.3" y="988.1" transform="matrix(6.123234e-17 -1 1 6.123234e-17 -610.8073 1383.2878)" width="17.9" height="17.9"/>
			<rect x="395.2" y="1006" transform="matrix(6.123234e-17 -1 1 6.123234e-17 -610.8073 1419.1439)" width="17.9" height="17.9"/>
			<rect x="413.1" y="1023.9" transform="matrix(6.123234e-17 -1 1 6.123234e-17 -610.8073 1455)" width="17.9" height="17.9"/>
			
				<rect x="431.1" y="1041.9" transform="matrix(6.123234e-17 -1 1 6.123234e-17 -610.8073 1490.8561)" width="17.9" height="17.9"/>
			<rect x="449" y="1059.8" transform="matrix(6.123234e-17 -1 1 6.123234e-17 -610.8073 1526.7122)" width="17.9" height="17.9"/>
			
				<rect x="466.9" y="1077.7" transform="matrix(6.123234e-17 -1 1 6.123234e-17 -610.8073 1562.5682)" width="17.9" height="17.9"/>
			
				<rect x="493.8" y="1086.6" transform="matrix(6.123234e-17 -1 1 6.123234e-17 -601.8053 1607.4263)" width="17.9" height="35.9"/>
			<g>
				<rect x="520.8" y="1113.6" width="17.9" height="17.9"/>
				
					<rect x="547.7" y="1104.6" transform="matrix(-1.836970e-16 1 -1 -1.836970e-16 1679.2142 565.8734)" width="17.9" height="35.9"/>
			</g>
			<g>
				
					<rect x="619.6" y="1122.5" transform="matrix(-1.836970e-16 1 -1 -1.836970e-16 1769.0062 511.9374)" width="17.9" height="35.9"/>
				
					<rect x="583.6" y="1122.5" transform="matrix(-1.836970e-16 1 -1 -1.836970e-16 1733.0742 547.8694)" width="17.9" height="35.9"/>
			</g>
		</g>
		<rect x="718.5" y="1077.4" transform="matrix(4.464233e-11 1 -1 4.464233e-11 1885.8999 430.8999)" width="17.9" height="162"/>
		<g>
			
				<rect x="817.5" y="1122.5" transform="matrix(-4.514960e-11 -1 1 -4.514960e-11 -314.0062 1966.9374)" width="17.9" height="35.9"/>
			
				<rect x="853.4" y="1122.5" transform="matrix(-4.464245e-11 -1 1 -4.464245e-11 -278.0742 2002.8694)" width="17.9" height="35.9"/>
		</g>
		<g>
			
				<rect x="916.3" y="1113.6" transform="matrix(-1 4.520061e-11 -4.520061e-11 -1 1850.519 2245.0876)" width="17.9" height="17.9"/>
			
				<rect x="889.4" y="1104.6" transform="matrix(-4.464245e-11 -1 1 -4.464245e-11 -224.2142 2020.8733)" width="17.9" height="35.9"/>
		</g>
		
			<rect x="943.2" y="1086.6" transform="matrix(-4.464245e-11 -1 1 -4.464245e-11 -152.4262 2056.8054)" width="17.9" height="35.9"/>
		
			<rect x="970.2" y="1077.7" transform="matrix(-1 4.520061e-11 -4.520061e-11 -1 1958.2391 2173.3755)" width="17.9" height="17.9"/>
		
			<rect x="988.1" y="1059.8" transform="matrix(-1 4.459176e-11 -4.459176e-11 -1 1994.0951 2137.5193)" width="17.9" height="17.9"/>
		
			<rect x="1006" y="1041.9" transform="matrix(-1 4.459176e-11 -4.459176e-11 -1 2029.9512 2101.6633)" width="17.9" height="17.9"/>
		
			<rect x="1023.9" y="1023.9" transform="matrix(-1 4.464239e-11 -4.464239e-11 -1 2065.8074 2065.8074)" width="17.9" height="17.9"/>
		
			<rect x="1041.9" y="1006" transform="matrix(-1 4.464239e-11 -4.464239e-11 -1 2101.6633 2029.9512)" width="17.9" height="17.9"/>
		
			<rect x="1059.8" y="988.1" transform="matrix(-1 4.484534e-11 -4.484534e-11 -1 2137.5193 1994.0951)" width="17.9" height="17.9"/>
		
			<rect x="1077.7" y="970.2" transform="matrix(-1 4.494704e-11 -4.494704e-11 -1 2173.3755 1958.2391)" width="17.9" height="17.9"/>
		
			<rect x="1095.7" y="934.2" transform="matrix(-1 4.484534e-11 -4.484534e-11 -1 2209.2314 1904.379)" width="17.9" height="35.9"/>
		<g>
			
				<rect x="1113.6" y="916.3" transform="matrix(-4.464245e-11 -1 1 -4.464245e-11 197.2843 2047.8033)" width="17.9" height="17.9"/>
			<rect x="1113.6" y="880.4" width="17.9" height="35.9"/>
		</g>
		<g>
			<rect x="1131.5" y="808.5" width="17.9" height="35.9"/>
			<rect x="1131.5" y="844.4" width="17.9" height="35.9"/>
		</g>
		<rect x="1149.4" y="646.5" width="17.9" height="162"/>
		<g>
			
				<rect x="1131.5" y="610.6" transform="matrix(-1 4.484534e-11 -4.484534e-11 -1 2280.9436 1257.0687)" width="17.9" height="35.9"/>
			
				<rect x="1131.5" y="574.6" transform="matrix(-1 4.484534e-11 -4.484534e-11 -1 2280.9436 1185.2048)" width="17.9" height="35.9"/>
		</g>
		<g>
			
				<rect x="1113.6" y="520.8" transform="matrix(4.464233e-11 1 -1 4.464233e-11 1652.2843 -592.8033)" width="17.9" height="17.9"/>
			
				<rect x="1113.6" y="538.7" transform="matrix(-1 4.494704e-11 -4.494704e-11 -1 2245.0876 1113.3409)" width="17.9" height="35.9"/>
		</g>
		
			<rect x="1095.7" y="484.8" transform="matrix(-1 4.484534e-11 -4.484534e-11 -1 2209.2314 1005.6209)" width="17.9" height="35.9"/>
		<rect x="1077.7" y="466.9" transform="matrix(4.464233e-11 1 -1 4.464233e-11 1562.5682 -610.8073)" width="17.9" height="17.9"/>
		<rect x="1059.8" y="449" transform="matrix(4.514948e-11 1 -1 4.514948e-11 1526.7122 -610.8073)" width="17.9" height="17.9"/>
		<rect x="1041.9" y="431.1" transform="matrix(4.525073e-11 1 -1 4.525073e-11 1490.8561 -610.8073)" width="17.9" height="17.9"/>
		<rect x="1023.9" y="413.1" transform="matrix(4.514948e-11 1 -1 4.514948e-11 1455 -610.8073)" width="17.9" height="17.9"/>
		<rect x="1006" y="395.2" transform="matrix(4.514948e-11 1 -1 4.514948e-11 1419.1439 -610.8073)" width="17.9" height="17.9"/>
		<rect x="988.1" y="377.3" transform="matrix(4.525073e-11 1 -1 4.525073e-11 1383.2878 -610.8073)" width="17.9" height="17.9"/>
		<rect x="970.2" y="359.3" transform="matrix(4.514948e-11 1 -1 4.514948e-11 1347.4318 -610.8073)" width="17.9" height="17.9"/>
		<rect x="943.2" y="332.4" transform="matrix(4.464233e-11 1 -1 4.464233e-11 1302.5737 -601.8053)" width="17.9" height="35.9"/>
		<g>
			<rect x="916.3" y="323.5" transform="matrix(-1 4.494704e-11 -4.494704e-11 -1 1850.519 664.9124)" width="17.9" height="17.9"/>
			
				<rect x="889.4" y="314.5" transform="matrix(-4.464245e-11 -1 1 -4.464245e-11 565.8734 1230.7858)" width="17.9" height="35.9"/>
		</g>
		<g>
			
				<rect x="817.5" y="296.6" transform="matrix(-4.514960e-11 -1 1 -4.514960e-11 511.9374 1140.9938)" width="17.9" height="35.9"/>
			
				<rect x="853.4" y="296.6" transform="matrix(-4.464245e-11 -1 1 -4.464245e-11 547.8694 1176.9258)" width="17.9" height="35.9"/>
		</g>
	</g>
	<polygon class="st2" points="1149.1,646.8 1131.5,646.8 1131.5,574.3 1113.4,574.3 1113.4,520.6 1095.7,520.6 1095.7,484.8 
		1077.7,484.8 1077.7,466.9 1059.8,466.9 1059.8,449 1041.9,449 1041.9,431.1 1023.9,431.1 1023.9,413.1 1006,413.1 1006,395.2 
		988.1,395.2 988.1,377.3 970.2,377.3 970.2,359.3 934.2,359.3 934.2,341.4 880.7,341.4 880.7,323.5 807.9,323.5 807.9,305.6 
		646.5,305.6 646.5,323.5 574.3,323.5 574.3,341.4 520.4,341.4 520.4,359.3 484.8,359.3 484.8,377.3 466.9,377.3 466.9,395.2 
		449,395.2 449,413.1 431.1,413.1 431.1,431.1 413.1,431.1 413.1,449 395.2,449 395.2,466.9 377.3,466.9 377.3,484.8 359.3,484.8 
		359.3,520.6 341.2,520.6 341.2,574.3 323.5,574.3 323.5,646.8 305.3,646.8 305.3,808.2 323.5,808.2 323.5,880.7 341.2,880.7 
		341.2,934.4 359.3,934.4 359.3,970.2 377.3,970.2 377.3,988.1 395.2,988.1 395.2,1006 413.1,1006 413.1,1023.9 431.1,1023.9 
		431.1,1041.9 449,1041.9 449,1059.8 466.9,1059.8 466.9,1077.7 484.8,1077.7 484.8,1095.7 520.4,1095.7 520.4,1113.6 574.3,1113.6 
		574.3,1131.5 646.5,1131.5 646.5,1149.4 807.9,1149.4 807.9,1131.5 880.7,1131.5 880.7,1113.6 934.2,1113.6 934.2,1095.7 
		970.2,1095.7 970.2,1077.7 988.1,1077.7 988.1,1059.8 1006,1059.8 1006,1041.9 1023.9,1041.9 1023.9,1023.9 1041.9,1023.9 
		1041.9,1006 1059.8,1006 1059.8,988.1 1077.7,988.1 1077.7,970.2 1095.7,970.2 1095.7,934.4 1113.4,934.4 1113.4,880.7 
		1131.5,880.7 1131.5,808.2 1149.1,808.2 	"/>
</g>
<g id="Layer_2">
	<g>
		<g>
			<rect x="718.5" y="215.6" transform="matrix(6.123234e-17 -1 1 6.123234e-17 430.8999 1024.1001)" width="17.9" height="162"/>
			<g>
				
					<rect x="619.6" y="296.6" transform="matrix(-1.836970e-16 1 -1 -1.836970e-16 943.0626 -314.0062)" width="17.9" height="35.9"/>
				
					<rect x="583.6" y="296.6" transform="matrix(-1.836970e-16 1 -1 -1.836970e-16 907.1306 -278.0742)" width="17.9" height="35.9"/>
			</g>
			<g>
				<rect x="520.8" y="323.5" width="17.9" height="17.9"/>
				
					<rect x="547.7" y="314.5" transform="matrix(-1.836970e-16 1 -1 -1.836970e-16 889.1266 -224.2142)" width="17.9" height="35.9"/>
			</g>
			
				<rect x="493.8" y="332.4" transform="matrix(-1.836970e-16 1 -1 -1.836970e-16 853.1947 -152.4262)" width="17.9" height="35.9"/>
			<rect x="466.9" y="359.3" width="17.9" height="17.9"/>
			<rect x="449" y="377.3" width="17.9" height="17.9"/>
			<rect x="431.1" y="395.2" width="17.9" height="17.9"/>
			<rect x="413.1" y="413.1" width="17.9" height="17.9"/>
			<rect x="395.2" y="431.1" width="17.9" height="17.9"/>
			<rect x="377.3" y="449" width="17.9" height="17.9"/>
			<rect x="359.3" y="466.9" width="17.9" height="17.9"/>
			<rect x="341.4" y="484.8" width="17.9" height="35.9"/>
			<g>
				
					<rect x="323.5" y="520.8" transform="matrix(-1.836970e-16 1 -1 -1.836970e-16 862.1967 197.2843)" width="17.9" height="17.9"/>
				
					<rect x="323.5" y="538.7" transform="matrix(-1 -1.224647e-16 1.224647e-16 -1 664.9124 1113.3409)" width="17.9" height="35.9"/>
			</g>
			
				<rect x="305.6" y="610.6" transform="matrix(-1 -1.224647e-16 1.224647e-16 -1 629.0563 1257.0687)" width="17.9" height="35.9"/>
			
				<rect x="305.6" y="574.6" transform="matrix(-1 -1.224647e-16 1.224647e-16 -1 629.0563 1185.2048)" width="17.9" height="35.9"/>
			<rect x="287.6" y="646.5" transform="matrix(-1 -1.224647e-16 1.224647e-16 -1 593.2003 1455)" width="17.9" height="162"/>
			<g>
				<rect x="305.6" y="808.5" width="17.9" height="35.9"/>
				<rect x="305.6" y="844.4" width="17.9" height="35.9"/>
			</g>
			<g>
				
					<rect x="323.5" y="916.3" transform="matrix(6.123234e-17 -1 1 6.123234e-17 -592.8033 1257.7157)" width="17.9" height="17.9"/>
				<rect x="323.5" y="880.4" width="17.9" height="35.9"/>
			</g>
			<rect x="341.4" y="934.2" width="17.9" height="35.9"/>
			<rect x="359.3" y="970.2" transform="matrix(6.123234e-17 -1 1 6.123234e-17 -610.8073 1347.4318)" width="17.9" height="17.9"/>
			<rect x="377.3" y="988.1" transform="matrix(6.123234e-17 -1 1 6.123234e-17 -610.8073 1383.2878)" width="17.9" height="17.9"/>
			<rect x="395.2" y="1006" transform="matrix(6.123234e-17 -1 1 6.123234e-17 -610.8073 1419.1439)" width="17.9" height="17.9"/>
			<rect x="413.1" y="1023.9" transform="matrix(6.123234e-17 -1 1 6.123234e-17 -610.8073 1455)" width="17.9" height="17.9"/>
			
				<rect x="431.1" y="1041.9" transform="matrix(6.123234e-17 -1 1 6.123234e-17 -610.8073 1490.8561)" width="17.9" height="17.9"/>
			<rect x="449" y="1059.8" transform="matrix(6.123234e-17 -1 1 6.123234e-17 -610.8073 1526.7122)" width="17.9" height="17.9"/>
			
				<rect x="466.9" y="1077.7" transform="matrix(6.123234e-17 -1 1 6.123234e-17 -610.8073 1562.5682)" width="17.9" height="17.9"/>
			
				<rect x="493.8" y="1086.6" transform="matrix(6.123234e-17 -1 1 6.123234e-17 -601.8053 1607.4263)" width="17.9" height="35.9"/>
			<g>
				<rect x="520.8" y="1113.6" width="17.9" height="17.9"/>
				
					<rect x="547.7" y="1104.6" transform="matrix(-1.836970e-16 1 -1 -1.836970e-16 1679.2142 565.8734)" width="17.9" height="35.9"/>
			</g>
			<g>
				
					<rect x="619.6" y="1122.5" transform="matrix(-1.836970e-16 1 -1 -1.836970e-16 1769.0062 511.9374)" width="17.9" height="35.9"/>
				
					<rect x="583.6" y="1122.5" transform="matrix(-1.836970e-16 1 -1 -1.836970e-16 1733.0742 547.8694)" width="17.9" height="35.9"/>
			</g>
		</g>
		<rect x="718.5" y="1077.4" transform="matrix(4.464233e-11 1 -1 4.464233e-11 1885.8999 430.8999)" width="17.9" height="162"/>
		<g>
			
				<rect x="817.5" y="1122.5" transform="matrix(-4.514960e-11 -1 1 -4.514960e-11 -314.0062 1966.9374)" width="17.9" height="35.9"/>
			
				<rect x="853.4" y="1122.5" transform="matrix(-4.464245e-11 -1 1 -4.464245e-11 -278.0742 2002.8694)" width="17.9" height="35.9"/>
		</g>
		<g>
			
				<rect x="916.3" y="1113.6" transform="matrix(-1 4.520061e-11 -4.520061e-11 -1 1850.519 2245.0876)" width="17.9" height="17.9"/>
			
				<rect x="889.4" y="1104.6" transform="matrix(-4.464245e-11 -1 1 -4.464245e-11 -224.2142 2020.8733)" width="17.9" height="35.9"/>
		</g>
		
			<rect x="943.2" y="1086.6" transform="matrix(-4.464245e-11 -1 1 -4.464245e-11 -152.4262 2056.8054)" width="17.9" height="35.9"/>
		
			<rect x="970.2" y="1077.7" transform="matrix(-1 4.520061e-11 -4.520061e-11 -1 1958.2391 2173.3755)" width="17.9" height="17.9"/>
		
			<rect x="988.1" y="1059.8" transform="matrix(-1 4.459176e-11 -4.459176e-11 -1 1994.0951 2137.5193)" width="17.9" height="17.9"/>
		
			<rect x="1006" y="1041.9" transform="matrix(-1 4.459176e-11 -4.459176e-11 -1 2029.9512 2101.6633)" width="17.9" height="17.9"/>
		
			<rect x="1023.9" y="1023.9" transform="matrix(-1 4.464239e-11 -4.464239e-11 -1 2065.8074 2065.8074)" width="17.9" height="17.9"/>
		
			<rect x="1041.9" y="1006" transform="matrix(-1 4.464239e-11 -4.464239e-11 -1 2101.6633 2029.9512)" width="17.9" height="17.9"/>
		
			<rect x="1059.8" y="988.1" transform="matrix(-1 4.484534e-11 -4.484534e-11 -1 2137.5193 1994.0951)" width="17.9" height="17.9"/>
		
			<rect x="1077.7" y="970.2" transform="matrix(-1 4.494704e-11 -4.494704e-11 -1 2173.3755 1958.2391)" width="17.9" height="17.9"/>
		
			<rect x="1095.7" y="934.2" transform="matrix(-1 4.484534e-11 -4.484534e-11 -1 2209.2314 1904.379)" width="17.9" height="35.9"/>
		<g>
			
				<rect x="1113.6" y="916.3" transform="matrix(-4.464245e-11 -1 1 -4.464245e-11 197.2843 2047.8033)" width="17.9" height="17.9"/>
			<rect x="1113.6" y="880.4" width="17.9" height="35.9"/>
		</g>
		<g>
			<rect x="1131.5" y="808.5" width="17.9" height="35.9"/>
			<rect x="1131.5" y="844.4" width="17.9" height="35.9"/>
		</g>
		<rect x="1149.4" y="646.5" width="17.9" height="162"/>
		<g>
			
				<rect x="1131.5" y="610.6" transform="matrix(-1 4.484534e-11 -4.484534e-11 -1 2280.9436 1257.0687)" width="17.9" height="35.9"/>
			
				<rect x="1131.5" y="574.6" transform="matrix(-1 4.484534e-11 -4.484534e-11 -1 2280.9436 1185.2048)" width="17.9" height="35.9"/>
		</g>
		<g>
			
				<rect x="1113.6" y="520.8" transform="matrix(4.464233e-11 1 -1 4.464233e-11 1652.2843 -592.8033)" width="17.9" height="17.9"/>
			
				<rect x="1113.6" y="538.7" transform="matrix(-1 4.494704e-11 -4.494704e-11 -1 2245.0876 1113.3409)" width="17.9" height="35.9"/>
		</g>
		
			<rect x="1095.7" y="484.8" transform="matrix(-1 4.484534e-11 -4.484534e-11 -1 2209.2314 1005.6209)" width="17.9" height="35.9"/>
		<rect x="1077.7" y="466.9" transform="matrix(4.464233e-11 1 -1 4.464233e-11 1562.5682 -610.8073)" width="17.9" height="17.9"/>
		<rect x="1059.8" y="449" transform="matrix(4.514948e-11 1 -1 4.514948e-11 1526.7122 -610.8073)" width="17.9" height="17.9"/>
		<rect x="1041.9" y="431.1" transform="matrix(4.525073e-11 1 -1 4.525073e-11 1490.8561 -610.8073)" width="17.9" height="17.9"/>
		<rect x="1023.9" y="413.1" transform="matrix(4.514948e-11 1 -1 4.514948e-11 1455 -610.8073)" width="17.9" height="17.9"/>
		<rect x="1006" y="395.2" transform="matrix(4.514948e-11 1 -1 4.514948e-11 1419.1439 -610.8073)" width="17.9" height="17.9"/>
		<rect x="988.1" y="377.3" transform="matrix(4.525073e-11 1 -1 4.525073e-11 1383.2878 -610.8073)" width="17.9" height="17.9"/>
		<rect x="970.2" y="359.3" transform="matrix(4.514948e-11 1 -1 4.514948e-11 1347.4318 -610.8073)" width="17.9" height="17.9"/>
		<rect x="943.2" y="332.4" transform="matrix(4.464233e-11 1 -1 4.464233e-11 1302.5737 -601.8053)" width="17.9" height="35.9"/>
		<g>
			<rect x="916.3" y="323.5" transform="matrix(-1 4.494704e-11 -4.494704e-11 -1 1850.519 664.9124)" width="17.9" height="17.9"/>
			
				<rect x="889.4" y="314.5" transform="matrix(-4.464245e-11 -1 1 -4.464245e-11 565.8734 1230.7858)" width="17.9" height="35.9"/>
		</g>
		<g>
			
				<rect x="817.5" y="296.6" transform="matrix(-4.514960e-11 -1 1 -4.514960e-11 511.9374 1140.9938)" width="17.9" height="35.9"/>
			
				<rect x="853.4" y="296.6" transform="matrix(-4.464245e-11 -1 1 -4.464245e-11 547.8694 1176.9258)" width="17.9" height="35.9"/>
		</g>
	</g>
</g>
<g id="Color">
	<polygon class="st19" points="898.8,613.7 898.8,523.7 880.7,523.7 880.7,505.7 826.6,505.7 826.6,505.4 727.4,505.5 628.3,505.4 
		628.3,505.7 574.2,505.7 574.2,523.7 556.1,523.7 556.1,613.7 538.2,613.7 538.2,703.3 556.1,703.3 556.1,811.3 574.2,811.3 
		574.2,847.6 592.2,847.6 592.2,865.5 610.1,865.5 610.1,883.5 628.3,883.5 646.5,883.5 646.5,919.3 808.5,919.3 808.5,883.5 
		826.6,883.5 844.8,883.5 844.8,865.5 862.7,865.5 862.7,847.6 880.7,847.6 880.7,811.3 898.8,811.3 898.8,703.3 916.7,703.3 
		916.7,613.7 	"/>
	<polygon class="st20" points="880.7,455.8 880.7,432.8 592.6,432.8 592.6,469.1 555.5,469.1 555.5,630.9 628.3,630.9 628.3,522.5 
		880.7,522.5 880.7,545.5 898.7,545.5 898.7,455.8 	"/>
	<polygon class="st21" points="916.7,919.3 538.2,919.3 538.2,1113.6 574.6,1113.6 574.6,1131.5 646.5,1131.5 646.5,1149.4 
		808.5,1149.4 808.5,1131.5 880.4,1131.5 880.4,1113.6 916.7,1113.6 	"/>
	
		<rect x="556.4" y="594.9" transform="matrix(-1.836970e-16 1 -1 -1.836970e-16 1187.3459 56.5871)" class="st28" width="17.9" height="54.2"/>
	<rect x="520.4" y="630.9" class="st28" width="17.9" height="54.2"/>
	
		<rect x="556.4" y="667" transform="matrix(-1.836970e-16 1 -1 -1.836970e-16 1259.4559 128.6971)" class="st28" width="17.9" height="54.2"/>
	<rect x="556.4" y="703" class="st28" width="17.9" height="107.5"/>
	<rect x="880.7" y="703" class="st28" width="17.9" height="107.5"/>
	<rect x="574.3" y="810.6" class="st28" width="17.9" height="36.3"/>
	<rect x="592.2" y="846.9" class="st28" width="17.9" height="17.9"/>
	
		<rect x="619.4" y="855.6" transform="matrix(-1.836970e-16 1 -1 -1.836970e-16 1502.0912 245.4427)" class="st28" width="17.9" height="36.3"/>
	
		<rect x="610.4" y="882.5" transform="matrix(-1.836970e-16 1 -1 -1.836970e-16 1528.9833 290.2628)" class="st37" width="17.9" height="54.2"/>
	
		<rect x="718.5" y="810.7" transform="matrix(-1.836970e-16 1 -1 -1.836970e-16 1619.1779 164.2121)" class="st28" width="17.9" height="162"/>
	
		<rect x="718.5" y="828.6" transform="matrix(-1.836970e-16 1 -1 -1.836970e-16 1637.1058 182.1402)" class="st29" width="17.9" height="162"/>
	
		<rect x="718.5" y="846.6" transform="matrix(-1.836970e-16 1 -1 -1.836970e-16 1655.0339 200.0682)" class="st37" width="17.9" height="162"/>
	
		<rect x="862.7" y="810.6" transform="matrix(-1 4.489641e-11 -4.489641e-11 -1 1743.3849 1657.4319)" class="st28" width="17.9" height="36.3"/>
	
		<rect x="844.8" y="846.9" transform="matrix(-1 4.489641e-11 -4.489641e-11 -1 1707.5288 1711.6779)" class="st28" width="17.9" height="17.9"/>
	
		<rect x="817.7" y="855.6" transform="matrix(4.464233e-11 1 -1 4.464233e-11 1700.4083 47.1255)" class="st28" width="17.9" height="36.3"/>
	
		<rect x="889.7" y="676.1" transform="matrix(6.123234e-17 -1 1 6.123234e-17 204.6064 1592.7594)" class="st28" width="17.9" height="36.1"/>
	
		<rect x="916.7" y="630.9" transform="matrix(-1 -1.224647e-16 1.224647e-16 -1 1851.3466 1316.043)" class="st28" width="17.9" height="54.2"/>
	
		<rect x="889.7" y="603.9" transform="matrix(6.123234e-17 -1 1 6.123234e-17 276.7164 1520.6494)" class="st28" width="17.9" height="36.1"/>
	<rect x="556.4" y="647.9" class="st28" width="17.9" height="17.9"/>
	<rect x="664.5" y="630.9" width="17.9" height="44.8"/>
	
		<rect x="664.5" y="558.9" transform="matrix(-1.836970e-16 1 -1 -1.836970e-16 1259.4705 -87.5375)" class="st38" width="17.9" height="54.2"/>
	
		<rect x="808.7" y="558.9" transform="matrix(-1.836970e-16 1 -1 -1.836970e-16 1403.6781 -231.7451)" class="st38" width="17.9" height="54.2"/>
	<rect x="808.7" y="630.9" width="17.9" height="44.8"/>
	<rect x="736.5" y="711.8" class="st28" width="17.9" height="35.9"/>
	<rect x="693.2" y="774.9" class="st39" width="17.9" height="17.9"/>
	<rect x="765.5" y="774.9" class="st39" width="17.9" height="17.9"/>
	
		<rect x="729.3" y="774.6" transform="matrix(-1.836970e-16 1 -1 -1.836970e-16 1540.0781 63.4557)" class="st39" width="17.9" height="54.3"/>
	<rect x="718.5" y="729.8" class="st28" width="17.9" height="17.9"/>
	
		<rect x="826.6" y="882.5" transform="matrix(-1.836970e-16 1 -1 -1.836970e-16 1745.2285 74.0176)" class="st37" width="17.9" height="54.2"/>
	
		<rect x="556.4" y="900.4" transform="matrix(-1.836970e-16 1 -1 -1.836970e-16 1492.8962 362.2058)" class="st37" width="17.9" height="54.2"/>
	
		<rect x="880.7" y="900.4" transform="matrix(-1.836970e-16 1 -1 -1.836970e-16 1817.1715 37.9306)" class="st37" width="17.9" height="54.2"/>
	
		<rect x="520.4" y="936.5" transform="matrix(-1 -1.224647e-16 1.224647e-16 -1 1058.6544 2050.0986)" class="st37" width="17.9" height="177.1"/>
	
		<rect x="916.7" y="936.5" transform="matrix(-1 -1.224647e-16 1.224647e-16 -1 1851.3478 2050.0986)" class="st37" width="17.9" height="177.1"/>
	<rect x="610.4" y="487" class="st40" width="17.9" height="17.9"/>
	
		<rect x="637.3" y="495.9" transform="matrix(-1.836970e-16 1 -1 -1.836970e-16 1160.1036 -132.4089)" class="st38" width="17.9" height="35.9"/>
	
		<rect x="673.2" y="513.8" transform="matrix(-1.836970e-16 1 -1 -1.836970e-16 1213.9636 -150.4128)" class="st38" width="17.9" height="35.9"/>
	<rect x="682.2" y="487.5" class="st40" width="17.9" height="17.9"/>
	
		<rect x="709.2" y="495.9" transform="matrix(-1.836970e-16 1 -1 -1.836970e-16 1232.0139 -204.2263)" class="st38" width="17.9" height="35.9"/>
	
		<rect x="745.1" y="513.9" transform="matrix(-1.836970e-16 1 -1 -1.836970e-16 1285.874 -222.2303)" class="st38" width="17.9" height="35.9"/>
	<rect x="754.1" y="487.5" class="st40" width="17.9" height="17.9"/>
	
		<rect x="781" y="495.9" transform="matrix(-1.836970e-16 1 -1 -1.836970e-16 1303.8779 -276.0903)" class="st38" width="17.9" height="35.9"/>
	
		<rect x="817" y="513.9" transform="matrix(-1.836970e-16 1 -1 -1.836970e-16 1357.7379 -294.0942)" class="st38" width="17.9" height="35.9"/>
	<rect x="826.9" y="487" class="st40" width="17.9" height="17.9"/>
	<rect x="844.8" y="504.9" class="st38" width="17.9" height="17.9"/>
	<rect x="862.7" y="522.8" class="st38" width="17.9" height="17.9"/>
	<rect x="880.7" y="486.9" class="st40" width="17.9" height="17.9"/>
	<rect x="555.5" y="487.5" class="st38" width="17.9" height="17.9"/>
	<rect x="537.6" y="451.2" class="st38" width="17.9" height="36.3"/>
	<rect x="538.3" y="505.4" class="st38" width="17.9" height="107.6"/>
	<rect x="880.7" y="540.7" class="st38" width="17.9" height="72.3"/>
	
		<rect x="619.4" y="423.6" transform="matrix(-1.836970e-16 1 -1 -1.836970e-16 1070.0864 -186.562)" class="st38" width="17.9" height="36.3"/>
	
		<rect x="727.5" y="333.8" transform="matrix(-1.836970e-16 1 -1 -1.836970e-16 1160.3153 -312.6469)" class="st38" width="17.9" height="180"/>
	<rect x="610.4" y="522.8" class="st38" width="17.9" height="108.1"/>
	<rect x="592.2" y="630.9" class="st38" width="17.9" height="17.9"/>
	<rect x="898.6" y="504.8" class="st38" width="17.9" height="55.2"/>
	<rect x="898.6" y="450.7" class="st38" width="17.9" height="35.9"/>
	
		<rect x="880.5" y="432.6" transform="matrix(-1.836970e-16 1 -1 -1.836970e-16 1349.114 -429.7335)" class="st38" width="17.9" height="54.2"/>
	
		<rect x="844.6" y="414.7" transform="matrix(-1.836970e-16 1 -1 -1.836970e-16 1295.33 -411.8055)" class="st38" width="17.9" height="54.2"/>
	
		<rect x="583" y="405.7" transform="matrix(-1.836970e-16 1 -1 -1.836970e-16 1015.8405 -168.1721)" class="st38" width="17.9" height="36.3"/>
	<rect x="573.8" y="414.9" class="st38" width="17.9" height="36.3"/>
	
		<rect x="555.7" y="433.1" transform="matrix(-1.836970e-16 1 -1 -1.836970e-16 1024.8387 -104.5344)" class="st38" width="17.9" height="54.2"/>
</g>
<g id="Layer_1" class="st60">
	<g class="st61">
		<rect x="555.5" y="487.5" width="17.9" height="17.9"/>
		<rect x="537.6" y="451.2" width="17.9" height="36.3"/>
		<rect x="538.3" y="505.4" width="17.9" height="107.6"/>
		<rect x="880.7" y="540.7" width="17.9" height="72.3"/>
		<rect x="619.4" y="423.6" transform="matrix(-1.836970e-16 1 -1 -1.836970e-16 1070.0864 -186.562)" width="17.9" height="36.3"/>
		<rect x="727.5" y="333.8" transform="matrix(-1.836970e-16 1 -1 -1.836970e-16 1160.3153 -312.6469)" width="17.9" height="180"/>
		<rect x="556.4" y="594.9" transform="matrix(-1.836970e-16 1 -1 -1.836970e-16 1187.3459 56.5871)" width="17.9" height="54.2"/>
		<rect x="520.4" y="630.9" width="17.9" height="54.2"/>
		<rect x="556.4" y="667" transform="matrix(-1.836970e-16 1 -1 -1.836970e-16 1259.4559 128.6971)" width="17.9" height="54.2"/>
		<rect x="556.4" y="703" width="17.9" height="107.5"/>
		<rect x="880.7" y="703" width="17.9" height="107.5"/>
		<rect x="574.3" y="810.6" width="17.9" height="36.3"/>
		<rect x="592.2" y="846.9" width="17.9" height="17.9"/>
		<rect x="619.4" y="855.6" transform="matrix(-1.836970e-16 1 -1 -1.836970e-16 1502.0912 245.4427)" width="17.9" height="36.3"/>
		<rect x="610.4" y="882.5" transform="matrix(-1.836970e-16 1 -1 -1.836970e-16 1528.9833 290.2628)" width="17.9" height="54.2"/>
		<rect x="718.5" y="810.7" transform="matrix(-1.836970e-16 1 -1 -1.836970e-16 1619.1779 164.2121)" width="17.9" height="162"/>
		
			<rect x="718.5" y="828.6" transform="matrix(-1.836970e-16 1 -1 -1.836970e-16 1637.1058 182.1402)" class="st29" width="17.9" height="162"/>
		<rect x="718.5" y="846.6" transform="matrix(-1.836970e-16 1 -1 -1.836970e-16 1655.0339 200.0682)" width="17.9" height="162"/>
		
			<rect x="862.7" y="810.6" transform="matrix(-1 4.489641e-11 -4.489641e-11 -1 1743.3849 1657.4319)" width="17.9" height="36.3"/>
		
			<rect x="844.8" y="846.9" transform="matrix(-1 4.489641e-11 -4.489641e-11 -1 1707.5288 1711.6779)" width="17.9" height="17.9"/>
		<rect x="817.7" y="855.6" transform="matrix(4.464233e-11 1 -1 4.464233e-11 1700.4083 47.1255)" width="17.9" height="36.3"/>
		<rect x="889.7" y="676.1" transform="matrix(6.123234e-17 -1 1 6.123234e-17 204.6064 1592.7594)" width="17.9" height="36.1"/>
		<rect x="916.7" y="630.9" transform="matrix(-1 -1.224647e-16 1.224647e-16 -1 1851.3466 1316.043)" width="17.9" height="54.2"/>
		<rect x="889.7" y="603.9" transform="matrix(6.123234e-17 -1 1 6.123234e-17 276.7164 1520.6494)" width="17.9" height="36.1"/>
		<rect x="556.4" y="647.9" width="17.9" height="17.9"/>
		<rect x="664.5" y="630.9" width="17.9" height="44.8"/>
		<rect x="664.5" y="558.9" transform="matrix(-1.836970e-16 1 -1 -1.836970e-16 1259.4705 -87.5375)" width="17.9" height="54.2"/>
		
			<rect x="808.7" y="558.9" transform="matrix(-1.836970e-16 1 -1 -1.836970e-16 1403.6781 -231.7451)" width="17.9" height="54.2"/>
		<rect x="808.7" y="630.9" width="17.9" height="44.8"/>
		<rect x="736.5" y="711.8" width="17.9" height="35.9"/>
		<rect x="693.2" y="774.9" width="17.9" height="17.9"/>
		<rect x="765.5" y="774.9" width="17.9" height="17.9"/>
		<rect x="729.3" y="774.6" transform="matrix(-1.836970e-16 1 -1 -1.836970e-16 1540.0781 63.4557)" width="17.9" height="54.3"/>
		<rect x="718.5" y="729.8" width="17.9" height="17.9"/>
		<rect x="826.6" y="882.5" transform="matrix(-1.836970e-16 1 -1 -1.836970e-16 1745.2285 74.0176)" width="17.9" height="54.2"/>
		<rect x="556.4" y="900.4" transform="matrix(-1.836970e-16 1 -1 -1.836970e-16 1492.8962 362.2058)" width="17.9" height="54.2"/>
		<rect x="880.7" y="900.4" transform="matrix(-1.836970e-16 1 -1 -1.836970e-16 1817.1715 37.9306)" width="17.9" height="54.2"/>
		
			<rect x="520.4" y="936.5" transform="matrix(-1 -1.224647e-16 1.224647e-16 -1 1058.6544 2050.0986)" width="17.9" height="177.1"/>
		
			<rect x="916.7" y="936.5" transform="matrix(-1 -1.224647e-16 1.224647e-16 -1 1851.3478 2050.0986)" width="17.9" height="177.1"/>
		<rect x="610.4" y="487" width="17.9" height="17.9"/>
		
			<rect x="637.3" y="495.9" transform="matrix(-1.836970e-16 1 -1 -1.836970e-16 1160.1036 -132.4089)" width="17.9" height="35.9"/>
		
			<rect x="673.2" y="513.8" transform="matrix(-1.836970e-16 1 -1 -1.836970e-16 1213.9636 -150.4128)" width="17.9" height="35.9"/>
		<rect x="682.2" y="487.5" width="17.9" height="17.9"/>
		
			<rect x="709.2" y="495.9" transform="matrix(-1.836970e-16 1 -1 -1.836970e-16 1232.0139 -204.2263)" width="17.9" height="35.9"/>
		<rect x="745.1" y="513.9" transform="matrix(-1.836970e-16 1 -1 -1.836970e-16 1285.874 -222.2303)" width="17.9" height="35.9"/>
		<rect x="754.1" y="487.5" width="17.9" height="17.9"/>
		<rect x="781" y="495.9" transform="matrix(-1.836970e-16 1 -1 -1.836970e-16 1303.8779 -276.0903)" width="17.9" height="35.9"/>
		<rect x="817" y="513.9" transform="matrix(-1.836970e-16 1 -1 -1.836970e-16 1357.7379 -294.0942)" width="17.9" height="35.9"/>
		<rect x="610.4" y="522.8" width="17.9" height="108.1"/>
		<rect x="592.2" y="630.9" width="17.9" height="17.9"/>
		<g>
			<rect x="826.9" y="487" width="17.9" height="17.9"/>
			<rect x="844.8" y="504.9" width="17.9" height="17.9"/>
			<rect x="862.7" y="522.8" width="17.9" height="17.9"/>
		</g>
		<rect x="898.6" y="504.8" width="17.9" height="55.2"/>
		<rect x="880.7" y="486.9" width="17.9" height="17.9"/>
		<rect x="898.6" y="450.7" width="17.9" height="35.9"/>
		<rect x="880.5" y="432.6" transform="matrix(-1.836970e-16 1 -1 -1.836970e-16 1349.114 -429.7335)" width="17.9" height="54.2"/>
		<rect x="844.6" y="414.7" transform="matrix(-1.836970e-16 1 -1 -1.836970e-16 1295.33 -411.8055)" width="17.9" height="54.2"/>
		<rect x="583" y="405.7" transform="matrix(-1.836970e-16 1 -1 -1.836970e-16 1015.8405 -168.1721)" width="17.9" height="36.3"/>
		<rect x="573.8" y="414.9" width="17.9" height="36.3"/>
		
			<rect x="555.7" y="433.1" transform="matrix(-1.836970e-16 1 -1 -1.836970e-16 1024.8387 -104.5344)" width="17.9" height="54.2"/>
	</g>
</g>
</svg>
