<?xml version="1.0" encoding="utf-8"?>
<!-- Generator: Adobe Illustrator 22.1.0, SVG Export Plug-In . SVG Version: 6.00 Build 0)  -->
<svg version="1.1" xmlns="http://www.w3.org/2000/svg" xmlns:xlink="http://www.w3.org/1999/xlink" x="0px" y="0px"
	 viewBox="0 0 1455 1455" style="enable-background:new 0 0 1455 1455;" xml:space="preserve">
<style type="text/css">
	.st0{fill:#B9D989;}
	.st1{fill:#B1DED4;}
	.st2{fill:#E6C954;}
	.st3{fill:#A6ACD7;}
	.st4{fill:#FFF200;}
	.st5{fill:#2B3990;}
	.st6{fill:#27AAE1;}
	.st7{fill:#B19177;}
	.st8{fill:#92278F;}
	.st9{fill:#F0D0B4;}
	.st10{fill:#3C2415;}
	.st11{fill:#A46C35;}
	.st12{fill:#603913;}
	.st13{fill:#EF4136;}
	.st14{fill:#F1BB58;}
	.st15{fill:#DABCAA;}
	.st16{fill:#E4B69D;}
	.st17{fill:#473D2C;}
	.st18{fill:#7ECAAC;}
	.st19{fill:#EED1A3;}
	.st20{fill:#7F7058;}
	.st21{fill:#8BC63F;}
	.st22{fill:#ED1C24;}
	.st23{fill:#8C715D;}
	.st24{fill:#282829;}
	.st25{fill:#B6E4FA;}
	.st26{fill:#F7901E;}
	.st27{fill:#DFAA59;}
	.st28{fill:#CF9E76;}
	.st29{fill:none;}
	.st30{fill:#D08D14;}
	.st31{fill:#C68F62;}
	.st32{fill:#464547;}
	.st33{fill:#543E36;}
	.st34{fill:#F36E21;}
	.st35{fill:#1B75BC;}
	.st36{fill:#48342C;}
	.st37{fill:#25B34B;}
	.st38{fill:#5E533F;}
	.st39{fill:#C18759;}
	.st40{fill:#473C29;}
	.st41{fill:#372E1F;}
	.st42{fill:#584D3C;}
	.st43{fill:#B08874;}
	.st44{fill:#62AD91;}
	.st45{fill:#996953;}
	.st46{fill:#E7A414;}
	.st47{fill:#9C7761;}
	.st48{fill:#ED1C2A;}
	.st49{fill:#906852;}
	.st50{fill:#301703;}
	.st51{fill:#7D4921;}
	.st52{fill:#FFCB05;}
	.st53{fill:#7C361C;}
	.st54{fill:#B33A31;}
	.st55{fill:#DFB28B;}
	.st56{fill:#662D91;}
	.st57{fill:#72594B;}
	.st58{fill:#262262;}
	.st59{fill:#BE1E2D;}
	.st60{display:none;}
	.st61{display:inline;}
</style>
<g id="Layer_4">
	<g>
		<g>
			<rect x="718.5" y="215.6" transform="matrix(6.123234e-17 -1 1 6.123234e-17 430.8999 1024.1001)" width="17.9" height="162"/>
			<g>
				
					<rect x="619.6" y="296.6" transform="matrix(-1.836970e-16 1 -1 -1.836970e-16 943.0626 -314.0062)" width="17.9" height="35.9"/>
				
					<rect x="583.6" y="296.6" transform="matrix(-1.836970e-16 1 -1 -1.836970e-16 907.1306 -278.0742)" width="17.9" height="35.9"/>
			</g>
			<g>
				<rect x="520.8" y="323.5" width="17.9" height="17.9"/>
				
					<rect x="547.7" y="314.5" transform="matrix(-1.836970e-16 1 -1 -1.836970e-16 889.1266 -224.2142)" width="17.9" height="35.9"/>
			</g>
			
				<rect x="493.8" y="332.4" transform="matrix(-1.836970e-16 1 -1 -1.836970e-16 853.1947 -152.4262)" width="17.9" height="35.9"/>
			<rect x="466.9" y="359.3" width="17.9" height="17.9"/>
			<rect x="449" y="377.3" width="17.9" height="17.9"/>
			<rect x="431.1" y="395.2" width="17.9" height="17.9"/>
			<rect x="413.1" y="413.1" width="17.9" height="17.9"/>
			<rect x="395.2" y="431.1" width="17.9" height="17.9"/>
			<rect x="377.3" y="449" width="17.9" height="17.9"/>
			<rect x="359.3" y="466.9" width="17.9" height="17.9"/>
			<rect x="341.4" y="484.8" width="17.9" height="35.9"/>
			<g>
				
					<rect x="323.5" y="520.8" transform="matrix(-1.836970e-16 1 -1 -1.836970e-16 862.1967 197.2843)" width="17.9" height="17.9"/>
				
					<rect x="323.5" y="538.7" transform="matrix(-1 -1.224647e-16 1.224647e-16 -1 664.9124 1113.3409)" width="17.9" height="35.9"/>
			</g>
			
				<rect x="305.6" y="610.6" transform="matrix(-1 -1.224647e-16 1.224647e-16 -1 629.0563 1257.0687)" width="17.9" height="35.9"/>
			
				<rect x="305.6" y="574.6" transform="matrix(-1 -1.224647e-16 1.224647e-16 -1 629.0563 1185.2048)" width="17.9" height="35.9"/>
			<rect x="287.6" y="646.5" transform="matrix(-1 -1.224647e-16 1.224647e-16 -1 593.2003 1455)" width="17.9" height="162"/>
			<g>
				<rect x="305.6" y="808.5" width="17.9" height="35.9"/>
				<rect x="305.6" y="844.4" width="17.9" height="35.9"/>
			</g>
			<g>
				
					<rect x="323.5" y="916.3" transform="matrix(6.123234e-17 -1 1 6.123234e-17 -592.8033 1257.7157)" width="17.9" height="17.9"/>
				<rect x="323.5" y="880.4" width="17.9" height="35.9"/>
			</g>
			<rect x="341.4" y="934.2" width="17.9" height="35.9"/>
			<rect x="359.3" y="970.2" transform="matrix(6.123234e-17 -1 1 6.123234e-17 -610.8073 1347.4318)" width="17.9" height="17.9"/>
			<rect x="377.3" y="988.1" transform="matrix(6.123234e-17 -1 1 6.123234e-17 -610.8073 1383.2878)" width="17.9" height="17.9"/>
			<rect x="395.2" y="1006" transform="matrix(6.123234e-17 -1 1 6.123234e-17 -610.8073 1419.1439)" width="17.9" height="17.9"/>
			<rect x="413.1" y="1023.9" transform="matrix(6.123234e-17 -1 1 6.123234e-17 -610.8073 1455)" width="17.9" height="17.9"/>
			
				<rect x="431.1" y="1041.9" transform="matrix(6.123234e-17 -1 1 6.123234e-17 -610.8073 1490.8561)" width="17.9" height="17.9"/>
			<rect x="449" y="1059.8" transform="matrix(6.123234e-17 -1 1 6.123234e-17 -610.8073 1526.7122)" width="17.9" height="17.9"/>
			
				<rect x="466.9" y="1077.7" transform="matrix(6.123234e-17 -1 1 6.123234e-17 -610.8073 1562.5682)" width="17.9" height="17.9"/>
			
				<rect x="493.8" y="1086.6" transform="matrix(6.123234e-17 -1 1 6.123234e-17 -601.8053 1607.4263)" width="17.9" height="35.9"/>
			<g>
				<rect x="520.8" y="1113.6" width="17.9" height="17.9"/>
				
					<rect x="547.7" y="1104.6" transform="matrix(-1.836970e-16 1 -1 -1.836970e-16 1679.2142 565.8734)" width="17.9" height="35.9"/>
			</g>
			<g>
				
					<rect x="619.6" y="1122.5" transform="matrix(-1.836970e-16 1 -1 -1.836970e-16 1769.0062 511.9374)" width="17.9" height="35.9"/>
				
					<rect x="583.6" y="1122.5" transform="matrix(-1.836970e-16 1 -1 -1.836970e-16 1733.0742 547.8694)" width="17.9" height="35.9"/>
			</g>
		</g>
		<rect x="718.5" y="1077.4" transform="matrix(4.464233e-11 1 -1 4.464233e-11 1885.8999 430.8999)" width="17.9" height="162"/>
		<g>
			
				<rect x="817.5" y="1122.5" transform="matrix(-4.514960e-11 -1 1 -4.514960e-11 -314.0062 1966.9374)" width="17.9" height="35.9"/>
			
				<rect x="853.4" y="1122.5" transform="matrix(-4.464245e-11 -1 1 -4.464245e-11 -278.0742 2002.8694)" width="17.9" height="35.9"/>
		</g>
		<g>
			
				<rect x="916.3" y="1113.6" transform="matrix(-1 4.514998e-11 -4.514998e-11 -1 1850.519 2245.0876)" width="17.9" height="17.9"/>
			
				<rect x="889.4" y="1104.6" transform="matrix(-4.464245e-11 -1 1 -4.464245e-11 -224.2142 2020.8733)" width="17.9" height="35.9"/>
		</g>
		
			<rect x="943.2" y="1086.6" transform="matrix(-4.464245e-11 -1 1 -4.464245e-11 -152.4262 2056.8054)" width="17.9" height="35.9"/>
		
			<rect x="970.2" y="1077.7" transform="matrix(-1 4.525124e-11 -4.525124e-11 -1 1958.2391 2173.3755)" width="17.9" height="17.9"/>
		
			<rect x="988.1" y="1059.8" transform="matrix(-1 4.454114e-11 -4.454114e-11 -1 1994.0951 2137.5193)" width="17.9" height="17.9"/>
		
			<rect x="1006" y="1041.9" transform="matrix(-1 4.454114e-11 -4.454114e-11 -1 2029.9512 2101.6633)" width="17.9" height="17.9"/>
		
			<rect x="1023.9" y="1023.9" transform="matrix(-1 4.464239e-11 -4.464239e-11 -1 2065.8074 2065.8074)" width="17.9" height="17.9"/>
		
			<rect x="1041.9" y="1006" transform="matrix(-1 4.454114e-11 -4.454114e-11 -1 2101.6633 2029.9512)" width="17.9" height="17.9"/>
		
			<rect x="1059.8" y="988.1" transform="matrix(-1 4.464239e-11 -4.464239e-11 -1 2137.5193 1994.0951)" width="17.9" height="17.9"/>
		
			<rect x="1077.7" y="970.2" transform="matrix(-1 4.464239e-11 -4.464239e-11 -1 2173.3755 1958.2391)" width="17.9" height="17.9"/>
		
			<rect x="1095.7" y="934.2" transform="matrix(-1 4.464239e-11 -4.464239e-11 -1 2209.2314 1904.379)" width="17.9" height="35.9"/>
		<g>
			
				<rect x="1113.6" y="916.3" transform="matrix(-4.464245e-11 -1 1 -4.464245e-11 197.2843 2047.8033)" width="17.9" height="17.9"/>
			<rect x="1113.6" y="880.4" width="17.9" height="35.9"/>
		</g>
		<g>
			<rect x="1131.5" y="808.5" width="17.9" height="35.9"/>
			<rect x="1131.5" y="844.4" width="17.9" height="35.9"/>
		</g>
		<rect x="1149.4" y="646.5" width="17.9" height="162"/>
		<g>
			
				<rect x="1131.5" y="610.6" transform="matrix(-1 4.464239e-11 -4.464239e-11 -1 2280.9436 1257.0687)" width="17.9" height="35.9"/>
			
				<rect x="1131.5" y="574.6" transform="matrix(-1 4.514998e-11 -4.514998e-11 -1 2280.9436 1185.2048)" width="17.9" height="35.9"/>
		</g>
		<g>
			
				<rect x="1113.6" y="520.8" transform="matrix(4.464233e-11 1 -1 4.464233e-11 1652.2843 -592.8033)" width="17.9" height="17.9"/>
			
				<rect x="1113.6" y="538.7" transform="matrix(-1 4.514998e-11 -4.514998e-11 -1 2245.0876 1113.3409)" width="17.9" height="35.9"/>
		</g>
		
			<rect x="1095.7" y="484.8" transform="matrix(-1 4.514998e-11 -4.514998e-11 -1 2209.2314 1005.6209)" width="17.9" height="35.9"/>
		<rect x="1077.7" y="466.9" transform="matrix(4.464233e-11 1 -1 4.464233e-11 1562.5682 -610.8073)" width="17.9" height="17.9"/>
		<rect x="1059.8" y="449" transform="matrix(4.514948e-11 1 -1 4.514948e-11 1526.7122 -610.8073)" width="17.9" height="17.9"/>
		<rect x="1041.9" y="431.1" transform="matrix(4.525073e-11 1 -1 4.525073e-11 1490.8561 -610.8073)" width="17.9" height="17.9"/>
		<rect x="1023.9" y="413.1" transform="matrix(4.514948e-11 1 -1 4.514948e-11 1455 -610.8073)" width="17.9" height="17.9"/>
		<rect x="1006" y="395.2" transform="matrix(4.514948e-11 1 -1 4.514948e-11 1419.1439 -610.8073)" width="17.9" height="17.9"/>
		<rect x="988.1" y="377.3" transform="matrix(4.525073e-11 1 -1 4.525073e-11 1383.2878 -610.8073)" width="17.9" height="17.9"/>
		<rect x="970.2" y="359.3" transform="matrix(4.514948e-11 1 -1 4.514948e-11 1347.4318 -610.8073)" width="17.9" height="17.9"/>
		<rect x="943.2" y="332.4" transform="matrix(4.464233e-11 1 -1 4.464233e-11 1302.5737 -601.8053)" width="17.9" height="35.9"/>
		<g>
			<rect x="916.3" y="323.5" transform="matrix(-1 4.514998e-11 -4.514998e-11 -1 1850.519 664.9124)" width="17.9" height="17.9"/>
			
				<rect x="889.4" y="314.5" transform="matrix(-4.464245e-11 -1 1 -4.464245e-11 565.8734 1230.7858)" width="17.9" height="35.9"/>
		</g>
		<g>
			
				<rect x="817.5" y="296.6" transform="matrix(-4.514960e-11 -1 1 -4.514960e-11 511.9374 1140.9938)" width="17.9" height="35.9"/>
			
				<rect x="853.4" y="296.6" transform="matrix(-4.464245e-11 -1 1 -4.464245e-11 547.8694 1176.9258)" width="17.9" height="35.9"/>
		</g>
	</g>
	<polygon class="st3" points="1149.1,646.8 1131.5,646.8 1131.5,574.3 1113.4,574.3 1113.4,520.6 1095.7,520.6 1095.7,484.8 
		1077.7,484.8 1077.7,466.9 1059.8,466.9 1059.8,449 1041.9,449 1041.9,431.1 1023.9,431.1 1023.9,413.1 1006,413.1 1006,395.2 
		988.1,395.2 988.1,377.3 970.2,377.3 970.2,359.3 934.2,359.3 934.2,341.4 880.7,341.4 880.7,323.5 807.9,323.5 807.9,305.6 
		646.5,305.6 646.5,323.5 574.3,323.5 574.3,341.4 520.4,341.4 520.4,359.3 484.8,359.3 484.8,377.3 466.9,377.3 466.9,395.2 
		449,395.2 449,413.1 431.1,413.1 431.1,431.1 413.1,431.1 413.1,449 395.2,449 395.2,466.9 377.3,466.9 377.3,484.8 359.3,484.8 
		359.3,520.6 341.2,520.6 341.2,574.3 323.5,574.3 323.5,646.8 305.3,646.8 305.3,808.2 323.5,808.2 323.5,880.7 341.2,880.7 
		341.2,934.4 359.3,934.4 359.3,970.2 377.3,970.2 377.3,988.1 395.2,988.1 395.2,1006 413.1,1006 413.1,1023.9 431.1,1023.9 
		431.1,1041.9 449,1041.9 449,1059.8 466.9,1059.8 466.9,1077.7 484.8,1077.7 484.8,1095.7 520.4,1095.7 520.4,1113.6 574.3,1113.6 
		574.3,1131.5 646.5,1131.5 646.5,1149.4 807.9,1149.4 807.9,1131.5 880.7,1131.5 880.7,1113.6 934.2,1113.6 934.2,1095.7 
		970.2,1095.7 970.2,1077.7 988.1,1077.7 988.1,1059.8 1006,1059.8 1006,1041.9 1023.9,1041.9 1023.9,1023.9 1041.9,1023.9 
		1041.9,1006 1059.8,1006 1059.8,988.1 1077.7,988.1 1077.7,970.2 1095.7,970.2 1095.7,934.4 1113.4,934.4 1113.4,880.7 
		1131.5,880.7 1131.5,808.2 1149.1,808.2 	"/>
</g>
<g id="Layer_2">
	<g>
		<g>
			<rect x="718.5" y="215.6" transform="matrix(6.123234e-17 -1 1 6.123234e-17 430.8999 1024.1001)" width="17.9" height="162"/>
			<g>
				
					<rect x="619.6" y="296.6" transform="matrix(-1.836970e-16 1 -1 -1.836970e-16 943.0626 -314.0062)" width="17.9" height="35.9"/>
				
					<rect x="583.6" y="296.6" transform="matrix(-1.836970e-16 1 -1 -1.836970e-16 907.1306 -278.0742)" width="17.9" height="35.9"/>
			</g>
			<g>
				<rect x="520.8" y="323.5" width="17.9" height="17.9"/>
				
					<rect x="547.7" y="314.5" transform="matrix(-1.836970e-16 1 -1 -1.836970e-16 889.1266 -224.2142)" width="17.9" height="35.9"/>
			</g>
			
				<rect x="493.8" y="332.4" transform="matrix(-1.836970e-16 1 -1 -1.836970e-16 853.1947 -152.4262)" width="17.9" height="35.9"/>
			<rect x="466.9" y="359.3" width="17.9" height="17.9"/>
			<rect x="449" y="377.3" width="17.9" height="17.9"/>
			<rect x="431.1" y="395.2" width="17.9" height="17.9"/>
			<rect x="413.1" y="413.1" width="17.9" height="17.9"/>
			<rect x="395.2" y="431.1" width="17.9" height="17.9"/>
			<rect x="377.3" y="449" width="17.9" height="17.9"/>
			<rect x="359.3" y="466.9" width="17.9" height="17.9"/>
			<rect x="341.4" y="484.8" width="17.9" height="35.9"/>
			<g>
				
					<rect x="323.5" y="520.8" transform="matrix(-1.836970e-16 1 -1 -1.836970e-16 862.1967 197.2843)" width="17.9" height="17.9"/>
				
					<rect x="323.5" y="538.7" transform="matrix(-1 -1.224647e-16 1.224647e-16 -1 664.9124 1113.3409)" width="17.9" height="35.9"/>
			</g>
			
				<rect x="305.6" y="610.6" transform="matrix(-1 -1.224647e-16 1.224647e-16 -1 629.0563 1257.0687)" width="17.9" height="35.9"/>
			
				<rect x="305.6" y="574.6" transform="matrix(-1 -1.224647e-16 1.224647e-16 -1 629.0563 1185.2048)" width="17.9" height="35.9"/>
			<rect x="287.6" y="646.5" transform="matrix(-1 -1.224647e-16 1.224647e-16 -1 593.2003 1455)" width="17.9" height="162"/>
			<g>
				<rect x="305.6" y="808.5" width="17.9" height="35.9"/>
				<rect x="305.6" y="844.4" width="17.9" height="35.9"/>
			</g>
			<g>
				
					<rect x="323.5" y="916.3" transform="matrix(6.123234e-17 -1 1 6.123234e-17 -592.8033 1257.7157)" width="17.9" height="17.9"/>
				<rect x="323.5" y="880.4" width="17.9" height="35.9"/>
			</g>
			<rect x="341.4" y="934.2" width="17.9" height="35.9"/>
			<rect x="359.3" y="970.2" transform="matrix(6.123234e-17 -1 1 6.123234e-17 -610.8073 1347.4318)" width="17.9" height="17.9"/>
			<rect x="377.3" y="988.1" transform="matrix(6.123234e-17 -1 1 6.123234e-17 -610.8073 1383.2878)" width="17.9" height="17.9"/>
			<rect x="395.2" y="1006" transform="matrix(6.123234e-17 -1 1 6.123234e-17 -610.8073 1419.1439)" width="17.9" height="17.9"/>
			<rect x="413.1" y="1023.9" transform="matrix(6.123234e-17 -1 1 6.123234e-17 -610.8073 1455)" width="17.9" height="17.9"/>
			
				<rect x="431.1" y="1041.9" transform="matrix(6.123234e-17 -1 1 6.123234e-17 -610.8073 1490.8561)" width="17.9" height="17.9"/>
			<rect x="449" y="1059.8" transform="matrix(6.123234e-17 -1 1 6.123234e-17 -610.8073 1526.7122)" width="17.9" height="17.9"/>
			
				<rect x="466.9" y="1077.7" transform="matrix(6.123234e-17 -1 1 6.123234e-17 -610.8073 1562.5682)" width="17.9" height="17.9"/>
			
				<rect x="493.8" y="1086.6" transform="matrix(6.123234e-17 -1 1 6.123234e-17 -601.8053 1607.4263)" width="17.9" height="35.9"/>
			<g>
				<rect x="520.8" y="1113.6" width="17.9" height="17.9"/>
				
					<rect x="547.7" y="1104.6" transform="matrix(-1.836970e-16 1 -1 -1.836970e-16 1679.2142 565.8734)" width="17.9" height="35.9"/>
			</g>
			<g>
				
					<rect x="619.6" y="1122.5" transform="matrix(-1.836970e-16 1 -1 -1.836970e-16 1769.0062 511.9374)" width="17.9" height="35.9"/>
				
					<rect x="583.6" y="1122.5" transform="matrix(-1.836970e-16 1 -1 -1.836970e-16 1733.0742 547.8694)" width="17.9" height="35.9"/>
			</g>
		</g>
		<rect x="718.5" y="1077.4" transform="matrix(4.464233e-11 1 -1 4.464233e-11 1885.8999 430.8999)" width="17.9" height="162"/>
		<g>
			
				<rect x="817.5" y="1122.5" transform="matrix(-4.514960e-11 -1 1 -4.514960e-11 -314.0062 1966.9374)" width="17.9" height="35.9"/>
			
				<rect x="853.4" y="1122.5" transform="matrix(-4.464245e-11 -1 1 -4.464245e-11 -278.0742 2002.8694)" width="17.9" height="35.9"/>
		</g>
		<g>
			
				<rect x="916.3" y="1113.6" transform="matrix(-1 4.514998e-11 -4.514998e-11 -1 1850.519 2245.0876)" width="17.9" height="17.9"/>
			
				<rect x="889.4" y="1104.6" transform="matrix(-4.464245e-11 -1 1 -4.464245e-11 -224.2142 2020.8733)" width="17.9" height="35.9"/>
		</g>
		
			<rect x="943.2" y="1086.6" transform="matrix(-4.464245e-11 -1 1 -4.464245e-11 -152.4262 2056.8054)" width="17.9" height="35.9"/>
		
			<rect x="970.2" y="1077.7" transform="matrix(-1 4.525124e-11 -4.525124e-11 -1 1958.2391 2173.3755)" width="17.9" height="17.9"/>
		
			<rect x="988.1" y="1059.8" transform="matrix(-1 4.454114e-11 -4.454114e-11 -1 1994.0951 2137.5193)" width="17.9" height="17.9"/>
		
			<rect x="1006" y="1041.9" transform="matrix(-1 4.454114e-11 -4.454114e-11 -1 2029.9512 2101.6633)" width="17.9" height="17.9"/>
		
			<rect x="1023.9" y="1023.9" transform="matrix(-1 4.464239e-11 -4.464239e-11 -1 2065.8074 2065.8074)" width="17.9" height="17.9"/>
		
			<rect x="1041.9" y="1006" transform="matrix(-1 4.454114e-11 -4.454114e-11 -1 2101.6633 2029.9512)" width="17.9" height="17.9"/>
		
			<rect x="1059.8" y="988.1" transform="matrix(-1 4.464239e-11 -4.464239e-11 -1 2137.5193 1994.0951)" width="17.9" height="17.9"/>
		
			<rect x="1077.7" y="970.2" transform="matrix(-1 4.464239e-11 -4.464239e-11 -1 2173.3755 1958.2391)" width="17.9" height="17.9"/>
		
			<rect x="1095.7" y="934.2" transform="matrix(-1 4.464239e-11 -4.464239e-11 -1 2209.2314 1904.379)" width="17.9" height="35.9"/>
		<g>
			
				<rect x="1113.6" y="916.3" transform="matrix(-4.464245e-11 -1 1 -4.464245e-11 197.2843 2047.8033)" width="17.9" height="17.9"/>
			<rect x="1113.6" y="880.4" width="17.9" height="35.9"/>
		</g>
		<g>
			<rect x="1131.5" y="808.5" width="17.9" height="35.9"/>
			<rect x="1131.5" y="844.4" width="17.9" height="35.9"/>
		</g>
		<rect x="1149.4" y="646.5" width="17.9" height="162"/>
		<g>
			
				<rect x="1131.5" y="610.6" transform="matrix(-1 4.464239e-11 -4.464239e-11 -1 2280.9436 1257.0687)" width="17.9" height="35.9"/>
			
				<rect x="1131.5" y="574.6" transform="matrix(-1 4.514998e-11 -4.514998e-11 -1 2280.9436 1185.2048)" width="17.9" height="35.9"/>
		</g>
		<g>
			
				<rect x="1113.6" y="520.8" transform="matrix(4.464233e-11 1 -1 4.464233e-11 1652.2843 -592.8033)" width="17.9" height="17.9"/>
			
				<rect x="1113.6" y="538.7" transform="matrix(-1 4.514998e-11 -4.514998e-11 -1 2245.0876 1113.3409)" width="17.9" height="35.9"/>
		</g>
		
			<rect x="1095.7" y="484.8" transform="matrix(-1 4.514998e-11 -4.514998e-11 -1 2209.2314 1005.6209)" width="17.9" height="35.9"/>
		<rect x="1077.7" y="466.9" transform="matrix(4.464233e-11 1 -1 4.464233e-11 1562.5682 -610.8073)" width="17.9" height="17.9"/>
		<rect x="1059.8" y="449" transform="matrix(4.514948e-11 1 -1 4.514948e-11 1526.7122 -610.8073)" width="17.9" height="17.9"/>
		<rect x="1041.9" y="431.1" transform="matrix(4.525073e-11 1 -1 4.525073e-11 1490.8561 -610.8073)" width="17.9" height="17.9"/>
		<rect x="1023.9" y="413.1" transform="matrix(4.514948e-11 1 -1 4.514948e-11 1455 -610.8073)" width="17.9" height="17.9"/>
		<rect x="1006" y="395.2" transform="matrix(4.514948e-11 1 -1 4.514948e-11 1419.1439 -610.8073)" width="17.9" height="17.9"/>
		<rect x="988.1" y="377.3" transform="matrix(4.525073e-11 1 -1 4.525073e-11 1383.2878 -610.8073)" width="17.9" height="17.9"/>
		<rect x="970.2" y="359.3" transform="matrix(4.514948e-11 1 -1 4.514948e-11 1347.4318 -610.8073)" width="17.9" height="17.9"/>
		<rect x="943.2" y="332.4" transform="matrix(4.464233e-11 1 -1 4.464233e-11 1302.5737 -601.8053)" width="17.9" height="35.9"/>
		<g>
			<rect x="916.3" y="323.5" transform="matrix(-1 4.514998e-11 -4.514998e-11 -1 1850.519 664.9124)" width="17.9" height="17.9"/>
			
				<rect x="889.4" y="314.5" transform="matrix(-4.464245e-11 -1 1 -4.464245e-11 565.8734 1230.7858)" width="17.9" height="35.9"/>
		</g>
		<g>
			
				<rect x="817.5" y="296.6" transform="matrix(-4.514960e-11 -1 1 -4.514960e-11 511.9374 1140.9938)" width="17.9" height="35.9"/>
			
				<rect x="853.4" y="296.6" transform="matrix(-4.464245e-11 -1 1 -4.464245e-11 547.8694 1176.9258)" width="17.9" height="35.9"/>
		</g>
	</g>
</g>
<g id="Color">
	<polygon class="st8" points="862.5,952.5 862.5,934.6 592.5,934.4 592.5,952.2 538.3,952.2 538.2,1113.6 574.6,1113.6 
		574.6,1131.5 646.1,1131.5 646.1,1149.4 808.5,1149.4 808.5,1131.5 880.4,1131.5 880.3,1113.6 916.7,1113.6 916.7,952.5 	"/>
	<polygon class="st9" points="898.8,638.5 898.8,548.4 646.3,548.4 646.4,530.1 628.3,529.9 628.3,548.4 557.1,548.4 557.1,638.5 
		538.2,638.5 538.2,728 556.1,728 556.1,836 574.2,836 574.4,853.9 592.3,853.9 592.3,871.9 610.2,871.9 610.2,889.8 613,889.8 
		628.1,889.8 628.3,908.2 646.5,908.2 646.5,944 808.5,944 808.5,908.2 826.6,908.2 826.9,908.2 826.9,890.3 844.8,890.3 
		844.8,872.3 862.8,872.3 862.8,854.4 880.7,854.4 880.7,836 880.7,836 898.6,836 898.8,836 898.8,728 916.7,728 916.7,638.5 	"/>
	<polygon points="808.6,493.5 808.6,475.9 646.5,475.9 610.2,475.9 610.2,493.9 592,493.9 592,529.5 573.8,529.5 573.8,655.7 
		610.2,655.7 610.2,529.5 628.3,529.5 628.3,511.5 646.5,511.5 646.5,547.7 808.6,547.7 862.7,547.7 862.7,493.5 	"/>
	<polygon points="682.5,440 772.5,440 772.5,421.8 790.4,421.8 790.4,385.4 772.5,385.4 772.5,367.8 682.5,367.8 682.5,385.4 
		664.5,385.4 664.5,421.8 682.5,421.8 	"/>
	<rect x="592.2" y="493.5" class="st32" width="17.9" height="17.9"/>
	<rect x="574.3" y="511.4" class="st32" width="17.9" height="36.3"/>
	<rect x="844.8" y="493.5" class="st32" width="17.9" height="17.9"/>
	<rect x="862.7" y="511.4" class="st32" width="17.9" height="36.3"/>
	<rect x="556.4" y="547.7" class="st32" width="17.9" height="90.1"/>
	<rect x="880.7" y="547.7" class="st32" width="17.9" height="90.1"/>
	
		<rect x="619.4" y="466.3" transform="matrix(-1.836970e-16 1 -1 -1.836970e-16 1112.8235 -143.825)" class="st32" width="17.9" height="36.3"/>
	
		<rect x="817.7" y="466.3" transform="matrix(-1.836970e-16 1 -1 -1.836970e-16 1311.1406 -342.1422)" class="st32" width="17.9" height="36.3"/>
	
		<rect x="718.5" y="385.6" transform="matrix(-1.836970e-16 1 -1 -1.836970e-16 1194.054 -260.9117)" class="st32" width="17.9" height="162"/>
	
		<rect x="556.4" y="619.6" transform="matrix(-1.836970e-16 1 -1 -1.836970e-16 1212.1168 81.3581)" class="st55" width="17.9" height="54.2"/>
	<rect x="520.4" y="655.6" class="st55" width="17.9" height="54.2"/>
	
		<rect x="556.4" y="691.8" transform="matrix(-1.836970e-16 1 -1 -1.836970e-16 1284.2269 153.4681)" class="st55" width="17.9" height="54.2"/>
	<rect x="556.4" y="727.8" class="st55" width="17.9" height="107.5"/>
	<rect x="880.7" y="727.8" class="st55" width="17.9" height="107.5"/>
	<rect x="610.2" y="871.6" class="st55" width="17.9" height="17.9"/>
	
		<rect x="610.4" y="907.3" transform="matrix(-1.836970e-16 1 -1 -1.836970e-16 1553.7543 315.0338)" class="st56" width="17.9" height="54.2"/>
	
		<rect x="718.5" y="835.5" transform="matrix(-1.836970e-16 1 -1 -1.836970e-16 1643.9489 188.9831)" class="st55" width="17.9" height="162"/>
	
		<rect x="718.5" y="853.4" transform="matrix(-1.836970e-16 1 -1 -1.836970e-16 1661.8768 206.9111)" class="st29" width="17.9" height="162"/>
	
		<rect x="718.5" y="871.3" transform="matrix(-1.836970e-16 1 -1 -1.836970e-16 1679.8048 224.8392)" class="st56" width="17.9" height="162"/>
	
		<rect x="889.7" y="700.8" transform="matrix(6.123234e-17 -1 1 6.123234e-17 179.8354 1617.5304)" class="st55" width="17.9" height="36.1"/>
	
		<rect x="916.7" y="655.7" transform="matrix(-1 -1.224647e-16 1.224647e-16 -1 1851.3466 1365.585)" class="st55" width="17.9" height="54.2"/>
	
		<rect x="889.7" y="628.7" transform="matrix(6.123234e-17 -1 1 6.123234e-17 251.9454 1545.4204)" class="st55" width="17.9" height="36.1"/>
	<rect x="556.4" y="672.6" class="st55" width="17.9" height="17.9"/>
	<rect x="664.5" y="583.6" transform="matrix(-1.836970e-16 1 -1 -1.836970e-16 1284.2415 -62.7665)" width="17.9" height="54.2"/>
	<rect x="808.7" y="583.6" transform="matrix(-1.836970e-16 1 -1 -1.836970e-16 1428.4491 -206.9742)" width="17.9" height="54.2"/>
	<rect x="664.5" y="637.6" transform="matrix(-1.836970e-16 1 -1 -1.836970e-16 1338.1694 -8.8385)" width="17.9" height="54.2"/>
	<rect x="808.7" y="637.6" transform="matrix(-1.836970e-16 1 -1 -1.836970e-16 1482.3771 -153.0461)" width="17.9" height="54.2"/>
	<rect x="736.5" y="736.6" class="st55" width="17.9" height="35.9"/>
	<rect x="693.2" y="799.6" class="st28" width="17.9" height="17.9"/>
	<rect x="765.5" y="799.6" class="st28" width="17.9" height="17.9"/>
	
		<rect x="729.3" y="799.4" transform="matrix(-1.836970e-16 1 -1 -1.836970e-16 1564.8491 88.2267)" class="st28" width="17.9" height="54.3"/>
	<rect x="718.5" y="754.6" class="st55" width="17.9" height="17.9"/>
	
		<rect x="826.6" y="907.3" transform="matrix(-1.836970e-16 1 -1 -1.836970e-16 1769.9994 98.7885)" class="st56" width="17.9" height="54.2"/>
	
		<rect x="556.4" y="925.2" transform="matrix(-1.836970e-16 1 -1 -1.836970e-16 1517.6672 386.9768)" class="st56" width="17.9" height="54.2"/>
	
		<rect x="880.7" y="925.2" transform="matrix(-1.836970e-16 1 -1 -1.836970e-16 1841.9425 62.7015)" class="st56" width="17.9" height="54.2"/>
	
		<rect x="520.4" y="961.3" transform="matrix(-1 -1.224647e-16 1.224647e-16 -1 1058.6553 2074.8687)" class="st56" width="17.9" height="152.3"/>
	
		<rect x="916.7" y="961.3" transform="matrix(-1 -1.224647e-16 1.224647e-16 -1 1851.3488 2074.8687)" class="st56" width="17.9" height="152.3"/>
	<rect x="628.3" y="511.6" class="st32" width="17.9" height="17.9"/>
	
		<rect x="844.7" y="529.7" transform="matrix(-1.836970e-16 1 -1 -1.836970e-16 1410.348 -296.9335)" class="st32" width="17.9" height="54"/>
	<rect x="610.4" y="529.4" class="st32" width="17.9" height="126.2"/>
	<rect x="592.2" y="655.7" class="st32" width="17.9" height="17.9"/>
	<rect x="574.3" y="835.3" class="st55" width="17.9" height="17.9"/>
	<rect x="592.2" y="853.7" class="st55" width="17.9" height="17.9"/>
	<rect x="628.1" y="889.6" class="st55" width="17.9" height="17.9"/>
	<g>
		
			<rect x="826.9" y="871.6" transform="matrix(-1 4.464239e-11 -4.464239e-11 -1 1671.6727 1761.2198)" class="st55" width="17.9" height="17.9"/>
		
			<rect x="862.7" y="835.3" transform="matrix(-1 4.464239e-11 -4.464239e-11 -1 1743.3849 1688.5839)" class="st55" width="17.9" height="17.9"/>
		
			<rect x="844.8" y="853.7" transform="matrix(-1 4.464239e-11 -4.464239e-11 -1 1707.5288 1725.3638)" class="st55" width="17.9" height="17.9"/>
		
			<rect x="808.9" y="889.6" transform="matrix(-1 4.525124e-11 -4.525124e-11 -1 1635.8168 1797.0758)" class="st55" width="17.9" height="17.9"/>
	</g>
	<rect x="772.7" y="673.6" width="17.9" height="17.9"/>
	<rect x="700.6" y="673.6" width="17.9" height="17.9"/>
	<rect x="628.3" y="673.6" width="17.9" height="17.9"/>
	<rect x="844.8" y="673.6" width="17.9" height="17.9"/>
	<rect x="628.3" y="529.5" class="st32" width="17.9" height="17.9"/>
	<rect x="646.3" y="547.4" class="st32" width="180.4" height="17.9"/>
	<rect x="700.6" y="511.5" class="st32" width="17.9" height="35.9"/>
	<rect x="790.6" y="511.5" class="st32" width="17.9" height="35.9"/>
	
		<rect x="718.5" y="403.6" transform="matrix(-1.836970e-16 1 -1 -1.836970e-16 1176.126 -278.8397)" class="st32" width="17.9" height="90.1"/>
	<rect x="664.5" y="421.8" class="st32" width="17.9" height="17.9"/>
	<rect x="646.6" y="385.4" class="st32" width="17.9" height="36.3"/>
	<rect x="664.5" y="367.8" class="st32" width="17.9" height="17.9"/>
	<g>
		
			<rect x="772.5" y="367.8" transform="matrix(-1 -4.464263e-11 4.464263e-11 -1 1562.958 753.4721)" class="st32" width="17.9" height="17.9"/>
		
			<rect x="790.4" y="385.7" transform="matrix(-1 -4.464263e-11 4.464263e-11 -1 1598.8141 807.7181)" class="st32" width="17.9" height="36.3"/>
		
			<rect x="772.5" y="421.8" transform="matrix(-1 -4.515023e-11 4.515023e-11 -1 1562.958 861.4302)" class="st32" width="17.9" height="17.9"/>
	</g>
	
		<rect x="718.5" y="314" transform="matrix(-1.836970e-16 1 -1 -1.836970e-16 1086.5577 -368.4079)" class="st32" width="17.9" height="90.1"/>
</g>
<g id="Layer_1" class="st60">
	<g class="st61">
		<rect x="592.2" y="493.5" width="17.9" height="17.9"/>
		<rect x="574.3" y="511.4" width="17.9" height="36.3"/>
		<rect x="844.8" y="493.5" width="17.9" height="17.9"/>
		<rect x="862.7" y="511.4" width="17.9" height="36.3"/>
		<rect x="556.4" y="547.7" width="17.9" height="90.1"/>
		<rect x="880.7" y="547.7" width="17.9" height="90.1"/>
		<rect x="619.4" y="466.3" transform="matrix(-1.836970e-16 1 -1 -1.836970e-16 1112.8235 -143.825)" width="17.9" height="36.3"/>
		
			<rect x="817.7" y="466.3" transform="matrix(-1.836970e-16 1 -1 -1.836970e-16 1311.1406 -342.1422)" width="17.9" height="36.3"/>
		<rect x="718.5" y="385.6" transform="matrix(-1.836970e-16 1 -1 -1.836970e-16 1194.054 -260.9117)" width="17.9" height="162"/>
		<rect x="556.4" y="619.6" transform="matrix(-1.836970e-16 1 -1 -1.836970e-16 1212.1168 81.3581)" width="17.9" height="54.2"/>
		<rect x="520.4" y="655.6" width="17.9" height="54.2"/>
		<rect x="556.4" y="691.8" transform="matrix(-1.836970e-16 1 -1 -1.836970e-16 1284.2269 153.4681)" width="17.9" height="54.2"/>
		<rect x="556.4" y="727.8" width="17.9" height="107.5"/>
		<rect x="880.7" y="727.8" width="17.9" height="107.5"/>
		<rect x="610.2" y="871.6" width="17.9" height="17.9"/>
		<rect x="610.4" y="907.3" transform="matrix(-1.836970e-16 1 -1 -1.836970e-16 1553.7543 315.0338)" width="17.9" height="54.2"/>
		<rect x="718.5" y="835.5" transform="matrix(-1.836970e-16 1 -1 -1.836970e-16 1643.9489 188.9831)" width="17.9" height="162"/>
		
			<rect x="718.5" y="853.4" transform="matrix(-1.836970e-16 1 -1 -1.836970e-16 1661.8768 206.9111)" class="st29" width="17.9" height="162"/>
		<rect x="718.5" y="871.3" transform="matrix(-1.836970e-16 1 -1 -1.836970e-16 1679.8048 224.8392)" width="17.9" height="162"/>
		<rect x="889.7" y="700.8" transform="matrix(6.123234e-17 -1 1 6.123234e-17 179.8354 1617.5304)" width="17.9" height="36.1"/>
		<rect x="916.7" y="655.7" transform="matrix(-1 -1.224647e-16 1.224647e-16 -1 1851.3466 1365.585)" width="17.9" height="54.2"/>
		<rect x="889.7" y="628.7" transform="matrix(6.123234e-17 -1 1 6.123234e-17 251.9454 1545.4204)" width="17.9" height="36.1"/>
		<rect x="556.4" y="672.6" width="17.9" height="17.9"/>
		<rect x="664.5" y="583.6" transform="matrix(-1.836970e-16 1 -1 -1.836970e-16 1284.2415 -62.7665)" width="17.9" height="54.2"/>
		
			<rect x="808.7" y="583.6" transform="matrix(-1.836970e-16 1 -1 -1.836970e-16 1428.4491 -206.9742)" width="17.9" height="54.2"/>
		<rect x="664.5" y="637.6" transform="matrix(-1.836970e-16 1 -1 -1.836970e-16 1338.1694 -8.8385)" width="17.9" height="54.2"/>
		
			<rect x="808.7" y="637.6" transform="matrix(-1.836970e-16 1 -1 -1.836970e-16 1482.3771 -153.0461)" width="17.9" height="54.2"/>
		<rect x="736.5" y="736.6" width="17.9" height="35.9"/>
		<rect x="693.2" y="799.6" width="17.9" height="17.9"/>
		<rect x="765.5" y="799.6" width="17.9" height="17.9"/>
		<rect x="729.3" y="799.4" transform="matrix(-1.836970e-16 1 -1 -1.836970e-16 1564.8491 88.2267)" width="17.9" height="54.3"/>
		<rect x="718.5" y="754.6" width="17.9" height="17.9"/>
		<rect x="826.6" y="907.3" transform="matrix(-1.836970e-16 1 -1 -1.836970e-16 1769.9994 98.7885)" width="17.9" height="54.2"/>
		<rect x="556.4" y="925.2" transform="matrix(-1.836970e-16 1 -1 -1.836970e-16 1517.6672 386.9768)" width="17.9" height="54.2"/>
		<rect x="880.7" y="925.2" transform="matrix(-1.836970e-16 1 -1 -1.836970e-16 1841.9425 62.7015)" width="17.9" height="54.2"/>
		
			<rect x="520.4" y="961.3" transform="matrix(-1 -1.224647e-16 1.224647e-16 -1 1058.6553 2074.8687)" width="17.9" height="152.3"/>
		
			<rect x="916.7" y="961.3" transform="matrix(-1 -1.224647e-16 1.224647e-16 -1 1851.3488 2074.8687)" width="17.9" height="152.3"/>
		<rect x="628.3" y="511.6" width="17.9" height="17.9"/>
		<rect x="844.7" y="529.7" transform="matrix(-1.836970e-16 1 -1 -1.836970e-16 1410.348 -296.9335)" width="17.9" height="54"/>
		<rect x="610.4" y="529.4" width="17.9" height="126.2"/>
		<rect x="592.2" y="655.7" width="17.9" height="17.9"/>
		<rect x="574.3" y="835.3" width="17.9" height="17.9"/>
		<rect x="592.2" y="853.7" width="17.9" height="17.9"/>
		<rect x="628.1" y="889.6" width="17.9" height="17.9"/>
		<g>
			
				<rect x="826.9" y="871.6" transform="matrix(-1 4.464239e-11 -4.464239e-11 -1 1671.6727 1761.2198)" width="17.9" height="17.9"/>
			
				<rect x="862.7" y="835.3" transform="matrix(-1 4.464239e-11 -4.464239e-11 -1 1743.3849 1688.5839)" width="17.9" height="17.9"/>
			
				<rect x="844.8" y="853.7" transform="matrix(-1 4.464239e-11 -4.464239e-11 -1 1707.5288 1725.3638)" width="17.9" height="17.9"/>
			
				<rect x="808.9" y="889.6" transform="matrix(-1 4.525124e-11 -4.525124e-11 -1 1635.8168 1797.0758)" width="17.9" height="17.9"/>
		</g>
		<rect x="772.7" y="673.6" width="17.9" height="17.9"/>
		<rect x="700.6" y="673.6" width="17.9" height="17.9"/>
		<rect x="628.3" y="673.6" width="17.9" height="17.9"/>
		<rect x="844.8" y="673.6" width="17.9" height="17.9"/>
		<rect x="628.3" y="529.5" width="17.9" height="17.9"/>
		<rect x="646.3" y="547.4" width="180.4" height="17.9"/>
		<rect x="700.6" y="511.5" width="17.9" height="35.9"/>
		<rect x="790.6" y="511.5" width="17.9" height="35.9"/>
		<rect x="718.5" y="403.6" transform="matrix(-1.836970e-16 1 -1 -1.836970e-16 1176.126 -278.8397)" width="17.9" height="90.1"/>
		<rect x="664.5" y="421.8" width="17.9" height="17.9"/>
		<rect x="646.6" y="385.4" width="17.9" height="36.3"/>
		<rect x="664.5" y="367.8" width="17.9" height="17.9"/>
		<g>
			<rect x="772.5" y="367.8" transform="matrix(-1 -4.464263e-11 4.464263e-11 -1 1562.958 753.4721)" width="17.9" height="17.9"/>
			
				<rect x="790.4" y="385.7" transform="matrix(-1 -4.464263e-11 4.464263e-11 -1 1598.8141 807.7181)" width="17.9" height="36.3"/>
			<rect x="772.5" y="421.8" transform="matrix(-1 -4.515023e-11 4.515023e-11 -1 1562.958 861.4302)" width="17.9" height="17.9"/>
		</g>
		<rect x="718.5" y="314" transform="matrix(-1.836970e-16 1 -1 -1.836970e-16 1086.5577 -368.4079)" width="17.9" height="90.1"/>
	</g>
</g>
</svg>
