<?xml version="1.0" encoding="utf-8"?>
<!-- Generator: Adobe Illustrator 22.1.0, SVG Export Plug-In . SVG Version: 6.00 Build 0)  -->
<svg version="1.1" xmlns="http://www.w3.org/2000/svg" xmlns:xlink="http://www.w3.org/1999/xlink" x="0px" y="0px"
	 viewBox="0 0 1455 1455" style="enable-background:new 0 0 1455 1455;" xml:space="preserve">
<style type="text/css">
	.st0{fill:#B9D989;}
	.st1{fill:#B1DED4;}
	.st2{fill:#E6C954;}
	.st3{fill:#A6ACD7;}
	.st4{fill:#FFF200;}
	.st5{fill:#2B3990;}
	.st6{fill:#27AAE1;}
	.st7{fill:#B19177;}
	.st8{fill:#92278F;}
	.st9{fill:#F0D0B4;}
	.st10{fill:#3C2415;}
	.st11{fill:#A46C35;}
	.st12{fill:#603913;}
	.st13{fill:#EF4136;}
	.st14{fill:#F1BB58;}
	.st15{fill:#DABCAA;}
	.st16{fill:#E4B69D;}
	.st17{fill:#473D2C;}
	.st18{fill:#7ECAAC;}
	.st19{fill:#EED1A3;}
	.st20{fill:#7F7058;}
	.st21{fill:#8BC63F;}
	.st22{fill:#ED1C24;}
	.st23{fill:#8C715D;}
	.st24{fill:#282829;}
	.st25{fill:#B6E4FA;}
	.st26{fill:#F7901E;}
	.st27{fill:#DFAA59;}
	.st28{fill:#CF9E76;}
	.st29{fill:none;}
	.st30{fill:#D08D14;}
	.st31{fill:#C68F62;}
	.st32{fill:#464547;}
	.st33{fill:#543E36;}
	.st34{fill:#F36E21;}
	.st35{fill:#1B75BC;}
	.st36{fill:#48342C;}
	.st37{fill:#25B34B;}
	.st38{fill:#5E533F;}
	.st39{fill:#C18759;}
	.st40{fill:#473C29;}
	.st41{fill:#372E1F;}
	.st42{fill:#584D3C;}
	.st43{fill:#B08874;}
	.st44{fill:#62AD91;}
	.st45{fill:#996953;}
	.st46{fill:#E7A414;}
	.st47{fill:#9C7761;}
	.st48{fill:#ED1C2A;}
	.st49{fill:#906852;}
	.st50{fill:#301703;}
	.st51{fill:#7D4921;}
	.st52{fill:#FFCB05;}
	.st53{fill:#7C361C;}
	.st54{fill:#B33A31;}
	.st55{fill:#DFB28B;}
	.st56{fill:#662D91;}
	.st57{fill:#72594B;}
	.st58{fill:#262262;}
	.st59{fill:#BE1E2D;}
	.st60{display:none;}
	.st61{display:inline;}
</style>
<g id="Layer_4">
	<g>
		<g>
			<rect x="718.5" y="215.6" transform="matrix(6.123234e-17 -1 1 6.123234e-17 430.8999 1024.1001)" width="17.9" height="162"/>
			<g>
				
					<rect x="619.6" y="296.6" transform="matrix(-1.836970e-16 1 -1 -1.836970e-16 943.0626 -314.0062)" width="17.9" height="35.9"/>
				
					<rect x="583.6" y="296.6" transform="matrix(-1.836970e-16 1 -1 -1.836970e-16 907.1306 -278.0742)" width="17.9" height="35.9"/>
			</g>
			<g>
				<rect x="520.8" y="323.5" width="17.9" height="17.9"/>
				
					<rect x="547.7" y="314.5" transform="matrix(-1.836970e-16 1 -1 -1.836970e-16 889.1266 -224.2142)" width="17.9" height="35.9"/>
			</g>
			
				<rect x="493.8" y="332.4" transform="matrix(-1.836970e-16 1 -1 -1.836970e-16 853.1947 -152.4262)" width="17.9" height="35.9"/>
			<rect x="466.9" y="359.3" width="17.9" height="17.9"/>
			<rect x="449" y="377.3" width="17.9" height="17.9"/>
			<rect x="431.1" y="395.2" width="17.9" height="17.9"/>
			<rect x="413.1" y="413.1" width="17.9" height="17.9"/>
			<rect x="395.2" y="431.1" width="17.9" height="17.9"/>
			<rect x="377.3" y="449" width="17.9" height="17.9"/>
			<rect x="359.3" y="466.9" width="17.9" height="17.9"/>
			<rect x="341.4" y="484.8" width="17.9" height="35.9"/>
			<g>
				
					<rect x="323.5" y="520.8" transform="matrix(-1.836970e-16 1 -1 -1.836970e-16 862.1967 197.2843)" width="17.9" height="17.9"/>
				
					<rect x="323.5" y="538.7" transform="matrix(-1 -1.224647e-16 1.224647e-16 -1 664.9124 1113.3409)" width="17.9" height="35.9"/>
			</g>
			
				<rect x="305.6" y="610.6" transform="matrix(-1 -1.224647e-16 1.224647e-16 -1 629.0563 1257.0687)" width="17.9" height="35.9"/>
			
				<rect x="305.6" y="574.6" transform="matrix(-1 -1.224647e-16 1.224647e-16 -1 629.0563 1185.2048)" width="17.9" height="35.9"/>
			<rect x="287.6" y="646.5" transform="matrix(-1 -1.224647e-16 1.224647e-16 -1 593.2003 1455)" width="17.9" height="162"/>
			<g>
				<rect x="305.6" y="808.5" width="17.9" height="35.9"/>
				<rect x="305.6" y="844.4" width="17.9" height="35.9"/>
			</g>
			<g>
				
					<rect x="323.5" y="916.3" transform="matrix(6.123234e-17 -1 1 6.123234e-17 -592.8033 1257.7157)" width="17.9" height="17.9"/>
				<rect x="323.5" y="880.4" width="17.9" height="35.9"/>
			</g>
			<rect x="341.4" y="934.2" width="17.9" height="35.9"/>
			<rect x="359.3" y="970.2" transform="matrix(6.123234e-17 -1 1 6.123234e-17 -610.8073 1347.4318)" width="17.9" height="17.9"/>
			<rect x="377.3" y="988.1" transform="matrix(6.123234e-17 -1 1 6.123234e-17 -610.8073 1383.2878)" width="17.9" height="17.9"/>
			<rect x="395.2" y="1006" transform="matrix(6.123234e-17 -1 1 6.123234e-17 -610.8073 1419.1439)" width="17.9" height="17.9"/>
			<rect x="413.1" y="1023.9" transform="matrix(6.123234e-17 -1 1 6.123234e-17 -610.8073 1455)" width="17.9" height="17.9"/>
			
				<rect x="431.1" y="1041.9" transform="matrix(6.123234e-17 -1 1 6.123234e-17 -610.8073 1490.8561)" width="17.9" height="17.9"/>
			<rect x="449" y="1059.8" transform="matrix(6.123234e-17 -1 1 6.123234e-17 -610.8073 1526.7122)" width="17.9" height="17.9"/>
			
				<rect x="466.9" y="1077.7" transform="matrix(6.123234e-17 -1 1 6.123234e-17 -610.8073 1562.5682)" width="17.9" height="17.9"/>
			
				<rect x="493.8" y="1086.6" transform="matrix(6.123234e-17 -1 1 6.123234e-17 -601.8053 1607.4263)" width="17.9" height="35.9"/>
			<g>
				<rect x="520.8" y="1113.6" width="17.9" height="17.9"/>
				
					<rect x="547.7" y="1104.6" transform="matrix(-1.836970e-16 1 -1 -1.836970e-16 1679.2142 565.8734)" width="17.9" height="35.9"/>
			</g>
			<g>
				
					<rect x="619.6" y="1122.5" transform="matrix(-1.836970e-16 1 -1 -1.836970e-16 1769.0062 511.9374)" width="17.9" height="35.9"/>
				
					<rect x="583.6" y="1122.5" transform="matrix(-1.836970e-16 1 -1 -1.836970e-16 1733.0742 547.8694)" width="17.9" height="35.9"/>
			</g>
		</g>
		<rect x="718.5" y="1077.4" transform="matrix(4.489635e-11 1 -1 4.489635e-11 1885.8999 430.8999)" width="17.9" height="162"/>
		<g>
			
				<rect x="817.5" y="1122.5" transform="matrix(-4.489647e-11 -1 1 -4.489647e-11 -314.0062 1966.9374)" width="17.9" height="35.9"/>
			
				<rect x="853.4" y="1122.5" transform="matrix(-4.484584e-11 -1 1 -4.484584e-11 -278.0742 2002.8694)" width="17.9" height="35.9"/>
		</g>
		<g>
			
				<rect x="916.3" y="1113.6" transform="matrix(-1 4.514998e-11 -4.514998e-11 -1 1850.519 2245.0876)" width="17.9" height="17.9"/>
			
				<rect x="889.4" y="1104.6" transform="matrix(-4.489647e-11 -1 1 -4.489647e-11 -224.2142 2020.8733)" width="17.9" height="35.9"/>
		</g>
		
			<rect x="943.2" y="1086.6" transform="matrix(-4.484584e-11 -1 1 -4.484584e-11 -152.4262 2056.8054)" width="17.9" height="35.9"/>
		
			<rect x="970.2" y="1077.7" transform="matrix(-1 4.525124e-11 -4.525124e-11 -1 1958.2391 2173.3755)" width="17.9" height="17.9"/>
		
			<rect x="988.1" y="1059.8" transform="matrix(-1 4.454114e-11 -4.454114e-11 -1 1994.0951 2137.5193)" width="17.9" height="17.9"/>
		
			<rect x="1006" y="1041.9" transform="matrix(-1 4.454114e-11 -4.454114e-11 -1 2029.9512 2101.6633)" width="17.9" height="17.9"/>
		
			<rect x="1023.9" y="1023.9" transform="matrix(-1 4.464239e-11 -4.464239e-11 -1 2065.8074 2065.8074)" width="17.9" height="17.9"/>
		
			<rect x="1041.9" y="1006" transform="matrix(-1 4.454114e-11 -4.454114e-11 -1 2101.6633 2029.9512)" width="17.9" height="17.9"/>
		
			<rect x="1059.8" y="988.1" transform="matrix(-1 4.464239e-11 -4.464239e-11 -1 2137.5193 1994.0951)" width="17.9" height="17.9"/>
		
			<rect x="1077.7" y="970.2" transform="matrix(-1 4.464239e-11 -4.464239e-11 -1 2173.3755 1958.2391)" width="17.9" height="17.9"/>
		
			<rect x="1095.7" y="934.2" transform="matrix(-1 4.464239e-11 -4.464239e-11 -1 2209.2314 1904.379)" width="17.9" height="35.9"/>
		<g>
			
				<rect x="1113.6" y="916.3" transform="matrix(-4.464245e-11 -1 1 -4.464245e-11 197.2843 2047.8033)" width="17.9" height="17.9"/>
			<rect x="1113.6" y="880.4" width="17.9" height="35.9"/>
		</g>
		<g>
			<rect x="1131.5" y="808.5" width="17.9" height="35.9"/>
			<rect x="1131.5" y="844.4" width="17.9" height="35.9"/>
		</g>
		<rect x="1149.4" y="646.5" width="17.9" height="162"/>
		<g>
			
				<rect x="1131.5" y="610.6" transform="matrix(-1 4.464239e-11 -4.464239e-11 -1 2280.9436 1257.0687)" width="17.9" height="35.9"/>
			
				<rect x="1131.5" y="574.6" transform="matrix(-1 4.514998e-11 -4.514998e-11 -1 2280.9436 1185.2048)" width="17.9" height="35.9"/>
		</g>
		<g>
			
				<rect x="1113.6" y="520.8" transform="matrix(4.464233e-11 1 -1 4.464233e-11 1652.2843 -592.8033)" width="17.9" height="17.9"/>
			
				<rect x="1113.6" y="538.7" transform="matrix(-1 4.514998e-11 -4.514998e-11 -1 2245.0876 1113.3409)" width="17.9" height="35.9"/>
		</g>
		
			<rect x="1095.7" y="484.8" transform="matrix(-1 4.514998e-11 -4.514998e-11 -1 2209.2314 1005.6209)" width="17.9" height="35.9"/>
		<rect x="1077.7" y="466.9" transform="matrix(4.520099e-11 1 -1 4.520099e-11 1562.5682 -610.8073)" width="17.9" height="17.9"/>
		<rect x="1059.8" y="449" transform="matrix(4.514948e-11 1 -1 4.514948e-11 1526.7122 -610.8073)" width="17.9" height="17.9"/>
		<rect x="1041.9" y="431.1" transform="matrix(4.514948e-11 1 -1 4.514948e-11 1490.8561 -610.8073)" width="17.9" height="17.9"/>
		<rect x="1023.9" y="413.1" transform="matrix(4.520099e-11 1 -1 4.520099e-11 1455 -610.8073)" width="17.9" height="17.9"/>
		<rect x="1006" y="395.2" transform="matrix(4.520099e-11 1 -1 4.520099e-11 1419.1439 -610.8073)" width="17.9" height="17.9"/>
		<rect x="988.1" y="377.3" transform="matrix(4.489635e-11 1 -1 4.489635e-11 1383.2878 -610.8073)" width="17.9" height="17.9"/>
		<rect x="970.2" y="359.3" transform="matrix(4.489635e-11 1 -1 4.489635e-11 1347.4318 -610.8073)" width="17.9" height="17.9"/>
		<rect x="943.2" y="332.4" transform="matrix(4.489635e-11 1 -1 4.489635e-11 1302.5737 -601.8053)" width="17.9" height="35.9"/>
		<g>
			<rect x="916.3" y="323.5" transform="matrix(-1 4.514998e-11 -4.514998e-11 -1 1850.519 664.9124)" width="17.9" height="17.9"/>
			
				<rect x="889.4" y="314.5" transform="matrix(-4.489647e-11 -1 1 -4.489647e-11 565.8734 1230.7858)" width="17.9" height="35.9"/>
		</g>
		<g>
			
				<rect x="817.5" y="296.6" transform="matrix(-4.489647e-11 -1 1 -4.489647e-11 511.9374 1140.9938)" width="17.9" height="35.9"/>
			
				<rect x="853.4" y="296.6" transform="matrix(-4.484584e-11 -1 1 -4.484584e-11 547.8694 1176.9258)" width="17.9" height="35.9"/>
		</g>
	</g>
	<polygon class="st1" points="1149.1,646.8 1131.5,646.8 1131.5,574.3 1113.4,574.3 1113.4,520.6 1095.7,520.6 1095.7,484.8 
		1077.7,484.8 1077.7,466.9 1059.8,466.9 1059.8,449 1041.9,449 1041.9,431.1 1023.9,431.1 1023.9,413.1 1006,413.1 1006,395.2 
		988.1,395.2 988.1,377.3 970.2,377.3 970.2,359.3 934.2,359.3 934.2,341.4 880.7,341.4 880.7,323.5 807.9,323.5 807.9,305.6 
		646.5,305.6 646.5,323.5 574.3,323.5 574.3,341.4 520.4,341.4 520.4,359.3 484.8,359.3 484.8,377.3 466.9,377.3 466.9,395.2 
		449,395.2 449,413.1 431.1,413.1 431.1,431.1 413.1,431.1 413.1,449 395.2,449 395.2,466.9 377.3,466.9 377.3,484.8 359.3,484.8 
		359.3,520.6 341.2,520.6 341.2,574.3 323.5,574.3 323.5,646.8 305.3,646.8 305.3,808.2 323.5,808.2 323.5,880.7 341.2,880.7 
		341.2,934.4 359.3,934.4 359.3,970.2 377.3,970.2 377.3,988.1 395.2,988.1 395.2,1006 413.1,1006 413.1,1023.9 431.1,1023.9 
		431.1,1041.9 449,1041.9 449,1059.8 466.9,1059.8 466.9,1077.7 484.8,1077.7 484.8,1095.7 520.4,1095.7 520.4,1113.6 574.3,1113.6 
		574.3,1131.5 646.5,1131.5 646.5,1149.4 807.9,1149.4 807.9,1131.5 880.7,1131.5 880.7,1113.6 934.2,1113.6 934.2,1095.7 
		970.2,1095.7 970.2,1077.7 988.1,1077.7 988.1,1059.8 1006,1059.8 1006,1041.9 1023.9,1041.9 1023.9,1023.9 1041.9,1023.9 
		1041.9,1006 1059.8,1006 1059.8,988.1 1077.7,988.1 1077.7,970.2 1095.7,970.2 1095.7,934.4 1113.4,934.4 1113.4,880.7 
		1131.5,880.7 1131.5,808.2 1149.1,808.2 	"/>
</g>
<g id="Layer_2">
	<g>
		<g>
			<rect x="718.5" y="215.6" transform="matrix(6.123234e-17 -1 1 6.123234e-17 430.8999 1024.1001)" width="17.9" height="162"/>
			<g>
				
					<rect x="619.6" y="296.6" transform="matrix(-1.836970e-16 1 -1 -1.836970e-16 943.0626 -314.0062)" width="17.9" height="35.9"/>
				
					<rect x="583.6" y="296.6" transform="matrix(-1.836970e-16 1 -1 -1.836970e-16 907.1306 -278.0742)" width="17.9" height="35.9"/>
			</g>
			<g>
				<rect x="520.8" y="323.5" width="17.9" height="17.9"/>
				
					<rect x="547.7" y="314.5" transform="matrix(-1.836970e-16 1 -1 -1.836970e-16 889.1266 -224.2142)" width="17.9" height="35.9"/>
			</g>
			
				<rect x="493.8" y="332.4" transform="matrix(-1.836970e-16 1 -1 -1.836970e-16 853.1947 -152.4262)" width="17.9" height="35.9"/>
			<rect x="466.9" y="359.3" width="17.9" height="17.9"/>
			<rect x="449" y="377.3" width="17.9" height="17.9"/>
			<rect x="431.1" y="395.2" width="17.9" height="17.9"/>
			<rect x="413.1" y="413.1" width="17.9" height="17.9"/>
			<rect x="395.2" y="431.1" width="17.9" height="17.9"/>
			<rect x="377.3" y="449" width="17.9" height="17.9"/>
			<rect x="359.3" y="466.9" width="17.9" height="17.9"/>
			<rect x="341.4" y="484.8" width="17.9" height="35.9"/>
			<g>
				
					<rect x="323.5" y="520.8" transform="matrix(-1.836970e-16 1 -1 -1.836970e-16 862.1967 197.2843)" width="17.9" height="17.9"/>
				
					<rect x="323.5" y="538.7" transform="matrix(-1 -1.224647e-16 1.224647e-16 -1 664.9124 1113.3409)" width="17.9" height="35.9"/>
			</g>
			
				<rect x="305.6" y="610.6" transform="matrix(-1 -1.224647e-16 1.224647e-16 -1 629.0563 1257.0687)" width="17.9" height="35.9"/>
			
				<rect x="305.6" y="574.6" transform="matrix(-1 -1.224647e-16 1.224647e-16 -1 629.0563 1185.2048)" width="17.9" height="35.9"/>
			<rect x="287.6" y="646.5" transform="matrix(-1 -1.224647e-16 1.224647e-16 -1 593.2003 1455)" width="17.9" height="162"/>
			<g>
				<rect x="305.6" y="808.5" width="17.9" height="35.9"/>
				<rect x="305.6" y="844.4" width="17.9" height="35.9"/>
			</g>
			<g>
				
					<rect x="323.5" y="916.3" transform="matrix(6.123234e-17 -1 1 6.123234e-17 -592.8033 1257.7157)" width="17.9" height="17.9"/>
				<rect x="323.5" y="880.4" width="17.9" height="35.9"/>
			</g>
			<rect x="341.4" y="934.2" width="17.9" height="35.9"/>
			<rect x="359.3" y="970.2" transform="matrix(6.123234e-17 -1 1 6.123234e-17 -610.8073 1347.4318)" width="17.9" height="17.9"/>
			<rect x="377.3" y="988.1" transform="matrix(6.123234e-17 -1 1 6.123234e-17 -610.8073 1383.2878)" width="17.9" height="17.9"/>
			<rect x="395.2" y="1006" transform="matrix(6.123234e-17 -1 1 6.123234e-17 -610.8073 1419.1439)" width="17.9" height="17.9"/>
			<rect x="413.1" y="1023.9" transform="matrix(6.123234e-17 -1 1 6.123234e-17 -610.8073 1455)" width="17.9" height="17.9"/>
			
				<rect x="431.1" y="1041.9" transform="matrix(6.123234e-17 -1 1 6.123234e-17 -610.8073 1490.8561)" width="17.9" height="17.9"/>
			<rect x="449" y="1059.8" transform="matrix(6.123234e-17 -1 1 6.123234e-17 -610.8073 1526.7122)" width="17.9" height="17.9"/>
			
				<rect x="466.9" y="1077.7" transform="matrix(6.123234e-17 -1 1 6.123234e-17 -610.8073 1562.5682)" width="17.9" height="17.9"/>
			
				<rect x="493.8" y="1086.6" transform="matrix(6.123234e-17 -1 1 6.123234e-17 -601.8053 1607.4263)" width="17.9" height="35.9"/>
			<g>
				<rect x="520.8" y="1113.6" width="17.9" height="17.9"/>
				
					<rect x="547.7" y="1104.6" transform="matrix(-1.836970e-16 1 -1 -1.836970e-16 1679.2142 565.8734)" width="17.9" height="35.9"/>
			</g>
			<g>
				
					<rect x="619.6" y="1122.5" transform="matrix(-1.836970e-16 1 -1 -1.836970e-16 1769.0062 511.9374)" width="17.9" height="35.9"/>
				
					<rect x="583.6" y="1122.5" transform="matrix(-1.836970e-16 1 -1 -1.836970e-16 1733.0742 547.8694)" width="17.9" height="35.9"/>
			</g>
		</g>
		<rect x="718.5" y="1077.4" transform="matrix(4.489635e-11 1 -1 4.489635e-11 1885.8999 430.8999)" width="17.9" height="162"/>
		<g>
			
				<rect x="817.5" y="1122.5" transform="matrix(-4.489647e-11 -1 1 -4.489647e-11 -314.0062 1966.9374)" width="17.9" height="35.9"/>
			
				<rect x="853.4" y="1122.5" transform="matrix(-4.484584e-11 -1 1 -4.484584e-11 -278.0742 2002.8694)" width="17.9" height="35.9"/>
		</g>
		<g>
			
				<rect x="916.3" y="1113.6" transform="matrix(-1 4.514998e-11 -4.514998e-11 -1 1850.519 2245.0876)" width="17.9" height="17.9"/>
			
				<rect x="889.4" y="1104.6" transform="matrix(-4.489647e-11 -1 1 -4.489647e-11 -224.2142 2020.8733)" width="17.9" height="35.9"/>
		</g>
		
			<rect x="943.2" y="1086.6" transform="matrix(-4.484584e-11 -1 1 -4.484584e-11 -152.4262 2056.8054)" width="17.9" height="35.9"/>
		
			<rect x="970.2" y="1077.7" transform="matrix(-1 4.525124e-11 -4.525124e-11 -1 1958.2391 2173.3755)" width="17.9" height="17.9"/>
		
			<rect x="988.1" y="1059.8" transform="matrix(-1 4.454114e-11 -4.454114e-11 -1 1994.0951 2137.5193)" width="17.9" height="17.9"/>
		
			<rect x="1006" y="1041.9" transform="matrix(-1 4.454114e-11 -4.454114e-11 -1 2029.9512 2101.6633)" width="17.9" height="17.9"/>
		
			<rect x="1023.9" y="1023.9" transform="matrix(-1 4.464239e-11 -4.464239e-11 -1 2065.8074 2065.8074)" width="17.9" height="17.9"/>
		
			<rect x="1041.9" y="1006" transform="matrix(-1 4.454114e-11 -4.454114e-11 -1 2101.6633 2029.9512)" width="17.9" height="17.9"/>
		
			<rect x="1059.8" y="988.1" transform="matrix(-1 4.464239e-11 -4.464239e-11 -1 2137.5193 1994.0951)" width="17.9" height="17.9"/>
		
			<rect x="1077.7" y="970.2" transform="matrix(-1 4.464239e-11 -4.464239e-11 -1 2173.3755 1958.2391)" width="17.9" height="17.9"/>
		
			<rect x="1095.7" y="934.2" transform="matrix(-1 4.464239e-11 -4.464239e-11 -1 2209.2314 1904.379)" width="17.9" height="35.9"/>
		<g>
			
				<rect x="1113.6" y="916.3" transform="matrix(-4.464245e-11 -1 1 -4.464245e-11 197.2843 2047.8033)" width="17.9" height="17.9"/>
			<rect x="1113.6" y="880.4" width="17.9" height="35.9"/>
		</g>
		<g>
			<rect x="1131.5" y="808.5" width="17.9" height="35.9"/>
			<rect x="1131.5" y="844.4" width="17.9" height="35.9"/>
		</g>
		<rect x="1149.4" y="646.5" width="17.9" height="162"/>
		<g>
			
				<rect x="1131.5" y="610.6" transform="matrix(-1 4.464239e-11 -4.464239e-11 -1 2280.9436 1257.0687)" width="17.9" height="35.9"/>
			
				<rect x="1131.5" y="574.6" transform="matrix(-1 4.514998e-11 -4.514998e-11 -1 2280.9436 1185.2048)" width="17.9" height="35.9"/>
		</g>
		<g>
			
				<rect x="1113.6" y="520.8" transform="matrix(4.464233e-11 1 -1 4.464233e-11 1652.2843 -592.8033)" width="17.9" height="17.9"/>
			
				<rect x="1113.6" y="538.7" transform="matrix(-1 4.514998e-11 -4.514998e-11 -1 2245.0876 1113.3409)" width="17.9" height="35.9"/>
		</g>
		
			<rect x="1095.7" y="484.8" transform="matrix(-1 4.514998e-11 -4.514998e-11 -1 2209.2314 1005.6209)" width="17.9" height="35.9"/>
		<rect x="1077.7" y="466.9" transform="matrix(4.520099e-11 1 -1 4.520099e-11 1562.5682 -610.8073)" width="17.9" height="17.9"/>
		<rect x="1059.8" y="449" transform="matrix(4.514948e-11 1 -1 4.514948e-11 1526.7122 -610.8073)" width="17.9" height="17.9"/>
		<rect x="1041.9" y="431.1" transform="matrix(4.514948e-11 1 -1 4.514948e-11 1490.8561 -610.8073)" width="17.9" height="17.9"/>
		<rect x="1023.9" y="413.1" transform="matrix(4.520099e-11 1 -1 4.520099e-11 1455 -610.8073)" width="17.9" height="17.9"/>
		<rect x="1006" y="395.2" transform="matrix(4.520099e-11 1 -1 4.520099e-11 1419.1439 -610.8073)" width="17.9" height="17.9"/>
		<rect x="988.1" y="377.3" transform="matrix(4.489635e-11 1 -1 4.489635e-11 1383.2878 -610.8073)" width="17.9" height="17.9"/>
		<rect x="970.2" y="359.3" transform="matrix(4.489635e-11 1 -1 4.489635e-11 1347.4318 -610.8073)" width="17.9" height="17.9"/>
		<rect x="943.2" y="332.4" transform="matrix(4.489635e-11 1 -1 4.489635e-11 1302.5737 -601.8053)" width="17.9" height="35.9"/>
		<g>
			<rect x="916.3" y="323.5" transform="matrix(-1 4.514998e-11 -4.514998e-11 -1 1850.519 664.9124)" width="17.9" height="17.9"/>
			
				<rect x="889.4" y="314.5" transform="matrix(-4.489647e-11 -1 1 -4.489647e-11 565.8734 1230.7858)" width="17.9" height="35.9"/>
		</g>
		<g>
			
				<rect x="817.5" y="296.6" transform="matrix(-4.489647e-11 -1 1 -4.489647e-11 511.9374 1140.9938)" width="17.9" height="35.9"/>
			
				<rect x="853.4" y="296.6" transform="matrix(-4.484584e-11 -1 1 -4.484584e-11 547.8694 1176.9258)" width="17.9" height="35.9"/>
		</g>
	</g>
</g>
<g id="Color">
	<polygon class="st13" points="862.5,952.5 862.5,934.6 592.5,934.4 592.5,952.2 538.3,952.2 538.2,1131.5 646.1,1131.5 
		646.1,1149.4 808.5,1149.4 808.5,1131.5 880.8,1131.5 880.8,1114.8 916.7,1114.8 916.7,952.5 	"/>
	<g>
		<polygon class="st14" points="537.9,430.9 537.9,448.8 501.9,448.8 501.9,503.1 484.3,503.1 484.3,556.8 502.2,556.8 502.2,592.7 
			519.8,592.7 538.1,592.7 538.1,610.7 556,610.7 556.1,556.9 574.2,556.9 574.4,520.5 574.4,502.6 592.2,502.6 592.3,430.9 		"/>
		<rect x="592.3" y="448.8" class="st14" width="17.9" height="17.9"/>
	</g>
	<polygon class="st15" points="898.8,646.9 898.8,556.9 880.7,556.9 880.7,538.9 826.6,538.8 826.6,538.6 727.4,538.7 628.3,538.6 
		628.3,538.8 574.2,538.9 574.2,556.9 556.1,556.9 556.1,646.9 538.2,646.9 538.2,736.5 556.1,736.5 556.1,844.5 574.2,844.5 
		574.4,862.4 592.3,862.4 592.3,880.3 610.2,880.3 610.2,898.3 613,898.3 628.1,898.3 628.3,916.6 646.5,916.6 646.5,952.5 
		808.5,952.5 808.5,916.6 826.6,916.6 826.9,916.6 826.9,898.7 844.8,898.7 844.8,880.8 862.8,880.8 862.8,862.9 880.7,862.9 
		880.7,844.5 880.7,844.5 898.6,844.5 898.8,844.5 898.8,736.5 916.7,736.5 916.7,646.9 	"/>
	<polygon class="st14" points="826.6,502.6 826.6,484.7 628.3,484.7 628.3,502.6 592.2,502.6 592.2,556.9 574.6,556.9 574.6,664.9 
		610.2,664.9 610.2,556.9 628.5,556.9 628.5,538.8 646.5,538.8 646.5,556.9 862.4,556.9 862.4,502.6 	"/>
	<rect x="592.3" y="502.6" class="st46" width="17.9" height="17.9"/>
	<rect x="574.4" y="520.5" class="st46" width="17.9" height="36.3"/>
	<rect x="844.8" y="502.6" class="st46" width="17.9" height="17.9"/>
	<rect x="862.8" y="520.5" class="st46" width="17.9" height="36.3"/>
	<rect x="556.4" y="556.9" class="st46" width="17.9" height="90.1"/>
	<rect x="880.7" y="556.9" class="st47" width="17.9" height="90.1"/>
	
		<rect x="619.4" y="475.5" transform="matrix(-1.836970e-16 1 -1 -1.836970e-16 1122.0109 -134.7246)" class="st46" width="17.9" height="36.3"/>
	
		<rect x="817.7" y="475.5" transform="matrix(-1.836970e-16 1 -1 -1.836970e-16 1320.3281 -333.0418)" class="st46" width="17.9" height="36.3"/>
	
		<rect x="718.6" y="394.7" transform="matrix(-1.836970e-16 1 -1 -1.836970e-16 1203.2415 -251.8112)" class="st46" width="17.9" height="162"/>
	
		<rect x="556.5" y="628.8" transform="matrix(-1.836970e-16 1 -1 -1.836970e-16 1221.3043 90.4585)" class="st47" width="17.9" height="54.2"/>
	<rect x="520.4" y="664.8" class="st47" width="17.9" height="54.2"/>
	
		<rect x="556.5" y="700.9" transform="matrix(-1.836970e-16 1 -1 -1.836970e-16 1293.4143 162.5685)" class="st47" width="17.9" height="54.2"/>
	<rect x="556.4" y="737" class="st47" width="17.9" height="107.5"/>
	<rect x="880.7" y="737" class="st47" width="17.9" height="107.5"/>
	<rect x="610.2" y="880.8" class="st47" width="17.9" height="17.9"/>
	
		<rect x="610.4" y="916.4" transform="matrix(-1.836970e-16 1 -1 -1.836970e-16 1562.9417 324.1342)" class="st48" width="17.9" height="54.2"/>
	
		<rect x="718.6" y="844.6" transform="matrix(-1.836970e-16 1 -1 -1.836970e-16 1653.1362 198.0836)" class="st47" width="17.9" height="162"/>
	
		<rect x="718.6" y="862.5" transform="matrix(-1.836970e-16 1 -1 -1.836970e-16 1671.0643 216.0116)" class="st29" width="17.9" height="162"/>
	
		<rect x="718.6" y="880.5" transform="matrix(-1.836970e-16 1 -1 -1.836970e-16 1688.9923 233.9396)" class="st48" width="17.9" height="162"/>
	
		<rect x="889.8" y="710" transform="matrix(6.123234e-17 -1 1 6.123234e-17 170.7349 1626.7178)" class="st47" width="17.9" height="36.1"/>
	
		<rect x="916.8" y="664.8" transform="matrix(-1 -1.224647e-16 1.224647e-16 -1 1851.4336 1383.8728)" class="st47" width="17.9" height="54.2"/>
	
		<rect x="889.8" y="637.9" transform="matrix(6.123234e-17 -1 1 6.123234e-17 242.845 1554.6078)" class="st47" width="17.9" height="36.1"/>
	<rect x="556.4" y="681.8" class="st47" width="17.9" height="17.9"/>
	<rect x="664.6" y="664.9" width="17.9" height="44.8"/>
	
		<rect x="664.6" y="592.8" transform="matrix(-1.836970e-16 1 -1 -1.836970e-16 1293.429 -53.6661)" class="st46" width="17.9" height="54.2"/>
	
		<rect x="808.8" y="592.8" transform="matrix(-1.836970e-16 1 -1 -1.836970e-16 1437.6365 -197.8737)" class="st46" width="17.9" height="54.2"/>
	<rect x="808.8" y="664.9" width="17.9" height="44.8"/>
	<rect x="736.5" y="745.8" class="st47" width="17.9" height="35.9"/>
	<rect x="693.3" y="808.8" class="st49" width="17.9" height="17.9"/>
	<rect x="765.5" y="808.8" class="st49" width="17.9" height="17.9"/>
	
		<rect x="729.4" y="808.5" transform="matrix(-1.836970e-16 1 -1 -1.836970e-16 1574.0366 97.3272)" class="st49" width="17.9" height="54.3"/>
	<rect x="718.6" y="763.8" class="st47" width="17.9" height="17.9"/>
	
		<rect x="826.7" y="916.4" transform="matrix(-1.836970e-16 1 -1 -1.836970e-16 1779.1869 107.889)" class="st48" width="17.9" height="54.2"/>
	
		<rect x="556.4" y="934.3" transform="matrix(-1.836970e-16 1 -1 -1.836970e-16 1526.8546 396.0773)" class="st48" width="17.9" height="54.2"/>
	
		<rect x="880.7" y="934.3" transform="matrix(-1.836970e-16 1 -1 -1.836970e-16 1851.13 71.802)" class="st48" width="17.9" height="54.2"/>
	
		<rect x="520.4" y="970.4" transform="matrix(-1 -1.224647e-16 1.224647e-16 -1 1058.7405 2083.4631)" class="st48" width="17.9" height="142.6"/>
	
		<rect x="916.8" y="970.4" transform="matrix(-1 -1.224647e-16 1.224647e-16 -1 1851.4338 2083.4631)" class="st48" width="17.9" height="142.6"/>
	<rect x="628.4" y="520.7" class="st46" width="17.9" height="17.9"/>
	
		<rect x="655.5" y="529.8" transform="matrix(-1.836970e-16 1 -1 -1.836970e-16 1212.187 -116.6624)" class="st46" width="17.9" height="35.9"/>
	
		<rect x="691.4" y="547.7" transform="matrix(-1.836970e-16 1 -1 -1.836970e-16 1266.047 -134.6664)" class="st46" width="17.9" height="35.9"/>
	<rect x="700.5" y="520.8" class="st46" width="17.9" height="17.9"/>
	
		<rect x="727.6" y="529.8" transform="matrix(-1.836970e-16 1 -1 -1.836970e-16 1284.3889 -188.7714)" class="st46" width="17.9" height="35.9"/>
	
		<rect x="763.5" y="547.8" transform="matrix(-1.836970e-16 1 -1 -1.836970e-16 1338.2489 -206.7753)" class="st46" width="17.9" height="35.9"/>
	<rect x="772.6" y="520.9" class="st46" width="17.9" height="17.9"/>
	
		<rect x="799.7" y="530" transform="matrix(-1.836970e-16 1 -1 -1.836970e-16 1356.6257 -260.7794)" class="st46" width="17.9" height="35.9"/>
	
		<rect x="844.7" y="538.8" transform="matrix(-1.836970e-16 1 -1 -1.836970e-16 1419.5354 -287.833)" class="st46" width="17.9" height="54"/>
	<rect x="610.4" y="538.6" class="st46" width="17.9" height="126.2"/>
	<rect x="592.3" y="664.9" class="st46" width="17.9" height="17.9"/>
	<rect x="574.4" y="844.5" class="st47" width="17.9" height="17.9"/>
	<rect x="592.3" y="862.9" class="st47" width="17.9" height="17.9"/>
	<rect x="628.1" y="898.7" class="st47" width="17.9" height="17.9"/>
	<g>
		
			<rect x="826.9" y="880.8" transform="matrix(-1 4.525124e-11 -4.525124e-11 -1 1671.7598 1779.5077)" class="st47" width="17.9" height="17.9"/>
		
			<rect x="862.8" y="844.5" transform="matrix(-1 4.464239e-11 -4.464239e-11 -1 1743.4719 1706.8718)" class="st47" width="17.9" height="17.9"/>
		
			<rect x="844.8" y="862.9" transform="matrix(-1 4.514998e-11 -4.514998e-11 -1 1707.6158 1743.6516)" class="st47" width="17.9" height="17.9"/>
		
			<rect x="809" y="898.7" transform="matrix(-1 4.525124e-11 -4.525124e-11 -1 1635.9037 1815.3638)" class="st47" width="17.9" height="17.9"/>
	</g>
	<rect x="556.4" y="502.6" class="st46" width="17.9" height="17.9"/>
	<rect x="574.4" y="484.7" class="st46" width="17.9" height="17.9"/>
	<rect x="592.3" y="466.8" class="st46" width="17.9" height="17.9"/>
	<rect x="610.2" y="448.8" class="st46" width="17.9" height="17.9"/>
	<rect x="592.3" y="430.9" class="st46" width="17.9" height="17.9"/>
	<rect x="520.2" y="430.9" class="st46" width="17.9" height="17.9"/>
	
		<rect x="556.2" y="394.8" transform="matrix(-1.836970e-16 1 -1 -1.836970e-16 987.123 -143.261)" class="st46" width="17.9" height="54.2"/>
	<rect x="502.2" y="448.8" class="st46" width="17.9" height="17.9"/>
	<rect x="484.3" y="466.8" class="st46" width="17.9" height="90.1"/>
	<rect x="502.2" y="556.8" class="st46" width="17.9" height="35.9"/>
	<rect x="520.2" y="592.7" class="st46" width="17.9" height="17.9"/>
	<rect x="538.1" y="610.7" class="st46" width="17.9" height="17.9"/>
	<rect x="610.2" y="466.8" class="st46" width="17.9" height="17.9"/>
	<rect x="592.3" y="484.7" class="st22" width="17.9" height="17.9"/>
	<rect x="574.4" y="502.6" class="st22" width="17.9" height="17.9"/>
	<rect x="547.2" y="1105.8" transform="matrix(-1.836970e-16 1 -1 -1.836970e-16 1679.9078 567.5319)" width="17.9" height="35.9"/>
</g>
<g id="Layer_1" class="st60">
	<g class="st61">
		<rect x="592.3" y="502.6" width="17.9" height="17.9"/>
		<rect x="574.4" y="520.5" width="17.9" height="36.3"/>
		<rect x="844.8" y="502.6" width="17.9" height="17.9"/>
		<rect x="862.8" y="520.5" width="17.9" height="36.3"/>
		<rect x="556.4" y="556.9" width="17.9" height="90.1"/>
		<rect x="880.7" y="556.9" width="17.9" height="90.1"/>
		
			<rect x="619.4" y="475.5" transform="matrix(-1.836970e-16 1 -1 -1.836970e-16 1122.0109 -134.7246)" width="17.9" height="36.3"/>
		
			<rect x="817.7" y="475.5" transform="matrix(-1.836970e-16 1 -1 -1.836970e-16 1320.3281 -333.0418)" width="17.9" height="36.3"/>
		<rect x="718.6" y="394.7" transform="matrix(-1.836970e-16 1 -1 -1.836970e-16 1203.2415 -251.8112)" width="17.9" height="162"/>
		<rect x="556.5" y="628.8" transform="matrix(-1.836970e-16 1 -1 -1.836970e-16 1221.3043 90.4585)" width="17.9" height="54.2"/>
		<rect x="520.4" y="664.8" width="17.9" height="54.2"/>
		<rect x="556.5" y="700.9" transform="matrix(-1.836970e-16 1 -1 -1.836970e-16 1293.4143 162.5685)" width="17.9" height="54.2"/>
		<rect x="556.4" y="737" width="17.9" height="107.5"/>
		<rect x="880.7" y="737" width="17.9" height="107.5"/>
		<rect x="610.2" y="880.8" width="17.9" height="17.9"/>
		<rect x="610.4" y="916.4" transform="matrix(-1.836970e-16 1 -1 -1.836970e-16 1562.9417 324.1342)" width="17.9" height="54.2"/>
		<rect x="718.6" y="844.6" transform="matrix(-1.836970e-16 1 -1 -1.836970e-16 1653.1362 198.0836)" width="17.9" height="162"/>
		
			<rect x="718.6" y="862.5" transform="matrix(-1.836970e-16 1 -1 -1.836970e-16 1671.0643 216.0116)" class="st29" width="17.9" height="162"/>
		<rect x="718.6" y="880.5" transform="matrix(-1.836970e-16 1 -1 -1.836970e-16 1688.9923 233.9396)" width="17.9" height="162"/>
		<rect x="889.8" y="710" transform="matrix(6.123234e-17 -1 1 6.123234e-17 170.7349 1626.7178)" width="17.9" height="36.1"/>
		
			<rect x="916.8" y="664.8" transform="matrix(-1 -1.224647e-16 1.224647e-16 -1 1851.4336 1383.8728)" width="17.9" height="54.2"/>
		<rect x="889.8" y="637.9" transform="matrix(6.123234e-17 -1 1 6.123234e-17 242.845 1554.6078)" width="17.9" height="36.1"/>
		<rect x="556.4" y="681.8" width="17.9" height="17.9"/>
		<rect x="664.6" y="664.9" width="17.9" height="44.8"/>
		<rect x="664.6" y="592.8" transform="matrix(-1.836970e-16 1 -1 -1.836970e-16 1293.429 -53.6661)" width="17.9" height="54.2"/>
		
			<rect x="808.8" y="592.8" transform="matrix(-1.836970e-16 1 -1 -1.836970e-16 1437.6365 -197.8737)" width="17.9" height="54.2"/>
		<rect x="808.8" y="664.9" width="17.9" height="44.8"/>
		<rect x="736.5" y="745.8" width="17.9" height="35.9"/>
		<rect x="693.3" y="808.8" width="17.9" height="17.9"/>
		<rect x="765.5" y="808.8" width="17.9" height="17.9"/>
		<rect x="729.4" y="808.5" transform="matrix(-1.836970e-16 1 -1 -1.836970e-16 1574.0366 97.3272)" width="17.9" height="54.3"/>
		<rect x="718.6" y="763.8" width="17.9" height="17.9"/>
		<rect x="826.7" y="916.4" transform="matrix(-1.836970e-16 1 -1 -1.836970e-16 1779.1869 107.889)" width="17.9" height="54.2"/>
		<rect x="556.4" y="934.3" transform="matrix(-1.836970e-16 1 -1 -1.836970e-16 1526.8546 396.0773)" width="17.9" height="54.2"/>
		<rect x="880.7" y="934.3" transform="matrix(-1.836970e-16 1 -1 -1.836970e-16 1851.13 71.802)" width="17.9" height="54.2"/>
		
			<rect x="520.4" y="970.4" transform="matrix(-1 -1.224647e-16 1.224647e-16 -1 1058.7405 2083.4631)" width="17.9" height="142.6"/>
		
			<rect x="916.8" y="970.4" transform="matrix(-1 -1.224647e-16 1.224647e-16 -1 1851.4338 2083.4631)" width="17.9" height="142.6"/>
		<rect x="628.4" y="520.7" width="17.9" height="17.9"/>
		<rect x="655.5" y="529.8" transform="matrix(-1.836970e-16 1 -1 -1.836970e-16 1212.187 -116.6624)" width="17.9" height="35.9"/>
		<rect x="691.4" y="547.7" transform="matrix(-1.836970e-16 1 -1 -1.836970e-16 1266.047 -134.6664)" width="17.9" height="35.9"/>
		<rect x="700.5" y="520.8" width="17.9" height="17.9"/>
		
			<rect x="727.6" y="529.8" transform="matrix(-1.836970e-16 1 -1 -1.836970e-16 1284.3889 -188.7714)" width="17.9" height="35.9"/>
		
			<rect x="763.5" y="547.8" transform="matrix(-1.836970e-16 1 -1 -1.836970e-16 1338.2489 -206.7753)" width="17.9" height="35.9"/>
		<rect x="772.6" y="520.9" width="17.9" height="17.9"/>
		<rect x="799.7" y="530" transform="matrix(-1.836970e-16 1 -1 -1.836970e-16 1356.6257 -260.7794)" width="17.9" height="35.9"/>
		<rect x="844.7" y="538.8" transform="matrix(-1.836970e-16 1 -1 -1.836970e-16 1419.5354 -287.833)" width="17.9" height="54"/>
		<rect x="610.4" y="538.6" width="17.9" height="126.2"/>
		<rect x="592.3" y="664.9" width="17.9" height="17.9"/>
		<rect x="574.4" y="844.5" width="17.9" height="17.9"/>
		<rect x="592.3" y="862.9" width="17.9" height="17.9"/>
		<rect x="628.1" y="898.7" width="17.9" height="17.9"/>
		<g>
			
				<rect x="826.9" y="880.8" transform="matrix(-1 4.525124e-11 -4.525124e-11 -1 1671.7598 1779.5077)" width="17.9" height="17.9"/>
			
				<rect x="862.8" y="844.5" transform="matrix(-1 4.464239e-11 -4.464239e-11 -1 1743.4719 1706.8718)" width="17.9" height="17.9"/>
			
				<rect x="844.8" y="862.9" transform="matrix(-1 4.514998e-11 -4.514998e-11 -1 1707.6158 1743.6516)" width="17.9" height="17.9"/>
			<rect x="809" y="898.7" transform="matrix(-1 4.525124e-11 -4.525124e-11 -1 1635.9037 1815.3638)" width="17.9" height="17.9"/>
		</g>
		<rect x="556.4" y="502.6" width="17.9" height="17.9"/>
		<rect x="574.4" y="484.7" width="17.9" height="17.9"/>
		<rect x="592.3" y="466.8" width="17.9" height="17.9"/>
		<rect x="610.2" y="448.8" width="17.9" height="17.9"/>
		<rect x="592.3" y="430.9" width="17.9" height="17.9"/>
		<rect x="520.2" y="430.9" width="17.9" height="17.9"/>
		<rect x="556.2" y="394.8" transform="matrix(-1.836970e-16 1 -1 -1.836970e-16 987.123 -143.261)" width="17.9" height="54.2"/>
		<rect x="502.2" y="448.8" width="17.9" height="17.9"/>
		<rect x="484.3" y="466.8" width="17.9" height="90.1"/>
		<rect x="502.2" y="556.8" width="17.9" height="35.9"/>
		<rect x="520.2" y="592.7" width="17.9" height="17.9"/>
		<rect x="538.1" y="610.7" width="17.9" height="17.9"/>
		<rect x="610.2" y="466.8" width="17.9" height="17.9"/>
	</g>
</g>
</svg>
