<?xml version="1.0" encoding="utf-8"?>
<!-- Generator: Adobe Illustrator 22.1.0, SVG Export Plug-In . SVG Version: 6.00 Build 0)  -->
<svg version="1.1" xmlns="http://www.w3.org/2000/svg" xmlns:xlink="http://www.w3.org/1999/xlink" x="0px" y="0px"
	 viewBox="0 0 1455 1455" style="enable-background:new 0 0 1455 1455;" xml:space="preserve">
<style type="text/css">
	.st0{fill:#FFFFFF;}
	.st1{display:none;}
	.st2{display:inline;fill:#FFF200;}
	.st3{display:inline;fill:#2B3990;}
	.st4{display:inline;fill:#27AAE1;}
	.st5{display:inline;}
	.st6{fill:#B19177;}
	.st7{display:inline;fill:#92278F;}
	.st8{display:inline;fill:#F0D0B4;}
	.st9{display:inline;fill:#3C2415;}
	.st10{fill:#3C2415;}
	.st11{display:inline;fill:#A46C35;}
	.st12{display:inline;fill:#603913;}
	.st13{display:inline;fill:#EF4136;}
	.st14{fill:#F1BB58;}
	.st15{display:inline;fill:#DABCAA;}
	.st16{display:inline;fill:#F1BB58;}
	.st17{display:inline;fill:#E4B69D;}
	.st18{display:inline;fill:#473D2C;}
	.st19{display:inline;fill:#7ECAAC;}
	.st20{display:inline;fill:#EED1A3;}
	.st21{display:inline;fill:#7F7058;}
	.st22{display:inline;fill:#8BC63F;}
	.st23{display:inline;fill:#ED1C24;}
	.st24{display:inline;fill:#8C715D;}
	.st25{display:inline;fill:#282829;}
	.st26{display:inline;fill:#B6E4FA;}
	.st27{display:inline;fill:#F7901E;}
	.st28{display:inline;fill:#DFAA59;}
	.st29{display:inline;fill:#CF9E76;}
	.st30{display:inline;fill:none;}
	.st31{display:inline;fill:#D08D14;}
	.st32{display:inline;fill:#C68F62;}
	.st33{display:inline;fill:#464547;}
	.st34{display:inline;fill:#543E36;}
	.st35{display:inline;fill:#F36E21;}
	.st36{display:inline;fill:#1B75BC;}
	.st37{display:inline;fill:#48342C;}
	.st38{fill:#1B75BC;}
	.st39{display:inline;fill:#25B34B;}
	.st40{display:inline;fill:#5E533F;}
	.st41{display:inline;fill:#C18759;}
	.st42{display:inline;fill:#473C29;}
	.st43{display:inline;fill:#372E1F;}
	.st44{display:inline;fill:#584D3C;}
	.st45{display:inline;fill:#B08874;}
	.st46{display:inline;fill:#62AD91;}
	.st47{display:inline;fill:#996953;}
	.st48{fill:#B08874;}
	.st49{display:inline;fill:#E7A414;}
	.st50{display:inline;fill:#9C7761;}
	.st51{display:inline;fill:#ED1C2A;}
	.st52{display:inline;fill:#906852;}
	.st53{fill:#9C7761;}
	.st54{display:inline;fill:#301703;}
	.st55{display:inline;fill:#7D4921;}
	.st56{display:inline;fill:#FFCB05;}
	.st57{display:inline;fill:#7C361C;}
	.st58{fill:#7D4921;}
	.st59{display:inline;fill:#B33A31;}
	.st60{fill:#301703;}
	.st61{display:inline;fill:#DFB28B;}
	.st62{display:inline;fill:#662D91;}
	.st63{fill:#DFB28B;}
	.st64{fill:#464547;}
	.st65{display:inline;fill:#72594B;}
	.st66{display:inline;fill:#262262;}
	.st67{display:inline;fill:#BE1E2D;}
	.st68{fill:none;}
</style>
<g id="Layer_4">
	<g>
		<g>
			
				<rect x="718.5" y="215.6" transform="matrix(6.123234e-17 -1 1 6.123234e-17 430.8999 1024.1001)" class="st0" width="17.9" height="162"/>
			<g>
				
					<rect x="619.6" y="296.6" transform="matrix(-1.836970e-16 1 -1 -1.836970e-16 943.0626 -314.0062)" class="st0" width="17.9" height="35.9"/>
				
					<rect x="583.6" y="296.6" transform="matrix(-1.836970e-16 1 -1 -1.836970e-16 907.1306 -278.0742)" class="st0" width="17.9" height="35.9"/>
			</g>
			<g>
				<rect x="520.8" y="323.5" class="st0" width="17.9" height="17.9"/>
				
					<rect x="547.7" y="314.5" transform="matrix(-1.836970e-16 1 -1 -1.836970e-16 889.1266 -224.2142)" class="st0" width="17.9" height="35.9"/>
			</g>
			
				<rect x="493.8" y="332.4" transform="matrix(-1.836970e-16 1 -1 -1.836970e-16 853.1947 -152.4262)" class="st0" width="17.9" height="35.9"/>
			<rect x="466.9" y="359.3" class="st0" width="17.9" height="17.9"/>
			<rect x="449" y="377.3" class="st0" width="17.9" height="17.9"/>
			<rect x="431.1" y="395.2" class="st0" width="17.9" height="17.9"/>
			<rect x="413.1" y="413.1" class="st0" width="17.9" height="17.9"/>
			<rect x="395.2" y="431.1" class="st0" width="17.9" height="17.9"/>
			<rect x="377.3" y="449" class="st0" width="17.9" height="17.9"/>
			<rect x="359.3" y="466.9" class="st0" width="17.9" height="17.9"/>
			<rect x="341.4" y="484.8" class="st0" width="17.9" height="35.9"/>
			<g>
				
					<rect x="323.5" y="520.8" transform="matrix(-1.836970e-16 1 -1 -1.836970e-16 862.1967 197.2843)" class="st0" width="17.9" height="17.9"/>
				
					<rect x="323.5" y="538.7" transform="matrix(-1 -1.224647e-16 1.224647e-16 -1 664.9124 1113.3409)" class="st0" width="17.9" height="35.9"/>
			</g>
			
				<rect x="305.6" y="610.6" transform="matrix(-1 -1.224647e-16 1.224647e-16 -1 629.0563 1257.0687)" class="st0" width="17.9" height="35.9"/>
			
				<rect x="305.6" y="574.6" transform="matrix(-1 -1.224647e-16 1.224647e-16 -1 629.0563 1185.2048)" class="st0" width="17.9" height="35.9"/>
			
				<rect x="287.6" y="646.5" transform="matrix(-1 -1.224647e-16 1.224647e-16 -1 593.2003 1455)" class="st0" width="17.9" height="162"/>
			<g>
				<rect x="305.6" y="808.5" class="st0" width="17.9" height="35.9"/>
				<rect x="305.6" y="844.4" class="st0" width="17.9" height="35.9"/>
			</g>
			<g>
				
					<rect x="323.5" y="916.3" transform="matrix(6.123234e-17 -1 1 6.123234e-17 -592.8033 1257.7157)" class="st0" width="17.9" height="17.9"/>
				<rect x="323.5" y="880.4" class="st0" width="17.9" height="35.9"/>
			</g>
			<rect x="341.4" y="934.2" class="st0" width="17.9" height="35.9"/>
			
				<rect x="359.3" y="970.2" transform="matrix(6.123234e-17 -1 1 6.123234e-17 -610.8073 1347.4318)" class="st0" width="17.9" height="17.9"/>
			
				<rect x="377.3" y="988.1" transform="matrix(6.123234e-17 -1 1 6.123234e-17 -610.8073 1383.2878)" class="st0" width="17.9" height="17.9"/>
			
				<rect x="395.2" y="1006" transform="matrix(6.123234e-17 -1 1 6.123234e-17 -610.8073 1419.1439)" class="st0" width="17.9" height="17.9"/>
			
				<rect x="413.1" y="1023.9" transform="matrix(6.123234e-17 -1 1 6.123234e-17 -610.8073 1455)" class="st0" width="17.9" height="17.9"/>
			
				<rect x="431.1" y="1041.9" transform="matrix(6.123234e-17 -1 1 6.123234e-17 -610.8073 1490.8561)" class="st0" width="17.9" height="17.9"/>
			
				<rect x="449" y="1059.8" transform="matrix(6.123234e-17 -1 1 6.123234e-17 -610.8073 1526.7122)" class="st0" width="17.9" height="17.9"/>
			
				<rect x="466.9" y="1077.7" transform="matrix(6.123234e-17 -1 1 6.123234e-17 -610.8073 1562.5682)" class="st0" width="17.9" height="17.9"/>
			
				<rect x="493.8" y="1086.6" transform="matrix(6.123234e-17 -1 1 6.123234e-17 -601.8053 1607.4263)" class="st0" width="17.9" height="35.9"/>
			<g>
				<rect x="520.8" y="1113.6" class="st0" width="17.9" height="17.9"/>
				
					<rect x="547.7" y="1104.6" transform="matrix(-1.836970e-16 1 -1 -1.836970e-16 1679.2142 565.8734)" class="st0" width="17.9" height="35.9"/>
			</g>
			<g>
				
					<rect x="619.6" y="1122.5" transform="matrix(-1.836970e-16 1 -1 -1.836970e-16 1769.0062 511.9374)" class="st0" width="17.9" height="35.9"/>
				
					<rect x="583.6" y="1122.5" transform="matrix(-1.836970e-16 1 -1 -1.836970e-16 1733.0742 547.8694)" class="st0" width="17.9" height="35.9"/>
			</g>
		</g>
		
			<rect x="718.5" y="1077.4" transform="matrix(4.464233e-11 1 -1 4.464233e-11 1885.8999 430.8999)" class="st0" width="17.9" height="162"/>
		<g>
			
				<rect x="817.5" y="1122.5" transform="matrix(-4.514960e-11 -1 1 -4.514960e-11 -314.0062 1966.9374)" class="st0" width="17.9" height="35.9"/>
			
				<rect x="853.4" y="1122.5" transform="matrix(-4.464245e-11 -1 1 -4.464245e-11 -278.0742 2002.8694)" class="st0" width="17.9" height="35.9"/>
		</g>
		<g>
			
				<rect x="916.3" y="1113.6" transform="matrix(-1 4.520061e-11 -4.520061e-11 -1 1850.519 2245.0876)" class="st0" width="17.9" height="17.9"/>
			
				<rect x="889.4" y="1104.6" transform="matrix(-4.459182e-11 -1 1 -4.459182e-11 -224.2142 2020.8733)" class="st0" width="17.9" height="35.9"/>
		</g>
		
			<rect x="943.2" y="1086.6" transform="matrix(-4.464245e-11 -1 1 -4.464245e-11 -152.4262 2056.8054)" class="st0" width="17.9" height="35.9"/>
		
			<rect x="970.2" y="1077.7" transform="matrix(-1 4.520061e-11 -4.520061e-11 -1 1958.2391 2173.3755)" class="st0" width="17.9" height="17.9"/>
		
			<rect x="988.1" y="1059.8" transform="matrix(-1 4.459176e-11 -4.459176e-11 -1 1994.0951 2137.5193)" class="st0" width="17.9" height="17.9"/>
		
			<rect x="1006" y="1041.9" transform="matrix(-1 4.459176e-11 -4.459176e-11 -1 2029.9512 2101.6633)" class="st0" width="17.9" height="17.9"/>
		
			<rect x="1023.9" y="1023.9" transform="matrix(-1 4.464239e-11 -4.464239e-11 -1 2065.8074 2065.8074)" class="st0" width="17.9" height="17.9"/>
		
			<rect x="1041.9" y="1006" transform="matrix(-1 4.464239e-11 -4.464239e-11 -1 2101.6633 2029.9512)" class="st0" width="17.9" height="17.9"/>
		
			<rect x="1059.8" y="988.1" transform="matrix(-1 4.484534e-11 -4.484534e-11 -1 2137.5193 1994.0951)" class="st0" width="17.9" height="17.9"/>
		
			<rect x="1077.7" y="970.2" transform="matrix(-1 4.494704e-11 -4.494704e-11 -1 2173.3755 1958.2391)" class="st0" width="17.9" height="17.9"/>
		
			<rect x="1095.7" y="934.2" transform="matrix(-1 4.484534e-11 -4.484534e-11 -1 2209.2314 1904.379)" class="st0" width="17.9" height="35.9"/>
		<g>
			
				<rect x="1113.6" y="916.3" transform="matrix(-4.464245e-11 -1 1 -4.464245e-11 197.2843 2047.8033)" class="st0" width="17.9" height="17.9"/>
			<rect x="1113.6" y="880.4" class="st0" width="17.9" height="35.9"/>
		</g>
		<g>
			<rect x="1131.5" y="808.5" class="st0" width="17.9" height="35.9"/>
			<rect x="1131.5" y="844.4" class="st0" width="17.9" height="35.9"/>
		</g>
		<rect x="1149.4" y="646.5" class="st0" width="17.9" height="162"/>
		<g>
			
				<rect x="1131.5" y="610.6" transform="matrix(-1 4.484534e-11 -4.484534e-11 -1 2280.9436 1257.0687)" class="st0" width="17.9" height="35.9"/>
			
				<rect x="1131.5" y="574.6" transform="matrix(-1 4.484534e-11 -4.484534e-11 -1 2280.9436 1185.2048)" class="st0" width="17.9" height="35.9"/>
		</g>
		<g>
			
				<rect x="1113.6" y="520.8" transform="matrix(4.464233e-11 1 -1 4.464233e-11 1652.2843 -592.8033)" class="st0" width="17.9" height="17.9"/>
			
				<rect x="1113.6" y="538.7" transform="matrix(-1 4.494704e-11 -4.494704e-11 -1 2245.0876 1113.3409)" class="st0" width="17.9" height="35.9"/>
		</g>
		
			<rect x="1095.7" y="484.8" transform="matrix(-1 4.484534e-11 -4.484534e-11 -1 2209.2314 1005.6209)" class="st0" width="17.9" height="35.9"/>
		
			<rect x="1077.7" y="466.9" transform="matrix(4.514948e-11 1 -1 4.514948e-11 1562.5682 -610.8073)" class="st0" width="17.9" height="17.9"/>
		
			<rect x="1059.8" y="449" transform="matrix(4.514948e-11 1 -1 4.514948e-11 1526.7122 -610.8073)" class="st0" width="17.9" height="17.9"/>
		
			<rect x="1041.9" y="431.1" transform="matrix(4.525073e-11 1 -1 4.525073e-11 1490.8561 -610.8073)" class="st0" width="17.9" height="17.9"/>
		
			<rect x="1023.9" y="413.1" transform="matrix(4.514948e-11 1 -1 4.514948e-11 1455 -610.8073)" class="st0" width="17.9" height="17.9"/>
		
			<rect x="1006" y="395.2" transform="matrix(4.514948e-11 1 -1 4.514948e-11 1419.1439 -610.8073)" class="st0" width="17.9" height="17.9"/>
		
			<rect x="988.1" y="377.3" transform="matrix(4.525073e-11 1 -1 4.525073e-11 1383.2878 -610.8073)" class="st0" width="17.9" height="17.9"/>
		
			<rect x="970.2" y="359.3" transform="matrix(4.514948e-11 1 -1 4.514948e-11 1347.4318 -610.8073)" class="st0" width="17.9" height="17.9"/>
		
			<rect x="943.2" y="332.4" transform="matrix(4.514948e-11 1 -1 4.514948e-11 1302.5737 -601.8053)" class="st0" width="17.9" height="35.9"/>
		<g>
			
				<rect x="916.3" y="323.5" transform="matrix(-1 4.494704e-11 -4.494704e-11 -1 1850.519 664.9124)" class="st0" width="17.9" height="17.9"/>
			
				<rect x="889.4" y="314.5" transform="matrix(-4.459182e-11 -1 1 -4.459182e-11 565.8734 1230.7858)" class="st0" width="17.9" height="35.9"/>
		</g>
		<g>
			
				<rect x="817.5" y="296.6" transform="matrix(-4.514960e-11 -1 1 -4.514960e-11 511.9374 1140.9938)" class="st0" width="17.9" height="35.9"/>
			
				<rect x="853.4" y="296.6" transform="matrix(-4.464245e-11 -1 1 -4.464245e-11 547.8694 1176.9258)" class="st0" width="17.9" height="35.9"/>
		</g>
	</g>
	<polygon class="st0" points="1149.1,646.8 1131.5,646.8 1131.5,574.3 1113.4,574.3 1113.4,520.6 1095.7,520.6 1095.7,484.8 
		1077.7,484.8 1077.7,466.9 1059.8,466.9 1059.8,449 1041.9,449 1041.9,431.1 1023.9,431.1 1023.9,413.1 1006,413.1 1006,395.2 
		988.1,395.2 988.1,377.3 970.2,377.3 970.2,359.3 934.2,359.3 934.2,341.4 880.7,341.4 880.7,323.5 807.9,323.5 807.9,305.6 
		646.5,305.6 646.5,323.5 574.3,323.5 574.3,341.4 520.4,341.4 520.4,359.3 484.8,359.3 484.8,377.3 466.9,377.3 466.9,395.2 
		449,395.2 449,413.1 431.1,413.1 431.1,431.1 413.1,431.1 413.1,449 395.2,449 395.2,466.9 377.3,466.9 377.3,484.8 359.3,484.8 
		359.3,520.6 341.2,520.6 341.2,574.3 323.5,574.3 323.5,646.8 305.3,646.8 305.3,808.2 323.5,808.2 323.5,880.7 341.2,880.7 
		341.2,934.4 359.3,934.4 359.3,970.2 377.3,970.2 377.3,988.1 395.2,988.1 395.2,1006 413.1,1006 413.1,1023.9 431.1,1023.9 
		431.1,1041.9 449,1041.9 449,1059.8 466.9,1059.8 466.9,1077.7 484.8,1077.7 484.8,1095.7 520.4,1095.7 520.4,1113.6 574.3,1113.6 
		574.3,1131.5 646.5,1131.5 646.5,1149.4 807.9,1149.4 807.9,1131.5 880.7,1131.5 880.7,1113.6 934.2,1113.6 934.2,1095.7 
		970.2,1095.7 970.2,1077.7 988.1,1077.7 988.1,1059.8 1006,1059.8 1006,1041.9 1023.9,1041.9 1023.9,1023.9 1041.9,1023.9 
		1041.9,1006 1059.8,1006 1059.8,988.1 1077.7,988.1 1077.7,970.2 1095.7,970.2 1095.7,934.4 1113.4,934.4 1113.4,880.7 
		1131.5,880.7 1131.5,808.2 1149.1,808.2 	"/>
</g>
<g id="Layer_2">
	<g>
		<g>
			<rect x="718.5" y="215.6" transform="matrix(6.123234e-17 -1 1 6.123234e-17 430.8999 1024.1001)" width="17.9" height="162"/>
			<g>
				
					<rect x="619.6" y="296.6" transform="matrix(-1.836970e-16 1 -1 -1.836970e-16 943.0626 -314.0062)" width="17.9" height="35.9"/>
				
					<rect x="583.6" y="296.6" transform="matrix(-1.836970e-16 1 -1 -1.836970e-16 907.1306 -278.0742)" width="17.9" height="35.9"/>
			</g>
			<g>
				<rect x="520.8" y="323.5" width="17.9" height="17.9"/>
				
					<rect x="547.7" y="314.5" transform="matrix(-1.836970e-16 1 -1 -1.836970e-16 889.1266 -224.2142)" width="17.9" height="35.9"/>
			</g>
			
				<rect x="493.8" y="332.4" transform="matrix(-1.836970e-16 1 -1 -1.836970e-16 853.1947 -152.4262)" width="17.9" height="35.9"/>
			<rect x="466.9" y="359.3" width="17.9" height="17.9"/>
			<rect x="449" y="377.3" width="17.9" height="17.9"/>
			<rect x="431.1" y="395.2" width="17.9" height="17.9"/>
			<rect x="413.1" y="413.1" width="17.9" height="17.9"/>
			<rect x="395.2" y="431.1" width="17.9" height="17.9"/>
			<rect x="377.3" y="449" width="17.9" height="17.9"/>
			<rect x="359.3" y="466.9" width="17.9" height="17.9"/>
			<rect x="341.4" y="484.8" width="17.9" height="35.9"/>
			<g>
				
					<rect x="323.5" y="520.8" transform="matrix(-1.836970e-16 1 -1 -1.836970e-16 862.1967 197.2843)" width="17.9" height="17.9"/>
				
					<rect x="323.5" y="538.7" transform="matrix(-1 -1.224647e-16 1.224647e-16 -1 664.9124 1113.3409)" width="17.9" height="35.9"/>
			</g>
			
				<rect x="305.6" y="610.6" transform="matrix(-1 -1.224647e-16 1.224647e-16 -1 629.0563 1257.0687)" width="17.9" height="35.9"/>
			
				<rect x="305.6" y="574.6" transform="matrix(-1 -1.224647e-16 1.224647e-16 -1 629.0563 1185.2048)" width="17.9" height="35.9"/>
			<rect x="287.6" y="646.5" transform="matrix(-1 -1.224647e-16 1.224647e-16 -1 593.2003 1455)" width="17.9" height="162"/>
			<g>
				<rect x="305.6" y="808.5" width="17.9" height="35.9"/>
				<rect x="305.6" y="844.4" width="17.9" height="35.9"/>
			</g>
			<g>
				
					<rect x="323.5" y="916.3" transform="matrix(6.123234e-17 -1 1 6.123234e-17 -592.8033 1257.7157)" width="17.9" height="17.9"/>
				<rect x="323.5" y="880.4" width="17.9" height="35.9"/>
			</g>
			<rect x="341.4" y="934.2" width="17.9" height="35.9"/>
			<rect x="359.3" y="970.2" transform="matrix(6.123234e-17 -1 1 6.123234e-17 -610.8073 1347.4318)" width="17.9" height="17.9"/>
			<rect x="377.3" y="988.1" transform="matrix(6.123234e-17 -1 1 6.123234e-17 -610.8073 1383.2878)" width="17.9" height="17.9"/>
			<rect x="395.2" y="1006" transform="matrix(6.123234e-17 -1 1 6.123234e-17 -610.8073 1419.1439)" width="17.9" height="17.9"/>
			<rect x="413.1" y="1023.9" transform="matrix(6.123234e-17 -1 1 6.123234e-17 -610.8073 1455)" width="17.9" height="17.9"/>
			
				<rect x="431.1" y="1041.9" transform="matrix(6.123234e-17 -1 1 6.123234e-17 -610.8073 1490.8561)" width="17.9" height="17.9"/>
			<rect x="449" y="1059.8" transform="matrix(6.123234e-17 -1 1 6.123234e-17 -610.8073 1526.7122)" width="17.9" height="17.9"/>
			
				<rect x="466.9" y="1077.7" transform="matrix(6.123234e-17 -1 1 6.123234e-17 -610.8073 1562.5682)" width="17.9" height="17.9"/>
			
				<rect x="493.8" y="1086.6" transform="matrix(6.123234e-17 -1 1 6.123234e-17 -601.8053 1607.4263)" width="17.9" height="35.9"/>
			<g>
				<rect x="520.8" y="1113.6" width="17.9" height="17.9"/>
				
					<rect x="547.7" y="1104.6" transform="matrix(-1.836970e-16 1 -1 -1.836970e-16 1679.2142 565.8734)" width="17.9" height="35.9"/>
			</g>
			<g>
				
					<rect x="619.6" y="1122.5" transform="matrix(-1.836970e-16 1 -1 -1.836970e-16 1769.0062 511.9374)" width="17.9" height="35.9"/>
				
					<rect x="583.6" y="1122.5" transform="matrix(-1.836970e-16 1 -1 -1.836970e-16 1733.0742 547.8694)" width="17.9" height="35.9"/>
			</g>
		</g>
		<rect x="718.5" y="1077.4" transform="matrix(4.464233e-11 1 -1 4.464233e-11 1885.8999 430.8999)" width="17.9" height="162"/>
		<g>
			
				<rect x="817.5" y="1122.5" transform="matrix(-4.514960e-11 -1 1 -4.514960e-11 -314.0062 1966.9374)" width="17.9" height="35.9"/>
			
				<rect x="853.4" y="1122.5" transform="matrix(-4.464245e-11 -1 1 -4.464245e-11 -278.0742 2002.8694)" width="17.9" height="35.9"/>
		</g>
		<g>
			
				<rect x="916.3" y="1113.6" transform="matrix(-1 4.520061e-11 -4.520061e-11 -1 1850.519 2245.0876)" width="17.9" height="17.9"/>
			
				<rect x="889.4" y="1104.6" transform="matrix(-4.459182e-11 -1 1 -4.459182e-11 -224.2142 2020.8733)" width="17.9" height="35.9"/>
		</g>
		
			<rect x="943.2" y="1086.6" transform="matrix(-4.464245e-11 -1 1 -4.464245e-11 -152.4262 2056.8054)" width="17.9" height="35.9"/>
		
			<rect x="970.2" y="1077.7" transform="matrix(-1 4.520061e-11 -4.520061e-11 -1 1958.2391 2173.3755)" width="17.9" height="17.9"/>
		
			<rect x="988.1" y="1059.8" transform="matrix(-1 4.459176e-11 -4.459176e-11 -1 1994.0951 2137.5193)" width="17.9" height="17.9"/>
		
			<rect x="1006" y="1041.9" transform="matrix(-1 4.459176e-11 -4.459176e-11 -1 2029.9512 2101.6633)" width="17.9" height="17.9"/>
		
			<rect x="1023.9" y="1023.9" transform="matrix(-1 4.464239e-11 -4.464239e-11 -1 2065.8074 2065.8074)" width="17.9" height="17.9"/>
		
			<rect x="1041.9" y="1006" transform="matrix(-1 4.464239e-11 -4.464239e-11 -1 2101.6633 2029.9512)" width="17.9" height="17.9"/>
		
			<rect x="1059.8" y="988.1" transform="matrix(-1 4.484534e-11 -4.484534e-11 -1 2137.5193 1994.0951)" width="17.9" height="17.9"/>
		
			<rect x="1077.7" y="970.2" transform="matrix(-1 4.494704e-11 -4.494704e-11 -1 2173.3755 1958.2391)" width="17.9" height="17.9"/>
		
			<rect x="1095.7" y="934.2" transform="matrix(-1 4.484534e-11 -4.484534e-11 -1 2209.2314 1904.379)" width="17.9" height="35.9"/>
		<g>
			
				<rect x="1113.6" y="916.3" transform="matrix(-4.464245e-11 -1 1 -4.464245e-11 197.2843 2047.8033)" width="17.9" height="17.9"/>
			<rect x="1113.6" y="880.4" width="17.9" height="35.9"/>
		</g>
		<g>
			<rect x="1131.5" y="808.5" width="17.9" height="35.9"/>
			<rect x="1131.5" y="844.4" width="17.9" height="35.9"/>
		</g>
		<rect x="1149.4" y="646.5" width="17.9" height="162"/>
		<g>
			
				<rect x="1131.5" y="610.6" transform="matrix(-1 4.484534e-11 -4.484534e-11 -1 2280.9436 1257.0687)" width="17.9" height="35.9"/>
			
				<rect x="1131.5" y="574.6" transform="matrix(-1 4.484534e-11 -4.484534e-11 -1 2280.9436 1185.2048)" width="17.9" height="35.9"/>
		</g>
		<g>
			
				<rect x="1113.6" y="520.8" transform="matrix(4.464233e-11 1 -1 4.464233e-11 1652.2843 -592.8033)" width="17.9" height="17.9"/>
			
				<rect x="1113.6" y="538.7" transform="matrix(-1 4.494704e-11 -4.494704e-11 -1 2245.0876 1113.3409)" width="17.9" height="35.9"/>
		</g>
		
			<rect x="1095.7" y="484.8" transform="matrix(-1 4.484534e-11 -4.484534e-11 -1 2209.2314 1005.6209)" width="17.9" height="35.9"/>
		<rect x="1077.7" y="466.9" transform="matrix(4.514948e-11 1 -1 4.514948e-11 1562.5682 -610.8073)" width="17.9" height="17.9"/>
		<rect x="1059.8" y="449" transform="matrix(4.514948e-11 1 -1 4.514948e-11 1526.7122 -610.8073)" width="17.9" height="17.9"/>
		<rect x="1041.9" y="431.1" transform="matrix(4.525073e-11 1 -1 4.525073e-11 1490.8561 -610.8073)" width="17.9" height="17.9"/>
		<rect x="1023.9" y="413.1" transform="matrix(4.514948e-11 1 -1 4.514948e-11 1455 -610.8073)" width="17.9" height="17.9"/>
		<rect x="1006" y="395.2" transform="matrix(4.514948e-11 1 -1 4.514948e-11 1419.1439 -610.8073)" width="17.9" height="17.9"/>
		<rect x="988.1" y="377.3" transform="matrix(4.525073e-11 1 -1 4.525073e-11 1383.2878 -610.8073)" width="17.9" height="17.9"/>
		<rect x="970.2" y="359.3" transform="matrix(4.514948e-11 1 -1 4.514948e-11 1347.4318 -610.8073)" width="17.9" height="17.9"/>
		<rect x="943.2" y="332.4" transform="matrix(4.514948e-11 1 -1 4.514948e-11 1302.5737 -601.8053)" width="17.9" height="35.9"/>
		<g>
			<rect x="916.3" y="323.5" transform="matrix(-1 4.494704e-11 -4.494704e-11 -1 1850.519 664.9124)" width="17.9" height="17.9"/>
			
				<rect x="889.4" y="314.5" transform="matrix(-4.459182e-11 -1 1 -4.459182e-11 565.8734 1230.7858)" width="17.9" height="35.9"/>
		</g>
		<g>
			
				<rect x="817.5" y="296.6" transform="matrix(-4.514960e-11 -1 1 -4.514960e-11 511.9374 1140.9938)" width="17.9" height="35.9"/>
			
				<rect x="853.4" y="296.6" transform="matrix(-4.464245e-11 -1 1 -4.464245e-11 547.8694 1176.9258)" width="17.9" height="35.9"/>
		</g>
	</g>
</g>
<g id="Color" class="st1">
	<polygon class="st24" points="898.8,613.7 898.8,523.7 880.7,523.7 880.7,505.7 826.6,505.7 826.6,505.4 727.4,505.5 628.3,505.4 
		628.3,505.7 574.2,505.7 574.2,523.7 556.1,523.7 556.1,613.7 538.2,613.7 538.2,703.3 556.1,703.3 556.1,811.3 574.2,811.3 
		574.2,847.6 592.2,847.6 592.2,865.5 610.1,865.5 610.1,883.5 628.3,883.5 646.5,883.5 646.5,919.3 808.5,919.3 808.5,883.5 
		826.6,883.5 844.8,883.5 844.8,865.5 862.7,865.5 862.7,847.6 880.7,847.6 880.7,811.3 898.8,811.3 898.8,703.3 916.7,703.3 
		916.7,613.7 	"/>
	<rect x="574.2" y="487.3" class="st25" width="54.1" height="144.3"/>
	<rect x="610.2" y="451.5" class="st25" width="234.6" height="36.2"/>
	<rect x="790.5" y="631.4" class="st26" width="72.2" height="54.2"/>
	<rect x="646.4" y="631.7" class="st26" width="72.2" height="54.2"/>
	<polygon class="st27" points="916.7,919.3 538.2,919.3 538.2,1113.6 574.3,1113.6 574.6,1131.5 646.5,1131.5 646.5,1149.4 
		808.5,1149.4 808.5,1131.5 880.7,1131.5 880.7,1113.6 916.7,1113.6 	"/>
	<rect x="592.2" y="469.4" class="st33" width="17.9" height="17.9"/>
	<rect x="574.3" y="487.3" class="st33" width="17.9" height="36.3"/>
	<rect x="844.8" y="469.4" class="st33" width="17.9" height="17.9"/>
	<rect x="862.7" y="487.3" class="st33" width="17.9" height="36.3"/>
	<rect x="556.4" y="523.7" class="st33" width="17.9" height="90.1"/>
	<rect x="880.7" y="523.7" class="st33" width="17.9" height="90.1"/>
	
		<rect x="619.4" y="442.3" transform="matrix(-1.836970e-16 1 -1 -1.836970e-16 1088.7781 -167.8705)" class="st33" width="17.9" height="36.3"/>
	
		<rect x="817.7" y="442.3" transform="matrix(-1.836970e-16 1 -1 -1.836970e-16 1287.0952 -366.1877)" class="st33" width="17.9" height="36.3"/>
	
		<rect x="718.5" y="361.5" transform="matrix(-1.836970e-16 1 -1 -1.836970e-16 1170.0085 -284.9571)" class="st33" width="17.9" height="162"/>
	
		<rect x="556.4" y="595.6" transform="matrix(-1.836970e-16 1 -1 -1.836970e-16 1188.0714 57.3127)" class="st34" width="17.9" height="54.2"/>
	<rect x="520.4" y="631.6" class="st34" width="17.9" height="54.2"/>
	
		<rect x="556.4" y="667.7" transform="matrix(-1.836970e-16 1 -1 -1.836970e-16 1260.1815 129.4227)" class="st34" width="17.9" height="54.2"/>
	<rect x="556.4" y="703.8" class="st34" width="17.9" height="107.5"/>
	<rect x="880.7" y="703.8" class="st34" width="17.9" height="107.5"/>
	<rect x="574.3" y="811.3" class="st34" width="17.9" height="36.3"/>
	<rect x="592.2" y="847.6" class="st34" width="17.9" height="17.9"/>
	
		<rect x="619.4" y="856.3" transform="matrix(-1.836970e-16 1 -1 -1.836970e-16 1502.8168 246.1683)" class="st34" width="17.9" height="36.3"/>
	
		<rect x="610.4" y="883.2" transform="matrix(-1.836970e-16 1 -1 -1.836970e-16 1529.7089 290.9883)" class="st35" width="17.9" height="54.2"/>
	
		<rect x="718.5" y="811.4" transform="matrix(-1.836970e-16 1 -1 -1.836970e-16 1619.9034 164.9377)" class="st34" width="17.9" height="162"/>
	
		<rect x="718.5" y="829.3" transform="matrix(-1.836970e-16 1 -1 -1.836970e-16 1637.8314 182.8657)" class="st30" width="17.9" height="162"/>
	
		<rect x="718.5" y="847.3" transform="matrix(-1.836970e-16 1 -1 -1.836970e-16 1655.7594 200.7938)" class="st35" width="17.9" height="162"/>
	
		<rect x="862.7" y="811.3" transform="matrix(-1 4.489641e-11 -4.489641e-11 -1 1743.3849 1658.8831)" class="st34" width="17.9" height="36.3"/>
	
		<rect x="844.8" y="847.6" transform="matrix(-1 4.489641e-11 -4.489641e-11 -1 1707.5288 1713.129)" class="st34" width="17.9" height="17.9"/>
	
		<rect x="817.7" y="856.3" transform="matrix(4.464233e-11 1 -1 4.464233e-11 1701.1339 47.8511)" class="st34" width="17.9" height="36.3"/>
	
		<rect x="889.7" y="676.8" transform="matrix(6.123234e-17 -1 1 6.123234e-17 203.8808 1593.485)" class="st34" width="17.9" height="36.1"/>
	
		<rect x="916.7" y="631.7" transform="matrix(-1 -1.224647e-16 1.224647e-16 -1 1851.3466 1317.4941)" class="st34" width="17.9" height="54.2"/>
	
		<rect x="889.7" y="604.7" transform="matrix(6.123234e-17 -1 1 6.123234e-17 275.9908 1521.375)" class="st34" width="17.9" height="36.1"/>
	<rect x="556.4" y="648.6" class="st34" width="17.9" height="17.9"/>
	
		<rect x="664.4" y="559.6" transform="matrix(-1.836970e-16 1 -1 -1.836970e-16 1260.083 -86.6988)" class="st5" width="17.9" height="54.2"/>
	
		<rect x="818.5" y="559.6" transform="matrix(-1.836970e-16 1 -1 -1.836970e-16 1414.166 -240.7819)" class="st5" width="17.9" height="54.2"/>
	
		<rect x="673.5" y="586.6" transform="matrix(-1.836970e-16 1 -1 -1.836970e-16 1305.1849 -59.8009)" class="st36" width="17.9" height="72.2"/>
	<rect x="736.5" y="712.6" class="st34" width="17.9" height="35.9"/>
	<rect x="693.2" y="775.6" class="st37" width="17.9" height="17.9"/>
	<rect x="765.5" y="775.6" class="st37" width="17.9" height="17.9"/>
	
		<rect x="729.3" y="775.3" transform="matrix(-1.836970e-16 1 -1 -1.836970e-16 1540.8037 64.1813)" class="st37" width="17.9" height="54.3"/>
	<rect x="718.5" y="730.6" class="st34" width="17.9" height="17.9"/>
	
		<rect x="826.6" y="883.2" transform="matrix(-1.836970e-16 1 -1 -1.836970e-16 1745.954 74.7431)" class="st35" width="17.9" height="54.2"/>
	
		<rect x="556.4" y="901.2" transform="matrix(-1.836970e-16 1 -1 -1.836970e-16 1493.6218 362.9314)" class="st35" width="17.9" height="54.2"/>
	
		<rect x="880.7" y="901.2" transform="matrix(-1.836970e-16 1 -1 -1.836970e-16 1817.8971 38.6561)" class="st35" width="17.9" height="54.2"/>
	
		<rect x="520.4" y="937.2" transform="matrix(-1 -1.224647e-16 1.224647e-16 -1 1058.6544 2050.8228)" class="st35" width="17.9" height="176.3"/>
	
		<rect x="916.7" y="937.2" transform="matrix(-1 -1.224647e-16 1.224647e-16 -1 1851.3478 2050.8228)" class="st35" width="17.9" height="176.3"/>
	<rect x="628.3" y="487.5" class="st33" width="234.4" height="17.9"/>
	<rect x="700.5" y="487.6" class="st33" width="17.9" height="17.9"/>
	<rect x="772.6" y="487.7" class="st33" width="17.9" height="17.9"/>
	<rect x="610.4" y="505.4" class="st33" width="17.9" height="126.2"/>
	<rect x="592.2" y="631.7" class="st5" width="17.9" height="17.9"/>
	<rect x="673.4" y="648.9" class="st5" width="17.9" height="17.9"/>
	<rect x="817.6" y="648.9" class="st5" width="17.9" height="17.9"/>
	<rect x="628.3" y="631.7" class="st36" width="17.9" height="54.2"/>
	
		<rect x="673.4" y="658.7" transform="matrix(-1.836970e-16 1 -1 -1.836970e-16 1377.2626 12.4695)" class="st36" width="17.9" height="72.3"/>
	<rect x="718.6" y="631.7" class="st36" width="17.9" height="54.2"/>
	<g class="st5">
		
			<rect x="817.7" y="586.6" transform="matrix(-1.836970e-16 1 -1 -1.836970e-16 1449.3428 -203.9586)" class="st38" width="17.9" height="72.2"/>
		<rect x="772.5" y="631.7" class="st38" width="17.9" height="54.2"/>
		
			<rect x="817.6" y="658.7" transform="matrix(-1.836970e-16 1 -1 -1.836970e-16 1521.4204 -131.6882)" class="st38" width="17.9" height="72.3"/>
		<rect x="862.7" y="631.7" class="st38" width="17.9" height="54.2"/>
	</g>
	
		<rect x="754.4" y="634.9" transform="matrix(-1.836970e-16 1 -1 -1.836970e-16 1425.292 -101.3379)" class="st36" width="17.9" height="54.2"/>
	
		<rect x="610.4" y="613.5" transform="matrix(-1.836970e-16 1 -1 -1.836970e-16 1259.9595 21.307)" class="st36" width="17.9" height="54.2"/>
</g>
<g id="Layer_1">
	<g>
		<rect x="592.2" y="469.4" width="17.9" height="17.9"/>
		<rect x="574.3" y="487.3" width="17.9" height="36.3"/>
		<rect x="844.8" y="469.4" width="17.9" height="17.9"/>
		<rect x="862.7" y="487.3" width="17.9" height="36.3"/>
		<rect x="556.4" y="523.7" width="17.9" height="90.1"/>
		<rect x="880.7" y="523.7" width="17.9" height="90.1"/>
		
			<rect x="619.4" y="442.3" transform="matrix(-1.836970e-16 1 -1 -1.836970e-16 1088.7781 -167.8705)" width="17.9" height="36.3"/>
		
			<rect x="817.7" y="442.3" transform="matrix(-1.836970e-16 1 -1 -1.836970e-16 1287.0952 -366.1877)" width="17.9" height="36.3"/>
		<rect x="718.5" y="361.5" transform="matrix(-1.836970e-16 1 -1 -1.836970e-16 1170.0085 -284.9571)" width="17.9" height="162"/>
		<rect x="556.4" y="595.6" transform="matrix(-1.836970e-16 1 -1 -1.836970e-16 1188.0714 57.3127)" width="17.9" height="54.2"/>
		<rect x="520.4" y="631.6" width="17.9" height="54.2"/>
		<rect x="556.4" y="667.7" transform="matrix(-1.836970e-16 1 -1 -1.836970e-16 1260.1815 129.4227)" width="17.9" height="54.2"/>
		<rect x="556.4" y="703.8" width="17.9" height="107.5"/>
		<rect x="880.7" y="703.8" width="17.9" height="107.5"/>
		<rect x="574.3" y="811.3" width="17.9" height="36.3"/>
		<rect x="592.2" y="847.6" width="17.9" height="17.9"/>
		<rect x="619.4" y="856.3" transform="matrix(-1.836970e-16 1 -1 -1.836970e-16 1502.8168 246.1683)" width="17.9" height="36.3"/>
		<rect x="610.4" y="883.2" transform="matrix(-1.836970e-16 1 -1 -1.836970e-16 1529.7089 290.9883)" width="17.9" height="54.2"/>
		<rect x="718.5" y="811.4" transform="matrix(-1.836970e-16 1 -1 -1.836970e-16 1619.9034 164.9377)" width="17.9" height="162"/>
		
			<rect x="718.5" y="829.3" transform="matrix(-1.836970e-16 1 -1 -1.836970e-16 1637.8314 182.8657)" class="st68" width="17.9" height="162"/>
		<rect x="718.5" y="847.3" transform="matrix(-1.836970e-16 1 -1 -1.836970e-16 1655.7594 200.7938)" width="17.9" height="162"/>
		
			<rect x="862.7" y="811.3" transform="matrix(-1 4.489641e-11 -4.489641e-11 -1 1743.3849 1658.8831)" width="17.9" height="36.3"/>
		<rect x="844.8" y="847.6" transform="matrix(-1 4.489641e-11 -4.489641e-11 -1 1707.5288 1713.129)" width="17.9" height="17.9"/>
		<rect x="817.7" y="856.3" transform="matrix(4.464233e-11 1 -1 4.464233e-11 1701.1339 47.8511)" width="17.9" height="36.3"/>
		<rect x="889.7" y="676.8" transform="matrix(6.123234e-17 -1 1 6.123234e-17 203.8808 1593.485)" width="17.9" height="36.1"/>
		
			<rect x="916.7" y="631.7" transform="matrix(-1 -1.224647e-16 1.224647e-16 -1 1851.3466 1317.4941)" width="17.9" height="54.2"/>
		<rect x="889.7" y="604.7" transform="matrix(6.123234e-17 -1 1 6.123234e-17 275.9908 1521.375)" width="17.9" height="36.1"/>
		<rect x="556.4" y="648.6" width="17.9" height="17.9"/>
		<rect x="664.4" y="559.6" transform="matrix(-1.836970e-16 1 -1 -1.836970e-16 1260.083 -86.6988)" width="17.9" height="54.2"/>
		<rect x="818.5" y="559.6" transform="matrix(-1.836970e-16 1 -1 -1.836970e-16 1414.166 -240.7819)" width="17.9" height="54.2"/>
		<rect x="673.5" y="586.6" transform="matrix(-1.836970e-16 1 -1 -1.836970e-16 1305.1849 -59.8009)" width="17.9" height="72.2"/>
		<rect x="736.5" y="712.6" width="17.9" height="35.9"/>
		<rect x="693.2" y="775.6" width="17.9" height="17.9"/>
		<rect x="765.5" y="775.6" width="17.9" height="17.9"/>
		<rect x="729.3" y="775.3" transform="matrix(-1.836970e-16 1 -1 -1.836970e-16 1540.8037 64.1813)" width="17.9" height="54.3"/>
		<rect x="718.5" y="730.6" width="17.9" height="17.9"/>
		<rect x="826.6" y="883.2" transform="matrix(-1.836970e-16 1 -1 -1.836970e-16 1745.954 74.7431)" width="17.9" height="54.2"/>
		<rect x="556.4" y="901.2" transform="matrix(-1.836970e-16 1 -1 -1.836970e-16 1493.6218 362.9314)" width="17.9" height="54.2"/>
		<rect x="880.7" y="901.2" transform="matrix(-1.836970e-16 1 -1 -1.836970e-16 1817.8971 38.6561)" width="17.9" height="54.2"/>
		
			<rect x="520.4" y="937.2" transform="matrix(-1 -1.224647e-16 1.224647e-16 -1 1058.6544 2050.8228)" width="17.9" height="176.3"/>
		
			<rect x="916.7" y="937.2" transform="matrix(-1 -1.224647e-16 1.224647e-16 -1 1851.3478 2050.8228)" width="17.9" height="176.3"/>
		<rect x="628.3" y="487.5" width="234.4" height="17.9"/>
		<rect x="700.5" y="487.6" width="17.9" height="17.9"/>
		<rect x="772.6" y="487.7" width="17.9" height="17.9"/>
		<rect x="610.4" y="505.4" width="17.9" height="126.2"/>
		<rect x="592.2" y="631.7" width="17.9" height="17.9"/>
		<rect x="673.4" y="648.9" width="17.9" height="17.9"/>
		<rect x="817.6" y="648.9" width="17.9" height="17.9"/>
		<rect x="628.3" y="631.7" width="17.9" height="54.2"/>
		<rect x="673.4" y="658.7" transform="matrix(-1.836970e-16 1 -1 -1.836970e-16 1377.2626 12.4695)" width="17.9" height="72.3"/>
		<rect x="718.6" y="631.7" width="17.9" height="54.2"/>
		<g>
			
				<rect x="817.7" y="586.6" transform="matrix(-1.836970e-16 1 -1 -1.836970e-16 1449.3428 -203.9586)" width="17.9" height="72.2"/>
			<rect x="772.5" y="631.7" width="17.9" height="54.2"/>
			
				<rect x="817.6" y="658.7" transform="matrix(-1.836970e-16 1 -1 -1.836970e-16 1521.4204 -131.6882)" width="17.9" height="72.3"/>
			<rect x="862.7" y="631.7" width="17.9" height="54.2"/>
		</g>
		<rect x="754.4" y="634.9" transform="matrix(-1.836970e-16 1 -1 -1.836970e-16 1425.292 -101.3379)" width="17.9" height="54.2"/>
		<rect x="610.4" y="613.5" transform="matrix(-1.836970e-16 1 -1 -1.836970e-16 1259.9595 21.307)" width="17.9" height="54.2"/>
	</g>
</g>
</svg>
