<?xml version="1.0" encoding="utf-8"?>
<!-- Generator: Adobe Illustrator 22.1.0, SVG Export Plug-In . SVG Version: 6.00 Build 0)  -->
<svg version="1.1" xmlns="http://www.w3.org/2000/svg" xmlns:xlink="http://www.w3.org/1999/xlink" x="0px" y="0px"
	 viewBox="0 0 1455 1455" style="enable-background:new 0 0 1455 1455;" xml:space="preserve">
<style type="text/css">
	.st0{fill:#FFFFFF;}
	.st1{display:none;}
	.st2{display:inline;fill:#FFF200;}
	.st3{display:inline;fill:#2B3990;}
	.st4{display:inline;fill:#27AAE1;}
	.st5{display:inline;}
	.st6{fill:#B19177;}
	.st7{display:inline;fill:#92278F;}
	.st8{display:inline;fill:#F0D0B4;}
	.st9{display:inline;fill:#3C2415;}
	.st10{fill:#3C2415;}
	.st11{display:inline;fill:#A46C35;}
	.st12{display:inline;fill:#603913;}
	.st13{display:inline;fill:#EF4136;}
	.st14{fill:#F1BB58;}
	.st15{display:inline;fill:#DABCAA;}
	.st16{display:inline;fill:#F1BB58;}
	.st17{display:inline;fill:#E4B69D;}
	.st18{display:inline;fill:#473D2C;}
	.st19{display:inline;fill:#7ECAAC;}
	.st20{display:inline;fill:#EED1A3;}
	.st21{display:inline;fill:#7F7058;}
	.st22{display:inline;fill:#8BC63F;}
	.st23{display:inline;fill:#ED1C24;}
	.st24{display:inline;fill:#8C715D;}
	.st25{display:inline;fill:#282829;}
	.st26{display:inline;fill:#B6E4FA;}
	.st27{display:inline;fill:#F7901E;}
	.st28{display:inline;fill:#DFAA59;}
	.st29{display:inline;fill:#CF9E76;}
	.st30{display:inline;fill:none;}
	.st31{display:inline;fill:#D08D14;}
	.st32{display:inline;fill:#C68F62;}
	.st33{display:inline;fill:#464547;}
	.st34{display:inline;fill:#543E36;}
	.st35{display:inline;fill:#F36E21;}
	.st36{display:inline;fill:#1B75BC;}
	.st37{display:inline;fill:#48342C;}
	.st38{fill:#1B75BC;}
	.st39{display:inline;fill:#25B34B;}
	.st40{display:inline;fill:#5E533F;}
	.st41{display:inline;fill:#C18759;}
	.st42{display:inline;fill:#473C29;}
	.st43{display:inline;fill:#372E1F;}
	.st44{display:inline;fill:#584D3C;}
	.st45{display:inline;fill:#B08874;}
	.st46{display:inline;fill:#62AD91;}
	.st47{display:inline;fill:#996953;}
	.st48{fill:#B08874;}
	.st49{display:inline;fill:#E7A414;}
	.st50{display:inline;fill:#9C7761;}
	.st51{display:inline;fill:#ED1C2A;}
	.st52{display:inline;fill:#906852;}
	.st53{fill:#9C7761;}
	.st54{display:inline;fill:#301703;}
	.st55{display:inline;fill:#7D4921;}
	.st56{display:inline;fill:#FFCB05;}
	.st57{display:inline;fill:#7C361C;}
	.st58{fill:#7D4921;}
	.st59{display:inline;fill:#B33A31;}
	.st60{fill:#301703;}
	.st61{display:inline;fill:#DFB28B;}
	.st62{display:inline;fill:#662D91;}
	.st63{fill:#DFB28B;}
	.st64{fill:#464547;}
	.st65{display:inline;fill:#72594B;}
	.st66{display:inline;fill:#262262;}
	.st67{display:inline;fill:#BE1E2D;}
	.st68{fill:none;}
</style>
<g id="Layer_4">
	<rect x="646.5" y="287.6" class="st0" width="162" height="17.9"/>
	<polygon class="st0" points="646.5,323.5 646.5,305.6 610.6,305.6 574.6,305.6 574.6,323.5 610.6,323.5 	"/>
	<polygon class="st0" points="574.6,341.4 574.6,323.5 538.7,323.5 520.8,323.5 520.8,341.4 538.7,341.4 	"/>
	<rect x="484.8" y="341.4" class="st0" width="35.9" height="17.9"/>
	<rect x="466.9" y="359.3" class="st0" width="17.9" height="17.9"/>
	<rect x="449" y="377.3" class="st0" width="17.9" height="17.9"/>
	<rect x="431.1" y="395.2" class="st0" width="17.9" height="17.9"/>
	<rect x="413.1" y="413.1" class="st0" width="17.9" height="17.9"/>
	<rect x="395.2" y="431.1" class="st0" width="17.9" height="17.9"/>
	<rect x="377.3" y="449" class="st0" width="17.9" height="17.9"/>
	<rect x="359.3" y="466.9" class="st0" width="17.9" height="17.9"/>
	<rect x="341.4" y="484.8" class="st0" width="17.9" height="35.9"/>
	<polygon class="st0" points="341.4,538.7 341.4,520.8 323.5,520.8 323.5,538.7 323.5,574.6 341.4,574.6 	"/>
	<polygon class="st0" points="323.5,610.6 323.5,574.6 305.6,574.6 305.6,610.6 305.6,646.5 323.5,646.5 	"/>
	<rect x="287.6" y="646.5" class="st0" width="17.9" height="162"/>
	<polygon class="st0" points="323.5,808.5 305.6,808.5 305.6,844.4 305.6,880.4 323.5,880.4 323.5,844.4 	"/>
	<polygon class="st0" points="341.4,880.4 323.5,880.4 323.5,916.3 323.5,934.2 341.4,934.2 341.4,916.3 	"/>
	<rect x="341.4" y="934.2" class="st0" width="17.9" height="35.9"/>
	<rect x="359.3" y="970.2" class="st0" width="17.9" height="17.9"/>
	<rect x="377.3" y="988.1" class="st0" width="17.9" height="17.9"/>
	<rect x="395.2" y="1006" class="st0" width="17.9" height="17.9"/>
	<rect x="413.1" y="1023.9" class="st0" width="17.9" height="17.9"/>
	<rect x="431.1" y="1041.9" class="st0" width="17.9" height="17.9"/>
	<rect x="449" y="1059.8" class="st0" width="17.9" height="17.9"/>
	<rect x="466.9" y="1077.7" class="st0" width="17.9" height="17.9"/>
	<rect x="484.8" y="1095.7" class="st0" width="35.9" height="17.9"/>
	<polygon class="st0" points="538.7,1113.6 520.8,1113.6 520.8,1131.5 538.7,1131.5 574.6,1131.5 574.6,1113.6 	"/>
	<polygon class="st0" points="610.6,1131.5 574.6,1131.5 574.6,1149.4 610.6,1149.4 646.5,1149.4 646.5,1131.5 	"/>
	<rect x="646.5" y="1149.4" class="st0" width="162" height="17.9"/>
	<polygon class="st0" points="808.5,1131.5 808.5,1149.4 844.4,1149.4 880.4,1149.4 880.4,1131.5 844.4,1131.5 	"/>
	<polygon class="st0" points="880.4,1113.6 880.4,1131.5 916.3,1131.5 934.2,1131.5 934.2,1113.6 916.3,1113.6 	"/>
	<rect x="934.2" y="1095.7" class="st0" width="35.9" height="17.9"/>
	<rect x="970.2" y="1077.7" class="st0" width="17.9" height="17.9"/>
	<rect x="988.1" y="1059.8" class="st0" width="17.9" height="17.9"/>
	<rect x="1006" y="1041.9" class="st0" width="17.9" height="17.9"/>
	<rect x="1023.9" y="1023.9" class="st0" width="17.9" height="17.9"/>
	<rect x="1041.9" y="1006" class="st0" width="17.9" height="17.9"/>
	<rect x="1059.8" y="988.1" class="st0" width="17.9" height="17.9"/>
	<rect x="1077.7" y="970.2" class="st0" width="17.9" height="17.9"/>
	<rect x="1095.7" y="934.2" class="st0" width="17.9" height="35.9"/>
	<polygon class="st0" points="1113.6,916.3 1113.6,934.2 1131.5,934.2 1131.5,916.3 1131.5,880.4 1113.6,880.4 	"/>
	<polygon class="st0" points="1131.5,844.4 1131.5,880.4 1149.4,880.4 1149.4,844.4 1149.4,808.5 1131.5,808.5 	"/>
	<rect x="1149.4" y="646.5" class="st0" width="17.9" height="162"/>
	<polygon class="st0" points="1131.5,646.5 1149.4,646.5 1149.4,610.6 1149.4,574.6 1131.5,574.6 1131.5,610.6 	"/>
	<polygon class="st0" points="1113.6,574.6 1131.5,574.6 1131.5,538.7 1131.5,520.8 1113.6,520.8 1113.6,538.7 	"/>
	<rect x="1095.7" y="484.8" class="st0" width="17.9" height="35.9"/>
	<rect x="1077.7" y="466.9" class="st0" width="17.9" height="17.9"/>
	<rect x="1059.8" y="449" class="st0" width="17.9" height="17.9"/>
	<rect x="1041.9" y="431.1" class="st0" width="17.9" height="17.9"/>
	<rect x="1023.9" y="413.1" class="st0" width="17.9" height="17.9"/>
	<rect x="1006" y="395.2" class="st0" width="17.9" height="17.9"/>
	<rect x="988.1" y="377.3" class="st0" width="17.9" height="17.9"/>
	<rect x="970.2" y="359.3" class="st0" width="17.9" height="17.9"/>
	<rect x="934.2" y="341.4" class="st0" width="35.9" height="17.9"/>
	<polygon class="st0" points="916.3,341.4 934.2,341.4 934.2,323.5 916.3,323.5 880.4,323.5 880.4,341.4 	"/>
	<polygon class="st0" points="844.4,323.5 880.4,323.5 880.4,305.6 844.4,305.6 808.5,305.6 808.5,323.5 	"/>
	<polygon class="st0" points="1149.1,646.8 1131.5,646.8 1131.5,574.3 1113.4,574.3 1113.4,520.6 1095.7,520.6 1095.7,484.8 
		1077.7,484.8 1077.7,466.9 1059.8,466.9 1059.8,449 1041.9,449 1041.9,431.1 1023.9,431.1 1023.9,413.1 1006,413.1 1006,395.2 
		988.1,395.2 988.1,377.3 970.2,377.3 970.2,359.3 934.2,359.3 934.2,341.4 880.7,341.4 880.7,323.5 807.9,323.5 807.9,305.6 
		646.5,305.6 646.5,323.5 574.3,323.5 574.3,341.4 520.4,341.4 520.4,359.3 484.8,359.3 484.8,377.3 466.9,377.3 466.9,395.2 
		449,395.2 449,413.1 431.1,413.1 431.1,431.1 413.1,431.1 413.1,449 395.2,449 395.2,466.9 377.3,466.9 377.3,484.8 359.3,484.8 
		359.3,520.6 341.2,520.6 341.2,574.3 323.5,574.3 323.5,646.8 305.3,646.8 305.3,808.2 323.5,808.2 323.5,880.7 341.2,880.7 
		341.2,934.4 359.3,934.4 359.3,970.2 377.3,970.2 377.3,988.1 395.2,988.1 395.2,1006 413.1,1006 413.1,1023.9 431.1,1023.9 
		431.1,1041.9 449,1041.9 449,1059.8 466.9,1059.8 466.9,1077.7 484.8,1077.7 484.8,1095.7 520.4,1095.7 520.4,1113.6 574.3,1113.6 
		574.3,1131.5 646.5,1131.5 646.5,1149.4 807.9,1149.4 807.9,1131.5 880.7,1131.5 880.7,1113.6 934.2,1113.6 934.2,1095.7 
		970.2,1095.7 970.2,1077.7 988.1,1077.7 988.1,1059.8 1006,1059.8 1006,1041.9 1023.9,1041.9 1023.9,1023.9 1041.9,1023.9 
		1041.9,1006 1059.8,1006 1059.8,988.1 1077.7,988.1 1077.7,970.2 1095.7,970.2 1095.7,934.4 1113.4,934.4 1113.4,880.7 
		1131.5,880.7 1131.5,808.2 1149.1,808.2 	"/>
</g>
<g id="Layer_2">
	<g>
		<g>
			<rect x="718.5" y="215.6" transform="matrix(6.123234e-17 -1 1 6.123234e-17 430.8999 1024.1001)" width="17.9" height="162"/>
			<g>
				
					<rect x="619.6" y="296.6" transform="matrix(-1.836970e-16 1 -1 -1.836970e-16 943.0626 -314.0062)" width="17.9" height="35.9"/>
				
					<rect x="583.6" y="296.6" transform="matrix(-1.836970e-16 1 -1 -1.836970e-16 907.1306 -278.0742)" width="17.9" height="35.9"/>
			</g>
			<g>
				<rect x="520.8" y="323.5" width="17.9" height="17.9"/>
				
					<rect x="547.7" y="314.5" transform="matrix(-1.836970e-16 1 -1 -1.836970e-16 889.1266 -224.2142)" width="17.9" height="35.9"/>
			</g>
			
				<rect x="493.8" y="332.4" transform="matrix(-1.836970e-16 1 -1 -1.836970e-16 853.1947 -152.4262)" width="17.9" height="35.9"/>
			<rect x="466.9" y="359.3" width="17.9" height="17.9"/>
			<rect x="449" y="377.3" width="17.9" height="17.9"/>
			<rect x="431.1" y="395.2" width="17.9" height="17.9"/>
			<rect x="413.1" y="413.1" width="17.9" height="17.9"/>
			<rect x="395.2" y="431.1" width="17.9" height="17.9"/>
			<rect x="377.3" y="449" width="17.9" height="17.9"/>
			<rect x="359.3" y="466.9" width="17.9" height="17.9"/>
			<rect x="341.4" y="484.8" width="17.9" height="35.9"/>
			<g>
				
					<rect x="323.5" y="520.8" transform="matrix(-1.836970e-16 1 -1 -1.836970e-16 862.1967 197.2843)" width="17.9" height="17.9"/>
				
					<rect x="323.5" y="538.7" transform="matrix(-1 -1.224647e-16 1.224647e-16 -1 664.9124 1113.3409)" width="17.9" height="35.9"/>
			</g>
			
				<rect x="305.6" y="610.6" transform="matrix(-1 -1.224647e-16 1.224647e-16 -1 629.0563 1257.0687)" width="17.9" height="35.9"/>
			
				<rect x="305.6" y="574.6" transform="matrix(-1 -1.224647e-16 1.224647e-16 -1 629.0563 1185.2048)" width="17.9" height="35.9"/>
			<rect x="287.6" y="646.5" transform="matrix(-1 -1.224647e-16 1.224647e-16 -1 593.2003 1455)" width="17.9" height="162"/>
			<g>
				<rect x="305.6" y="808.5" width="17.9" height="35.9"/>
				<rect x="305.6" y="844.4" width="17.9" height="35.9"/>
			</g>
			<g>
				
					<rect x="323.5" y="916.3" transform="matrix(6.123234e-17 -1 1 6.123234e-17 -592.8033 1257.7157)" width="17.9" height="17.9"/>
				<rect x="323.5" y="880.4" width="17.9" height="35.9"/>
			</g>
			<rect x="341.4" y="934.2" width="17.9" height="35.9"/>
			<rect x="359.3" y="970.2" transform="matrix(6.123234e-17 -1 1 6.123234e-17 -610.8073 1347.4318)" width="17.9" height="17.9"/>
			<rect x="377.3" y="988.1" transform="matrix(6.123234e-17 -1 1 6.123234e-17 -610.8073 1383.2878)" width="17.9" height="17.9"/>
			<rect x="395.2" y="1006" transform="matrix(6.123234e-17 -1 1 6.123234e-17 -610.8073 1419.1439)" width="17.9" height="17.9"/>
			<rect x="413.1" y="1023.9" transform="matrix(6.123234e-17 -1 1 6.123234e-17 -610.8073 1455)" width="17.9" height="17.9"/>
			
				<rect x="431.1" y="1041.9" transform="matrix(6.123234e-17 -1 1 6.123234e-17 -610.8073 1490.8561)" width="17.9" height="17.9"/>
			<rect x="449" y="1059.8" transform="matrix(6.123234e-17 -1 1 6.123234e-17 -610.8073 1526.7122)" width="17.9" height="17.9"/>
			
				<rect x="466.9" y="1077.7" transform="matrix(6.123234e-17 -1 1 6.123234e-17 -610.8073 1562.5682)" width="17.9" height="17.9"/>
			
				<rect x="493.8" y="1086.6" transform="matrix(6.123234e-17 -1 1 6.123234e-17 -601.8053 1607.4263)" width="17.9" height="35.9"/>
			<g>
				<rect x="520.8" y="1113.6" width="17.9" height="17.9"/>
				
					<rect x="547.7" y="1104.6" transform="matrix(-1.836970e-16 1 -1 -1.836970e-16 1679.2142 565.8734)" width="17.9" height="35.9"/>
			</g>
			<g>
				
					<rect x="619.6" y="1122.5" transform="matrix(-1.836970e-16 1 -1 -1.836970e-16 1769.0062 511.9374)" width="17.9" height="35.9"/>
				
					<rect x="583.6" y="1122.5" transform="matrix(-1.836970e-16 1 -1 -1.836970e-16 1733.0742 547.8694)" width="17.9" height="35.9"/>
			</g>
		</g>
		<rect x="718.5" y="1077.4" transform="matrix(4.489635e-11 1 -1 4.489635e-11 1885.8999 430.8999)" width="17.9" height="162"/>
		<g>
			
				<rect x="817.5" y="1122.5" transform="matrix(-4.489647e-11 -1 1 -4.489647e-11 -314.0062 1966.9374)" width="17.9" height="35.9"/>
			
				<rect x="853.4" y="1122.5" transform="matrix(-4.484584e-11 -1 1 -4.484584e-11 -278.0742 2002.8694)" width="17.9" height="35.9"/>
		</g>
		<g>
			
				<rect x="916.3" y="1113.6" transform="matrix(-1 4.520061e-11 -4.520061e-11 -1 1850.519 2245.0876)" width="17.9" height="17.9"/>
			
				<rect x="889.4" y="1104.6" transform="matrix(-4.489647e-11 -1 1 -4.489647e-11 -224.2142 2020.8733)" width="17.9" height="35.9"/>
		</g>
		
			<rect x="943.2" y="1086.6" transform="matrix(-4.484584e-11 -1 1 -4.484584e-11 -152.4262 2056.8054)" width="17.9" height="35.9"/>
		
			<rect x="970.2" y="1077.7" transform="matrix(-1 4.520061e-11 -4.520061e-11 -1 1958.2391 2173.3755)" width="17.9" height="17.9"/>
		
			<rect x="988.1" y="1059.8" transform="matrix(-1 4.459176e-11 -4.459176e-11 -1 1994.0951 2137.5193)" width="17.9" height="17.9"/>
		
			<rect x="1006" y="1041.9" transform="matrix(-1 4.459176e-11 -4.459176e-11 -1 2029.9512 2101.6633)" width="17.9" height="17.9"/>
		
			<rect x="1023.9" y="1023.9" transform="matrix(-1 4.464239e-11 -4.464239e-11 -1 2065.8074 2065.8074)" width="17.9" height="17.9"/>
		
			<rect x="1041.9" y="1006" transform="matrix(-1 4.464239e-11 -4.464239e-11 -1 2101.6633 2029.9512)" width="17.9" height="17.9"/>
		
			<rect x="1059.8" y="988.1" transform="matrix(-1 4.484534e-11 -4.484534e-11 -1 2137.5193 1994.0951)" width="17.9" height="17.9"/>
		
			<rect x="1077.7" y="970.2" transform="matrix(-1 4.494704e-11 -4.494704e-11 -1 2173.3755 1958.2391)" width="17.9" height="17.9"/>
		
			<rect x="1095.7" y="934.2" transform="matrix(-1 4.484534e-11 -4.484534e-11 -1 2209.2314 1904.379)" width="17.9" height="35.9"/>
		<g>
			
				<rect x="1113.6" y="916.3" transform="matrix(-4.464245e-11 -1 1 -4.464245e-11 197.2843 2047.8033)" width="17.9" height="17.9"/>
			<rect x="1113.6" y="880.4" width="17.9" height="35.9"/>
		</g>
		<g>
			<rect x="1131.5" y="808.5" width="17.9" height="35.9"/>
			<rect x="1131.5" y="844.4" width="17.9" height="35.9"/>
		</g>
		<rect x="1149.4" y="646.5" width="17.9" height="162"/>
		<g>
			
				<rect x="1131.5" y="610.6" transform="matrix(-1 4.484534e-11 -4.484534e-11 -1 2280.9436 1257.0687)" width="17.9" height="35.9"/>
			
				<rect x="1131.5" y="574.6" transform="matrix(-1 4.484534e-11 -4.484534e-11 -1 2280.9436 1185.2048)" width="17.9" height="35.9"/>
		</g>
		<g>
			
				<rect x="1113.6" y="520.8" transform="matrix(4.464233e-11 1 -1 4.464233e-11 1652.2843 -592.8033)" width="17.9" height="17.9"/>
			
				<rect x="1113.6" y="538.7" transform="matrix(-1 4.494704e-11 -4.494704e-11 -1 2245.0876 1113.3409)" width="17.9" height="35.9"/>
		</g>
		
			<rect x="1095.7" y="484.8" transform="matrix(-1 4.484534e-11 -4.484534e-11 -1 2209.2314 1005.6209)" width="17.9" height="35.9"/>
		<rect x="1077.7" y="466.9" transform="matrix(4.520099e-11 1 -1 4.520099e-11 1562.5682 -610.8073)" width="17.9" height="17.9"/>
		<rect x="1059.8" y="449" transform="matrix(4.514948e-11 1 -1 4.514948e-11 1526.7122 -610.8073)" width="17.9" height="17.9"/>
		<rect x="1041.9" y="431.1" transform="matrix(4.514948e-11 1 -1 4.514948e-11 1490.8561 -610.8073)" width="17.9" height="17.9"/>
		<rect x="1023.9" y="413.1" transform="matrix(4.520099e-11 1 -1 4.520099e-11 1455 -610.8073)" width="17.9" height="17.9"/>
		<rect x="1006" y="395.2" transform="matrix(4.520099e-11 1 -1 4.520099e-11 1419.1439 -610.8073)" width="17.9" height="17.9"/>
		<rect x="988.1" y="377.3" transform="matrix(4.489635e-11 1 -1 4.489635e-11 1383.2878 -610.8073)" width="17.9" height="17.9"/>
		<rect x="970.2" y="359.3" transform="matrix(4.489635e-11 1 -1 4.489635e-11 1347.4318 -610.8073)" width="17.9" height="17.9"/>
		<rect x="943.2" y="332.4" transform="matrix(4.489635e-11 1 -1 4.489635e-11 1302.5737 -601.8053)" width="17.9" height="35.9"/>
		<g>
			<rect x="916.3" y="323.5" transform="matrix(-1 4.494704e-11 -4.494704e-11 -1 1850.519 664.9124)" width="17.9" height="17.9"/>
			
				<rect x="889.4" y="314.5" transform="matrix(-4.489647e-11 -1 1 -4.489647e-11 565.8734 1230.7858)" width="17.9" height="35.9"/>
		</g>
		<g>
			
				<rect x="817.5" y="296.6" transform="matrix(-4.489647e-11 -1 1 -4.489647e-11 511.9374 1140.9938)" width="17.9" height="35.9"/>
			
				<rect x="853.4" y="296.6" transform="matrix(-4.484584e-11 -1 1 -4.484584e-11 547.8694 1176.9258)" width="17.9" height="35.9"/>
		</g>
	</g>
</g>
<g id="Color" class="st1">
	<polygon class="st16" points="862.4,469.4 826.6,469.4 826.6,451.5 628.3,451.5 628.3,469.4 592.2,469.4 592.2,523.7 574.6,523.7 
		574.6,631.7 610.2,631.7 610.2,529.7 862.4,529.7 	"/>
	<polygon class="st23" points="916.7,919.3 538.2,919.3 538.2,1113.4 574.6,1113.4 574.6,1131.5 646.5,1131.5 646.5,1149.4 
		808.5,1149.4 808.5,1131.5 880.4,1131.5 880.4,1113.6 916.7,1113.4 	"/>
	<rect x="592.2" y="469.4" class="st28" width="17.9" height="17.9"/>
	<polygon class="st8" points="790.4,523.7 754.5,523.7 754.5,505.8 718.3,505.8 718.3,523.7 682.3,523.7 682.3,505.8 610.2,505.8 
		610.2,883.5 844.8,883.5 844.8,523.7 	"/>
	<rect x="592.2" y="775.2" class="st8" width="72.2" height="72.2"/>
	<rect x="538.3" y="631.6" class="st8" width="72.2" height="72.2"/>
	<rect x="574.3" y="631.6" class="st8" width="36.2" height="179.7"/>
	<polygon class="st8" points="898.8,613.7 898.8,523.7 754.2,523.7 754.2,865.5 862.7,865.5 862.7,811.3 898.8,811.3 898.8,703.8 
		916.7,703.8 916.7,613.7 	"/>
	<rect x="574.3" y="487.3" class="st28" width="17.9" height="36.3"/>
	<rect x="844.8" y="469.4" class="st28" width="17.9" height="17.9"/>
	<rect x="862.7" y="487.3" class="st28" width="17.9" height="36.3"/>
	<rect x="556.4" y="523.7" class="st28" width="17.9" height="90.1"/>
	<rect x="880.7" y="523.7" class="st28" width="17.9" height="90.1"/>
	
		<rect x="619.4" y="442.3" transform="matrix(-1.836970e-16 1 -1 -1.836970e-16 1088.7778 -167.8702)" class="st28" width="17.9" height="36.3"/>
	
		<rect x="817.7" y="442.3" transform="matrix(-1.836970e-16 1 -1 -1.836970e-16 1287.095 -366.1874)" class="st28" width="17.9" height="36.3"/>
	
		<rect x="718.5" y="361.5" transform="matrix(-1.836970e-16 1 -1 -1.836970e-16 1170.0083 -284.9568)" class="st28" width="17.9" height="162"/>
	
		<rect x="556.4" y="595.6" transform="matrix(-1.836970e-16 1 -1 -1.836970e-16 1188.0712 57.3129)" class="st29" width="17.9" height="54.2"/>
	<rect x="520.4" y="631.6" class="st29" width="17.9" height="54.2"/>
	
		<rect x="556.4" y="667.7" transform="matrix(-1.836970e-16 1 -1 -1.836970e-16 1260.1813 129.4229)" class="st29" width="17.9" height="54.2"/>
	<rect x="556.4" y="703.8" class="st29" width="17.9" height="107.5"/>
	<rect x="880.7" y="703.8" class="st29" width="17.9" height="107.5"/>
	<rect x="574.3" y="811.3" class="st29" width="17.9" height="36.3"/>
	<rect x="592.2" y="847.6" class="st29" width="17.9" height="17.9"/>
	
		<rect x="619.4" y="856.3" transform="matrix(-1.836970e-16 1 -1 -1.836970e-16 1502.8165 246.1685)" class="st29" width="17.9" height="36.3"/>
	
		<rect x="718.5" y="811.4" transform="matrix(-1.836970e-16 1 -1 -1.836970e-16 1619.9032 164.938)" class="st29" width="17.9" height="162"/>
	
		<rect x="718.5" y="829.3" transform="matrix(-1.836970e-16 1 -1 -1.836970e-16 1637.8312 182.866)" class="st30" width="17.9" height="162"/>
	
		<rect x="862.7" y="811.3" transform="matrix(-1 4.484534e-11 -4.484534e-11 -1 1743.3844 1658.8831)" class="st29" width="17.9" height="36.3"/>
	
		<rect x="844.8" y="847.6" transform="matrix(-1 4.484534e-11 -4.484534e-11 -1 1707.5283 1713.129)" class="st29" width="17.9" height="17.9"/>
	
		<rect x="817.7" y="856.3" transform="matrix(4.489635e-11 1 -1 4.489635e-11 1701.1337 47.8513)" class="st29" width="17.9" height="36.3"/>
	
		<rect x="889.7" y="676.8" transform="matrix(6.123234e-17 -1 1 6.123234e-17 203.8805 1593.4847)" class="st29" width="17.9" height="36.1"/>
	
		<rect x="916.7" y="631.7" transform="matrix(-1 -1.224647e-16 1.224647e-16 -1 1851.3461 1317.4941)" class="st29" width="17.9" height="54.2"/>
	
		<rect x="889.7" y="604.7" transform="matrix(6.123234e-17 -1 1 6.123234e-17 275.9906 1521.3746)" class="st29" width="17.9" height="36.1"/>
	<rect x="556.4" y="648.6" class="st29" width="17.9" height="17.9"/>
	<rect x="664.5" y="631.7" class="st5" width="17.9" height="44.8"/>
	
		<rect x="664.5" y="559.6" transform="matrix(-1.836970e-16 1 -1 -1.836970e-16 1260.1958 -86.8117)" class="st31" width="17.9" height="54.2"/>
	
		<rect x="808.7" y="559.6" transform="matrix(-1.836970e-16 1 -1 -1.836970e-16 1404.4034 -231.0193)" class="st31" width="17.9" height="54.2"/>
	<rect x="808.7" y="631.7" class="st5" width="17.9" height="44.8"/>
	<rect x="736.5" y="712.6" class="st29" width="17.9" height="35.9"/>
	<rect x="693.2" y="775.6" class="st32" width="17.9" height="17.9"/>
	<rect x="765.5" y="775.6" class="st32" width="17.9" height="17.9"/>
	
		<rect x="729.3" y="775.3" transform="matrix(-1.836970e-16 1 -1 -1.836970e-16 1540.8035 64.1816)" class="st32" width="17.9" height="54.3"/>
	<rect x="718.5" y="730.6" class="st29" width="17.9" height="17.9"/>
	<rect x="628.3" y="487.5" class="st31" width="17.9" height="17.9"/>
	
		<rect x="655.4" y="496.6" transform="matrix(-1.836970e-16 1 -1 -1.836970e-16 1178.9539 -149.808)" class="st28" width="17.9" height="35.9"/>
	
		<rect x="691.3" y="514.5" transform="matrix(-1.836970e-16 1 -1 -1.836970e-16 1232.8138 -167.8119)" class="st28" width="17.9" height="35.9"/>
	<rect x="700.5" y="487.6" class="st31" width="17.9" height="17.9"/>
	
		<rect x="727.6" y="496.7" transform="matrix(-1.836970e-16 1 -1 -1.836970e-16 1251.1558 -221.917)" class="st28" width="17.9" height="35.9"/>
	
		<rect x="763.5" y="514.6" transform="matrix(-1.836970e-16 1 -1 -1.836970e-16 1305.0157 -239.9209)" class="st28" width="17.9" height="35.9"/>
	<rect x="772.6" y="487.7" class="st31" width="17.9" height="17.9"/>
	
		<rect x="799.7" y="496.8" transform="matrix(-1.836970e-16 1 -1 -1.836970e-16 1323.3926 -293.925)" class="st28" width="17.9" height="35.9"/>
	
		<rect x="844.7" y="505.6" transform="matrix(-1.836970e-16 1 -1 -1.836970e-16 1386.3024 -320.9786)" class="st28" width="17.9" height="54"/>
	<rect x="610.4" y="505.4" class="st28" width="17.9" height="126.2"/>
	<rect x="592.2" y="631.7" class="st28" width="17.9" height="17.9"/>
	<rect x="646.5" y="919.3" class="st67" width="162" height="17.9"/>
	<polygon class="st67" points="592.5,919.3 646.5,919.3 646.5,901.4 592.2,901.4 592.2,919.3 538.2,919.3 538.2,937.2 592.5,937.2 	
		"/>
	<polygon class="st67" points="862.5,937.2 916.7,937.2 916.7,919.3 862.7,919.3 862.7,901.4 808.5,901.4 808.5,919.3 862.5,919.3 	
		"/>
	<rect x="520.4" y="937.2" class="st67" width="17.9" height="176.2"/>
	<rect x="916.7" y="937.2" class="st67" width="17.9" height="176.2"/>
	<rect x="646.5" y="901.4" class="st8" width="162" height="17.9"/>
</g>
<g id="Layer_1">
	<g>
		<rect x="592.2" y="469.4" width="17.9" height="17.9"/>
		<rect x="574.3" y="487.3" width="17.9" height="36.3"/>
		<rect x="844.8" y="469.4" width="17.9" height="17.9"/>
		<rect x="862.7" y="487.3" width="17.9" height="36.3"/>
		<rect x="556.4" y="523.7" width="17.9" height="90.1"/>
		<rect x="880.7" y="523.7" width="17.9" height="90.1"/>
		
			<rect x="619.4" y="442.3" transform="matrix(-1.836970e-16 1 -1 -1.836970e-16 1088.7778 -167.8702)" width="17.9" height="36.3"/>
		<rect x="817.7" y="442.3" transform="matrix(-1.836970e-16 1 -1 -1.836970e-16 1287.095 -366.1874)" width="17.9" height="36.3"/>
		<rect x="718.5" y="361.5" transform="matrix(-1.836970e-16 1 -1 -1.836970e-16 1170.0083 -284.9568)" width="17.9" height="162"/>
		<rect x="556.4" y="595.6" transform="matrix(-1.836970e-16 1 -1 -1.836970e-16 1188.0712 57.3129)" width="17.9" height="54.2"/>
		<rect x="520.4" y="631.6" width="17.9" height="54.2"/>
		<rect x="556.4" y="667.7" transform="matrix(-1.836970e-16 1 -1 -1.836970e-16 1260.1813 129.4229)" width="17.9" height="54.2"/>
		<rect x="556.4" y="703.8" width="17.9" height="107.5"/>
		<rect x="880.7" y="703.8" width="17.9" height="107.5"/>
		<rect x="574.3" y="811.3" width="17.9" height="36.3"/>
		<rect x="592.2" y="847.6" width="17.9" height="17.9"/>
		<rect x="619.4" y="856.3" transform="matrix(-1.836970e-16 1 -1 -1.836970e-16 1502.8165 246.1685)" width="17.9" height="36.3"/>
		<rect x="610.4" y="883.2" transform="matrix(-1.836970e-16 1 -1 -1.836970e-16 1529.7086 290.9886)" width="17.9" height="54.2"/>
		<rect x="718.5" y="811.4" transform="matrix(-1.836970e-16 1 -1 -1.836970e-16 1619.9032 164.938)" width="17.9" height="162"/>
		
			<rect x="718.5" y="829.3" transform="matrix(-1.836970e-16 1 -1 -1.836970e-16 1637.8312 182.866)" class="st68" width="17.9" height="162"/>
		<rect x="718.5" y="847.3" transform="matrix(-1.836970e-16 1 -1 -1.836970e-16 1655.7592 200.794)" width="17.9" height="162"/>
		
			<rect x="862.7" y="811.3" transform="matrix(-1 4.484534e-11 -4.484534e-11 -1 1743.3844 1658.8831)" width="17.9" height="36.3"/>
		<rect x="844.8" y="847.6" transform="matrix(-1 4.484534e-11 -4.484534e-11 -1 1707.5283 1713.129)" width="17.9" height="17.9"/>
		<rect x="817.7" y="856.3" transform="matrix(4.489635e-11 1 -1 4.489635e-11 1701.1337 47.8513)" width="17.9" height="36.3"/>
		<rect x="889.7" y="676.8" transform="matrix(6.123234e-17 -1 1 6.123234e-17 203.8805 1593.4847)" width="17.9" height="36.1"/>
		
			<rect x="916.7" y="631.7" transform="matrix(-1 -1.224647e-16 1.224647e-16 -1 1851.3461 1317.4941)" width="17.9" height="54.2"/>
		<rect x="889.7" y="604.7" transform="matrix(6.123234e-17 -1 1 6.123234e-17 275.9906 1521.3746)" width="17.9" height="36.1"/>
		<rect x="556.4" y="648.6" width="17.9" height="17.9"/>
		<rect x="664.5" y="631.7" width="17.9" height="44.8"/>
		<rect x="664.5" y="559.6" transform="matrix(-1.836970e-16 1 -1 -1.836970e-16 1260.1958 -86.8117)" width="17.9" height="54.2"/>
		
			<rect x="808.7" y="559.6" transform="matrix(-1.836970e-16 1 -1 -1.836970e-16 1404.4034 -231.0193)" width="17.9" height="54.2"/>
		<rect x="808.7" y="631.7" width="17.9" height="44.8"/>
		<rect x="736.5" y="712.6" width="17.9" height="35.9"/>
		<rect x="693.2" y="775.6" width="17.9" height="17.9"/>
		<rect x="765.5" y="775.6" width="17.9" height="17.9"/>
		<rect x="729.3" y="775.3" transform="matrix(-1.836970e-16 1 -1 -1.836970e-16 1540.8035 64.1816)" width="17.9" height="54.3"/>
		<rect x="718.5" y="730.6" width="17.9" height="17.9"/>
		<rect x="826.6" y="883.2" transform="matrix(-1.836970e-16 1 -1 -1.836970e-16 1745.9537 74.7434)" width="17.9" height="54.2"/>
		<rect x="556.4" y="901.2" transform="matrix(-1.836970e-16 1 -1 -1.836970e-16 1493.6216 362.9317)" width="17.9" height="54.2"/>
		<rect x="880.7" y="901.2" transform="matrix(-1.836970e-16 1 -1 -1.836970e-16 1817.8969 38.6564)" width="17.9" height="54.2"/>
		
			<rect x="520.4" y="937.2" transform="matrix(-1 -1.224647e-16 1.224647e-16 -1 1058.6539 2050.6794)" width="17.9" height="176.2"/>
		
			<rect x="916.7" y="937.2" transform="matrix(-1 -1.224647e-16 1.224647e-16 -1 1851.3473 2050.6794)" width="17.9" height="176.2"/>
		<rect x="628.3" y="487.5" width="17.9" height="17.9"/>
		<rect x="655.4" y="496.6" transform="matrix(-1.836970e-16 1 -1 -1.836970e-16 1178.9539 -149.808)" width="17.9" height="35.9"/>
		
			<rect x="691.3" y="514.5" transform="matrix(-1.836970e-16 1 -1 -1.836970e-16 1232.8138 -167.8119)" width="17.9" height="35.9"/>
		<rect x="700.5" y="487.6" width="17.9" height="17.9"/>
		<rect x="727.6" y="496.7" transform="matrix(-1.836970e-16 1 -1 -1.836970e-16 1251.1558 -221.917)" width="17.9" height="35.9"/>
		
			<rect x="763.5" y="514.6" transform="matrix(-1.836970e-16 1 -1 -1.836970e-16 1305.0157 -239.9209)" width="17.9" height="35.9"/>
		<rect x="772.6" y="487.7" width="17.9" height="17.9"/>
		<rect x="799.7" y="496.8" transform="matrix(-1.836970e-16 1 -1 -1.836970e-16 1323.3926 -293.925)" width="17.9" height="35.9"/>
		<rect x="844.7" y="505.6" transform="matrix(-1.836970e-16 1 -1 -1.836970e-16 1386.3024 -320.9786)" width="17.9" height="54"/>
		<rect x="610.4" y="505.4" width="17.9" height="126.2"/>
		<rect x="592.2" y="631.7" width="17.9" height="17.9"/>
	</g>
</g>
</svg>
