<?xml version="1.0" encoding="utf-8"?>
<!-- Generator: Adobe Illustrator 22.1.0, SVG Export Plug-In . SVG Version: 6.00 Build 0)  -->
<svg version="1.1" xmlns="http://www.w3.org/2000/svg" xmlns:xlink="http://www.w3.org/1999/xlink" x="0px" y="0px"
	 viewBox="0 0 1455 1455" style="enable-background:new 0 0 1455 1455;" xml:space="preserve">
<style type="text/css">
	.st0{fill:#FFFFFF;}
	.st1{display:none;}
	.st2{display:inline;fill:#FFF200;}
	.st3{display:inline;fill:#2B3990;}
	.st4{display:inline;fill:#27AAE1;}
	.st5{display:inline;}
	.st6{fill:#B19177;}
	.st7{display:inline;fill:#92278F;}
	.st8{display:inline;fill:#F0D0B4;}
	.st9{display:inline;fill:#3C2415;}
	.st10{fill:#3C2415;}
	.st11{display:inline;fill:#A46C35;}
	.st12{display:inline;fill:#603913;}
	.st13{display:inline;fill:#EF4136;}
	.st14{fill:#F1BB58;}
	.st15{display:inline;fill:#DABCAA;}
	.st16{display:inline;fill:#F1BB58;}
	.st17{display:inline;fill:#E4B69D;}
	.st18{display:inline;fill:#473D2C;}
	.st19{display:inline;fill:#7ECAAC;}
	.st20{display:inline;fill:#EED1A3;}
	.st21{display:inline;fill:#7F7058;}
	.st22{display:inline;fill:#8BC63F;}
	.st23{display:inline;fill:#ED1C24;}
	.st24{display:inline;fill:#8C715D;}
	.st25{display:inline;fill:#282829;}
	.st26{display:inline;fill:#B6E4FA;}
	.st27{display:inline;fill:#F7901E;}
	.st28{display:inline;fill:#DFAA59;}
	.st29{display:inline;fill:#CF9E76;}
	.st30{display:inline;fill:none;}
	.st31{display:inline;fill:#D08D14;}
	.st32{display:inline;fill:#C68F62;}
	.st33{display:inline;fill:#464547;}
	.st34{display:inline;fill:#543E36;}
	.st35{display:inline;fill:#F36E21;}
	.st36{display:inline;fill:#1B75BC;}
	.st37{display:inline;fill:#48342C;}
	.st38{fill:#1B75BC;}
	.st39{display:inline;fill:#25B34B;}
	.st40{display:inline;fill:#5E533F;}
	.st41{display:inline;fill:#C18759;}
	.st42{display:inline;fill:#473C29;}
	.st43{display:inline;fill:#372E1F;}
	.st44{display:inline;fill:#584D3C;}
	.st45{display:inline;fill:#B08874;}
	.st46{display:inline;fill:#62AD91;}
	.st47{display:inline;fill:#996953;}
	.st48{fill:#B08874;}
	.st49{display:inline;fill:#E7A414;}
	.st50{display:inline;fill:#9C7761;}
	.st51{display:inline;fill:#ED1C2A;}
	.st52{display:inline;fill:#906852;}
	.st53{fill:#9C7761;}
	.st54{display:inline;fill:#301703;}
	.st55{display:inline;fill:#7D4921;}
	.st56{display:inline;fill:#FFCB05;}
	.st57{display:inline;fill:#7C361C;}
	.st58{fill:#7D4921;}
	.st59{display:inline;fill:#B33A31;}
	.st60{fill:#301703;}
	.st61{display:inline;fill:#DFB28B;}
	.st62{display:inline;fill:#662D91;}
	.st63{fill:#DFB28B;}
	.st64{fill:#464547;}
	.st65{display:inline;fill:#72594B;}
	.st66{display:inline;fill:#262262;}
	.st67{display:inline;fill:#BE1E2D;}
	.st68{fill:none;}
</style>
<g id="Layer_4">
	<g>
		<g>
			
				<rect x="718.5" y="215.6" transform="matrix(6.123234e-17 -1 1 6.123234e-17 430.8999 1024.1001)" class="st0" width="17.9" height="162"/>
			<g>
				
					<rect x="619.6" y="296.6" transform="matrix(-1.836970e-16 1 -1 -1.836970e-16 943.0626 -314.0062)" class="st0" width="17.9" height="35.9"/>
				
					<rect x="583.6" y="296.6" transform="matrix(-1.836970e-16 1 -1 -1.836970e-16 907.1306 -278.0742)" class="st0" width="17.9" height="35.9"/>
			</g>
			<g>
				<rect x="520.8" y="323.5" class="st0" width="17.9" height="17.9"/>
				
					<rect x="547.7" y="314.5" transform="matrix(-1.836970e-16 1 -1 -1.836970e-16 889.1266 -224.2142)" class="st0" width="17.9" height="35.9"/>
			</g>
			
				<rect x="493.8" y="332.4" transform="matrix(-1.836970e-16 1 -1 -1.836970e-16 853.1947 -152.4262)" class="st0" width="17.9" height="35.9"/>
			<rect x="466.9" y="359.3" class="st0" width="17.9" height="17.9"/>
			<rect x="449" y="377.3" class="st0" width="17.9" height="17.9"/>
			<rect x="431.1" y="395.2" class="st0" width="17.9" height="17.9"/>
			<rect x="413.1" y="413.1" class="st0" width="17.9" height="17.9"/>
			<rect x="395.2" y="431.1" class="st0" width="17.9" height="17.9"/>
			<rect x="377.3" y="449" class="st0" width="17.9" height="17.9"/>
			<rect x="359.3" y="466.9" class="st0" width="17.9" height="17.9"/>
			<rect x="341.4" y="484.8" class="st0" width="17.9" height="35.9"/>
			<g>
				
					<rect x="323.5" y="520.8" transform="matrix(-1.836970e-16 1 -1 -1.836970e-16 862.1967 197.2843)" class="st0" width="17.9" height="17.9"/>
				
					<rect x="323.5" y="538.7" transform="matrix(-1 -1.224647e-16 1.224647e-16 -1 664.9124 1113.3409)" class="st0" width="17.9" height="35.9"/>
			</g>
			
				<rect x="305.6" y="610.6" transform="matrix(-1 -1.224647e-16 1.224647e-16 -1 629.0563 1257.0687)" class="st0" width="17.9" height="35.9"/>
			
				<rect x="305.6" y="574.6" transform="matrix(-1 -1.224647e-16 1.224647e-16 -1 629.0563 1185.2048)" class="st0" width="17.9" height="35.9"/>
			
				<rect x="287.6" y="646.5" transform="matrix(-1 -1.224647e-16 1.224647e-16 -1 593.2003 1455)" class="st0" width="17.9" height="162"/>
			<g>
				<rect x="305.6" y="808.5" class="st0" width="17.9" height="35.9"/>
				<rect x="305.6" y="844.4" class="st0" width="17.9" height="35.9"/>
			</g>
			<g>
				
					<rect x="323.5" y="916.3" transform="matrix(6.123234e-17 -1 1 6.123234e-17 -592.8033 1257.7157)" class="st0" width="17.9" height="17.9"/>
				<rect x="323.5" y="880.4" class="st0" width="17.9" height="35.9"/>
			</g>
			<rect x="341.4" y="934.2" class="st0" width="17.9" height="35.9"/>
			
				<rect x="359.3" y="970.2" transform="matrix(6.123234e-17 -1 1 6.123234e-17 -610.8073 1347.4318)" class="st0" width="17.9" height="17.9"/>
			
				<rect x="377.3" y="988.1" transform="matrix(6.123234e-17 -1 1 6.123234e-17 -610.8073 1383.2878)" class="st0" width="17.9" height="17.9"/>
			
				<rect x="395.2" y="1006" transform="matrix(6.123234e-17 -1 1 6.123234e-17 -610.8073 1419.1439)" class="st0" width="17.9" height="17.9"/>
			
				<rect x="413.1" y="1023.9" transform="matrix(6.123234e-17 -1 1 6.123234e-17 -610.8073 1455)" class="st0" width="17.9" height="17.9"/>
			
				<rect x="431.1" y="1041.9" transform="matrix(6.123234e-17 -1 1 6.123234e-17 -610.8073 1490.8561)" class="st0" width="17.9" height="17.9"/>
			
				<rect x="449" y="1059.8" transform="matrix(6.123234e-17 -1 1 6.123234e-17 -610.8073 1526.7122)" class="st0" width="17.9" height="17.9"/>
			
				<rect x="466.9" y="1077.7" transform="matrix(6.123234e-17 -1 1 6.123234e-17 -610.8073 1562.5682)" class="st0" width="17.9" height="17.9"/>
			
				<rect x="493.8" y="1086.6" transform="matrix(6.123234e-17 -1 1 6.123234e-17 -601.8053 1607.4263)" class="st0" width="17.9" height="35.9"/>
			<g>
				<rect x="520.8" y="1113.6" class="st0" width="17.9" height="17.9"/>
				
					<rect x="547.7" y="1104.6" transform="matrix(-1.836970e-16 1 -1 -1.836970e-16 1679.2142 565.8734)" class="st0" width="17.9" height="35.9"/>
			</g>
			<g>
				
					<rect x="619.6" y="1122.5" transform="matrix(-1.836970e-16 1 -1 -1.836970e-16 1769.0062 511.9374)" class="st0" width="17.9" height="35.9"/>
				
					<rect x="583.6" y="1122.5" transform="matrix(-1.836970e-16 1 -1 -1.836970e-16 1733.0742 547.8694)" class="st0" width="17.9" height="35.9"/>
			</g>
		</g>
		
			<rect x="718.5" y="1077.4" transform="matrix(4.464233e-11 1 -1 4.464233e-11 1885.8999 430.8999)" class="st0" width="17.9" height="162"/>
		<g>
			
				<rect x="817.5" y="1122.5" transform="matrix(-4.514960e-11 -1 1 -4.514960e-11 -314.0062 1966.9374)" class="st0" width="17.9" height="35.9"/>
			
				<rect x="853.4" y="1122.5" transform="matrix(-4.464245e-11 -1 1 -4.464245e-11 -278.0742 2002.8694)" class="st0" width="17.9" height="35.9"/>
		</g>
		<g>
			
				<rect x="916.3" y="1113.6" transform="matrix(-1 4.514998e-11 -4.514998e-11 -1 1850.519 2245.0876)" class="st0" width="17.9" height="17.9"/>
			
				<rect x="889.4" y="1104.6" transform="matrix(-4.459182e-11 -1 1 -4.459182e-11 -224.2142 2020.8733)" class="st0" width="17.9" height="35.9"/>
		</g>
		
			<rect x="943.2" y="1086.6" transform="matrix(-4.464245e-11 -1 1 -4.464245e-11 -152.4262 2056.8054)" class="st0" width="17.9" height="35.9"/>
		
			<rect x="970.2" y="1077.7" transform="matrix(-1 4.525124e-11 -4.525124e-11 -1 1958.2391 2173.3755)" class="st0" width="17.9" height="17.9"/>
		
			<rect x="988.1" y="1059.8" transform="matrix(-1 4.454114e-11 -4.454114e-11 -1 1994.0951 2137.5193)" class="st0" width="17.9" height="17.9"/>
		
			<rect x="1006" y="1041.9" transform="matrix(-1 4.454114e-11 -4.454114e-11 -1 2029.9512 2101.6633)" class="st0" width="17.9" height="17.9"/>
		
			<rect x="1023.9" y="1023.9" transform="matrix(-1 4.464239e-11 -4.464239e-11 -1 2065.8074 2065.8074)" class="st0" width="17.9" height="17.9"/>
		
			<rect x="1041.9" y="1006" transform="matrix(-1 4.454114e-11 -4.454114e-11 -1 2101.6633 2029.9512)" class="st0" width="17.9" height="17.9"/>
		
			<rect x="1059.8" y="988.1" transform="matrix(-1 4.464239e-11 -4.464239e-11 -1 2137.5193 1994.0951)" class="st0" width="17.9" height="17.9"/>
		
			<rect x="1077.7" y="970.2" transform="matrix(-1 4.464239e-11 -4.464239e-11 -1 2173.3755 1958.2391)" class="st0" width="17.9" height="17.9"/>
		
			<rect x="1095.7" y="934.2" transform="matrix(-1 4.464239e-11 -4.464239e-11 -1 2209.2314 1904.379)" class="st0" width="17.9" height="35.9"/>
		<g>
			
				<rect x="1113.6" y="916.3" transform="matrix(-4.464245e-11 -1 1 -4.464245e-11 197.2843 2047.8033)" class="st0" width="17.9" height="17.9"/>
			<rect x="1113.6" y="880.4" class="st0" width="17.9" height="35.9"/>
		</g>
		<g>
			<rect x="1131.5" y="808.5" class="st0" width="17.9" height="35.9"/>
			<rect x="1131.5" y="844.4" class="st0" width="17.9" height="35.9"/>
		</g>
		<rect x="1149.4" y="646.5" class="st0" width="17.9" height="162"/>
		<g>
			
				<rect x="1131.5" y="610.6" transform="matrix(-1 4.464239e-11 -4.464239e-11 -1 2280.9436 1257.0687)" class="st0" width="17.9" height="35.9"/>
			
				<rect x="1131.5" y="574.6" transform="matrix(-1 4.514998e-11 -4.514998e-11 -1 2280.9436 1185.2048)" class="st0" width="17.9" height="35.9"/>
		</g>
		<g>
			
				<rect x="1113.6" y="520.8" transform="matrix(4.464233e-11 1 -1 4.464233e-11 1652.2843 -592.8033)" class="st0" width="17.9" height="17.9"/>
			
				<rect x="1113.6" y="538.7" transform="matrix(-1 4.514998e-11 -4.514998e-11 -1 2245.0876 1113.3409)" class="st0" width="17.9" height="35.9"/>
		</g>
		
			<rect x="1095.7" y="484.8" transform="matrix(-1 4.514998e-11 -4.514998e-11 -1 2209.2314 1005.6209)" class="st0" width="17.9" height="35.9"/>
		
			<rect x="1077.7" y="466.9" transform="matrix(4.514948e-11 1 -1 4.514948e-11 1562.5682 -610.8073)" class="st0" width="17.9" height="17.9"/>
		
			<rect x="1059.8" y="449" transform="matrix(4.514948e-11 1 -1 4.514948e-11 1526.7122 -610.8073)" class="st0" width="17.9" height="17.9"/>
		
			<rect x="1041.9" y="431.1" transform="matrix(4.525073e-11 1 -1 4.525073e-11 1490.8561 -610.8073)" class="st0" width="17.9" height="17.9"/>
		
			<rect x="1023.9" y="413.1" transform="matrix(4.514948e-11 1 -1 4.514948e-11 1455 -610.8073)" class="st0" width="17.9" height="17.9"/>
		
			<rect x="1006" y="395.2" transform="matrix(4.514948e-11 1 -1 4.514948e-11 1419.1439 -610.8073)" class="st0" width="17.9" height="17.9"/>
		
			<rect x="988.1" y="377.3" transform="matrix(4.525073e-11 1 -1 4.525073e-11 1383.2878 -610.8073)" class="st0" width="17.9" height="17.9"/>
		
			<rect x="970.2" y="359.3" transform="matrix(4.514948e-11 1 -1 4.514948e-11 1347.4318 -610.8073)" class="st0" width="17.9" height="17.9"/>
		
			<rect x="943.2" y="332.4" transform="matrix(4.514948e-11 1 -1 4.514948e-11 1302.5737 -601.8053)" class="st0" width="17.9" height="35.9"/>
		<g>
			
				<rect x="916.3" y="323.5" transform="matrix(-1 4.514998e-11 -4.514998e-11 -1 1850.519 664.9124)" class="st0" width="17.9" height="17.9"/>
			
				<rect x="889.4" y="314.5" transform="matrix(-4.459182e-11 -1 1 -4.459182e-11 565.8734 1230.7858)" class="st0" width="17.9" height="35.9"/>
		</g>
		<g>
			
				<rect x="817.5" y="296.6" transform="matrix(-4.514960e-11 -1 1 -4.514960e-11 511.9374 1140.9938)" class="st0" width="17.9" height="35.9"/>
			
				<rect x="853.4" y="296.6" transform="matrix(-4.464245e-11 -1 1 -4.464245e-11 547.8694 1176.9258)" class="st0" width="17.9" height="35.9"/>
		</g>
	</g>
	<polygon class="st0" points="1149.1,646.8 1131.5,646.8 1131.5,574.3 1113.4,574.3 1113.4,520.6 1095.7,520.6 1095.7,484.8 
		1077.7,484.8 1077.7,466.9 1059.8,466.9 1059.8,449 1041.9,449 1041.9,431.1 1023.9,431.1 1023.9,413.1 1006,413.1 1006,395.2 
		988.1,395.2 988.1,377.3 970.2,377.3 970.2,359.3 934.2,359.3 934.2,341.4 880.7,341.4 880.7,323.5 807.9,323.5 807.9,305.6 
		646.5,305.6 646.5,323.5 574.3,323.5 574.3,341.4 520.4,341.4 520.4,359.3 484.8,359.3 484.8,377.3 466.9,377.3 466.9,395.2 
		449,395.2 449,413.1 431.1,413.1 431.1,431.1 413.1,431.1 413.1,449 395.2,449 395.2,466.9 377.3,466.9 377.3,484.8 359.3,484.8 
		359.3,520.6 341.2,520.6 341.2,574.3 323.5,574.3 323.5,646.8 305.3,646.8 305.3,808.2 323.5,808.2 323.5,880.7 341.2,880.7 
		341.2,934.4 359.3,934.4 359.3,970.2 377.3,970.2 377.3,988.1 395.2,988.1 395.2,1006 413.1,1006 413.1,1023.9 431.1,1023.9 
		431.1,1041.9 449,1041.9 449,1059.8 466.9,1059.8 466.9,1077.7 484.8,1077.7 484.8,1095.7 520.4,1095.7 520.4,1113.6 574.3,1113.6 
		574.3,1131.5 646.5,1131.5 646.5,1149.4 807.9,1149.4 807.9,1131.5 880.7,1131.5 880.7,1113.6 934.2,1113.6 934.2,1095.7 
		970.2,1095.7 970.2,1077.7 988.1,1077.7 988.1,1059.8 1006,1059.8 1006,1041.9 1023.9,1041.9 1023.9,1023.9 1041.9,1023.9 
		1041.9,1006 1059.8,1006 1059.8,988.1 1077.7,988.1 1077.7,970.2 1095.7,970.2 1095.7,934.4 1113.4,934.4 1113.4,880.7 
		1131.5,880.7 1131.5,808.2 1149.1,808.2 	"/>
</g>
<g id="Layer_2">
	<g>
		<g>
			<rect x="718.5" y="215.6" transform="matrix(6.123234e-17 -1 1 6.123234e-17 430.8999 1024.1001)" width="17.9" height="162"/>
			<g>
				
					<rect x="619.6" y="296.6" transform="matrix(-1.836970e-16 1 -1 -1.836970e-16 943.0626 -314.0062)" width="17.9" height="35.9"/>
				
					<rect x="583.6" y="296.6" transform="matrix(-1.836970e-16 1 -1 -1.836970e-16 907.1306 -278.0742)" width="17.9" height="35.9"/>
			</g>
			<g>
				<rect x="520.8" y="323.5" width="17.9" height="17.9"/>
				
					<rect x="547.7" y="314.5" transform="matrix(-1.836970e-16 1 -1 -1.836970e-16 889.1266 -224.2142)" width="17.9" height="35.9"/>
			</g>
			
				<rect x="493.8" y="332.4" transform="matrix(-1.836970e-16 1 -1 -1.836970e-16 853.1947 -152.4262)" width="17.9" height="35.9"/>
			<rect x="466.9" y="359.3" width="17.9" height="17.9"/>
			<rect x="449" y="377.3" width="17.9" height="17.9"/>
			<rect x="431.1" y="395.2" width="17.9" height="17.9"/>
			<rect x="413.1" y="413.1" width="17.9" height="17.9"/>
			<rect x="395.2" y="431.1" width="17.9" height="17.9"/>
			<rect x="377.3" y="449" width="17.9" height="17.9"/>
			<rect x="359.3" y="466.9" width="17.9" height="17.9"/>
			<rect x="341.4" y="484.8" width="17.9" height="35.9"/>
			<g>
				
					<rect x="323.5" y="520.8" transform="matrix(-1.836970e-16 1 -1 -1.836970e-16 862.1967 197.2843)" width="17.9" height="17.9"/>
				
					<rect x="323.5" y="538.7" transform="matrix(-1 -1.224647e-16 1.224647e-16 -1 664.9124 1113.3409)" width="17.9" height="35.9"/>
			</g>
			
				<rect x="305.6" y="610.6" transform="matrix(-1 -1.224647e-16 1.224647e-16 -1 629.0563 1257.0687)" width="17.9" height="35.9"/>
			
				<rect x="305.6" y="574.6" transform="matrix(-1 -1.224647e-16 1.224647e-16 -1 629.0563 1185.2048)" width="17.9" height="35.9"/>
			<rect x="287.6" y="646.5" transform="matrix(-1 -1.224647e-16 1.224647e-16 -1 593.2003 1455)" width="17.9" height="162"/>
			<g>
				<rect x="305.6" y="808.5" width="17.9" height="35.9"/>
				<rect x="305.6" y="844.4" width="17.9" height="35.9"/>
			</g>
			<g>
				
					<rect x="323.5" y="916.3" transform="matrix(6.123234e-17 -1 1 6.123234e-17 -592.8033 1257.7157)" width="17.9" height="17.9"/>
				<rect x="323.5" y="880.4" width="17.9" height="35.9"/>
			</g>
			<rect x="341.4" y="934.2" width="17.9" height="35.9"/>
			<rect x="359.3" y="970.2" transform="matrix(6.123234e-17 -1 1 6.123234e-17 -610.8073 1347.4318)" width="17.9" height="17.9"/>
			<rect x="377.3" y="988.1" transform="matrix(6.123234e-17 -1 1 6.123234e-17 -610.8073 1383.2878)" width="17.9" height="17.9"/>
			<rect x="395.2" y="1006" transform="matrix(6.123234e-17 -1 1 6.123234e-17 -610.8073 1419.1439)" width="17.9" height="17.9"/>
			<rect x="413.1" y="1023.9" transform="matrix(6.123234e-17 -1 1 6.123234e-17 -610.8073 1455)" width="17.9" height="17.9"/>
			
				<rect x="431.1" y="1041.9" transform="matrix(6.123234e-17 -1 1 6.123234e-17 -610.8073 1490.8561)" width="17.9" height="17.9"/>
			<rect x="449" y="1059.8" transform="matrix(6.123234e-17 -1 1 6.123234e-17 -610.8073 1526.7122)" width="17.9" height="17.9"/>
			
				<rect x="466.9" y="1077.7" transform="matrix(6.123234e-17 -1 1 6.123234e-17 -610.8073 1562.5682)" width="17.9" height="17.9"/>
			
				<rect x="493.8" y="1086.6" transform="matrix(6.123234e-17 -1 1 6.123234e-17 -601.8053 1607.4263)" width="17.9" height="35.9"/>
			<g>
				<rect x="520.8" y="1113.6" width="17.9" height="17.9"/>
				
					<rect x="547.7" y="1104.6" transform="matrix(-1.836970e-16 1 -1 -1.836970e-16 1679.2142 565.8734)" width="17.9" height="35.9"/>
			</g>
			<g>
				
					<rect x="619.6" y="1122.5" transform="matrix(-1.836970e-16 1 -1 -1.836970e-16 1769.0062 511.9374)" width="17.9" height="35.9"/>
				
					<rect x="583.6" y="1122.5" transform="matrix(-1.836970e-16 1 -1 -1.836970e-16 1733.0742 547.8694)" width="17.9" height="35.9"/>
			</g>
		</g>
		<rect x="718.5" y="1077.4" transform="matrix(4.464233e-11 1 -1 4.464233e-11 1885.8999 430.8999)" width="17.9" height="162"/>
		<g>
			
				<rect x="817.5" y="1122.5" transform="matrix(-4.514960e-11 -1 1 -4.514960e-11 -314.0062 1966.9374)" width="17.9" height="35.9"/>
			
				<rect x="853.4" y="1122.5" transform="matrix(-4.464245e-11 -1 1 -4.464245e-11 -278.0742 2002.8694)" width="17.9" height="35.9"/>
		</g>
		<g>
			
				<rect x="916.3" y="1113.6" transform="matrix(-1 4.514998e-11 -4.514998e-11 -1 1850.519 2245.0876)" width="17.9" height="17.9"/>
			
				<rect x="889.4" y="1104.6" transform="matrix(-4.459182e-11 -1 1 -4.459182e-11 -224.2142 2020.8733)" width="17.9" height="35.9"/>
		</g>
		
			<rect x="943.2" y="1086.6" transform="matrix(-4.464245e-11 -1 1 -4.464245e-11 -152.4262 2056.8054)" width="17.9" height="35.9"/>
		
			<rect x="970.2" y="1077.7" transform="matrix(-1 4.525124e-11 -4.525124e-11 -1 1958.2391 2173.3755)" width="17.9" height="17.9"/>
		
			<rect x="988.1" y="1059.8" transform="matrix(-1 4.454114e-11 -4.454114e-11 -1 1994.0951 2137.5193)" width="17.9" height="17.9"/>
		
			<rect x="1006" y="1041.9" transform="matrix(-1 4.454114e-11 -4.454114e-11 -1 2029.9512 2101.6633)" width="17.9" height="17.9"/>
		
			<rect x="1023.9" y="1023.9" transform="matrix(-1 4.464239e-11 -4.464239e-11 -1 2065.8074 2065.8074)" width="17.9" height="17.9"/>
		
			<rect x="1041.9" y="1006" transform="matrix(-1 4.454114e-11 -4.454114e-11 -1 2101.6633 2029.9512)" width="17.9" height="17.9"/>
		
			<rect x="1059.8" y="988.1" transform="matrix(-1 4.464239e-11 -4.464239e-11 -1 2137.5193 1994.0951)" width="17.9" height="17.9"/>
		
			<rect x="1077.7" y="970.2" transform="matrix(-1 4.464239e-11 -4.464239e-11 -1 2173.3755 1958.2391)" width="17.9" height="17.9"/>
		
			<rect x="1095.7" y="934.2" transform="matrix(-1 4.464239e-11 -4.464239e-11 -1 2209.2314 1904.379)" width="17.9" height="35.9"/>
		<g>
			
				<rect x="1113.6" y="916.3" transform="matrix(-4.464245e-11 -1 1 -4.464245e-11 197.2843 2047.8033)" width="17.9" height="17.9"/>
			<rect x="1113.6" y="880.4" width="17.9" height="35.9"/>
		</g>
		<g>
			<rect x="1131.5" y="808.5" width="17.9" height="35.9"/>
			<rect x="1131.5" y="844.4" width="17.9" height="35.9"/>
		</g>
		<rect x="1149.4" y="646.5" width="17.9" height="162"/>
		<g>
			
				<rect x="1131.5" y="610.6" transform="matrix(-1 4.464239e-11 -4.464239e-11 -1 2280.9436 1257.0687)" width="17.9" height="35.9"/>
			
				<rect x="1131.5" y="574.6" transform="matrix(-1 4.514998e-11 -4.514998e-11 -1 2280.9436 1185.2048)" width="17.9" height="35.9"/>
		</g>
		<g>
			
				<rect x="1113.6" y="520.8" transform="matrix(4.464233e-11 1 -1 4.464233e-11 1652.2843 -592.8033)" width="17.9" height="17.9"/>
			
				<rect x="1113.6" y="538.7" transform="matrix(-1 4.514998e-11 -4.514998e-11 -1 2245.0876 1113.3409)" width="17.9" height="35.9"/>
		</g>
		
			<rect x="1095.7" y="484.8" transform="matrix(-1 4.514998e-11 -4.514998e-11 -1 2209.2314 1005.6209)" width="17.9" height="35.9"/>
		<rect x="1077.7" y="466.9" transform="matrix(4.514948e-11 1 -1 4.514948e-11 1562.5682 -610.8073)" width="17.9" height="17.9"/>
		<rect x="1059.8" y="449" transform="matrix(4.514948e-11 1 -1 4.514948e-11 1526.7122 -610.8073)" width="17.9" height="17.9"/>
		<rect x="1041.9" y="431.1" transform="matrix(4.525073e-11 1 -1 4.525073e-11 1490.8561 -610.8073)" width="17.9" height="17.9"/>
		<rect x="1023.9" y="413.1" transform="matrix(4.514948e-11 1 -1 4.514948e-11 1455 -610.8073)" width="17.9" height="17.9"/>
		<rect x="1006" y="395.2" transform="matrix(4.514948e-11 1 -1 4.514948e-11 1419.1439 -610.8073)" width="17.9" height="17.9"/>
		<rect x="988.1" y="377.3" transform="matrix(4.525073e-11 1 -1 4.525073e-11 1383.2878 -610.8073)" width="17.9" height="17.9"/>
		<rect x="970.2" y="359.3" transform="matrix(4.514948e-11 1 -1 4.514948e-11 1347.4318 -610.8073)" width="17.9" height="17.9"/>
		<rect x="943.2" y="332.4" transform="matrix(4.514948e-11 1 -1 4.514948e-11 1302.5737 -601.8053)" width="17.9" height="35.9"/>
		<g>
			<rect x="916.3" y="323.5" transform="matrix(-1 4.514998e-11 -4.514998e-11 -1 1850.519 664.9124)" width="17.9" height="17.9"/>
			
				<rect x="889.4" y="314.5" transform="matrix(-4.459182e-11 -1 1 -4.459182e-11 565.8734 1230.7858)" width="17.9" height="35.9"/>
		</g>
		<g>
			
				<rect x="817.5" y="296.6" transform="matrix(-4.514960e-11 -1 1 -4.514960e-11 511.9374 1140.9938)" width="17.9" height="35.9"/>
			
				<rect x="853.4" y="296.6" transform="matrix(-4.464245e-11 -1 1 -4.464245e-11 547.8694 1176.9258)" width="17.9" height="35.9"/>
		</g>
	</g>
</g>
<g id="Color" class="st1">
	<polygon class="st2" points="862.5,952.5 862.5,934.6 592.5,934.4 592.5,952.2 538.3,952.2 538.2,1113.6 574.6,1113.6 
		574.6,1131.5 646.5,1131.5 646.5,1149.4 808.5,1149.4 808.5,1131.5 880.4,1131.5 880.3,1113.6 916.7,1113.6 916.7,952.5 	"/>
	<rect x="934.8" y="745.9" class="st9" width="53.8" height="53.8"/>
	<rect x="898.6" y="728.2" class="st9" width="53.8" height="89.6"/>
	<g class="st5">
		<rect x="880.7" y="493.9" class="st10" width="35.9" height="144.6"/>
		<polygon class="st10" points="538.7,493.9 502.3,493.9 502.3,638.2 502.2,638.2 502.2,746 448.4,746 448.4,782 466.4,782 
			466.4,799.9 502.2,799.9 502.2,817.8 556.4,817.8 556.4,638.2 880.4,638.2 880.4,439.6 538.7,439.6 		"/>
	</g>
	<polygon class="st11" points="898.8,638.5 898.8,548.4 646.3,548.4 646.4,530.1 628.3,529.9 628.3,548.4 557.1,548.4 557.1,638.5 
		538.2,638.5 538.2,728 556.1,728 556.1,836 574.2,836 574.4,853.9 592.3,853.9 592.3,871.9 610.2,871.9 610.2,889.8 613,889.8 
		628.1,889.8 628.3,908.2 646.5,908.2 646.5,944 808.5,944 808.5,908.2 826.6,908.2 826.9,908.2 826.9,890.3 844.8,890.3 
		844.8,872.3 862.8,872.3 862.8,854.4 880.7,854.4 880.7,836 880.7,836 898.6,836 898.8,836 898.8,728 916.7,728 916.7,638.5 	"/>
	<polygon class="st12" points="844.8,494 844.8,475.9 610.2,475.9 610.2,511.8 574.3,511.8 574.3,656 628.3,656 628.3,529.9 
		682.4,529.9 682.4,548 862.7,548 862.7,494 	"/>
	<rect x="592.3" y="493.9" class="st54" width="17.9" height="17.9"/>
	<rect x="574.3" y="511.8" class="st54" width="17.9" height="36.3"/>
	<rect x="844.8" y="493.9" class="st54" width="17.9" height="17.9"/>
	<rect x="862.7" y="511.8" class="st54" width="17.9" height="36.3"/>
	<rect x="556.4" y="548.1" class="st54" width="17.9" height="90.1"/>
	<rect x="880.7" y="548.1" class="st54" width="17.9" height="90.1"/>
	
		<rect x="619.4" y="466.8" transform="matrix(-1.836970e-16 1 -1 -1.836970e-16 1113.2515 -143.4314)" class="st54" width="17.9" height="36.3"/>
	
		<rect x="817.7" y="466.8" transform="matrix(-1.836970e-16 1 -1 -1.836970e-16 1311.5686 -341.7485)" class="st54" width="17.9" height="36.3"/>
	
		<rect x="718.5" y="386" transform="matrix(-1.836970e-16 1 -1 -1.836970e-16 1194.4821 -260.518)" class="st54" width="17.9" height="162"/>
	
		<rect x="556.4" y="620.1" transform="matrix(-1.836970e-16 1 -1 -1.836970e-16 1212.5449 81.7518)" class="st55" width="17.9" height="54.2"/>
	<rect x="520.4" y="656" class="st55" width="17.9" height="54.2"/>
	
		<rect x="556.4" y="692.2" transform="matrix(-1.836970e-16 1 -1 -1.836970e-16 1284.6549 153.8618)" class="st55" width="17.9" height="54.2"/>
	<rect x="556.4" y="728.2" class="st55" width="17.9" height="107.5"/>
	<rect x="880.7" y="728.2" class="st55" width="17.9" height="107.5"/>
	<rect x="610.2" y="872.1" class="st55" width="17.9" height="17.9"/>
	
		<rect x="610.4" y="907.7" transform="matrix(-1.836970e-16 1 -1 -1.836970e-16 1554.1823 315.4275)" class="st56" width="17.9" height="54.2"/>
	
		<rect x="718.5" y="835.9" transform="matrix(-1.836970e-16 1 -1 -1.836970e-16 1644.3768 189.3768)" class="st55" width="17.9" height="162"/>
	
		<rect x="718.5" y="853.8" transform="matrix(-1.836970e-16 1 -1 -1.836970e-16 1662.3048 207.3049)" class="st30" width="17.9" height="162"/>
	
		<rect x="718.5" y="871.7" transform="matrix(-1.836970e-16 1 -1 -1.836970e-16 1680.2329 225.2329)" class="st56" width="17.9" height="162"/>
	
		<rect x="889.7" y="701.2" transform="matrix(6.123234e-17 -1 1 6.123234e-17 179.4417 1617.9584)" class="st55" width="17.9" height="36.1"/>
	
		<rect x="916.7" y="656.1" transform="matrix(-1 -1.224647e-16 1.224647e-16 -1 1851.3809 1366.4067)" class="st5" width="17.9" height="54.2"/>
	
		<rect x="889.7" y="629.1" transform="matrix(6.123234e-17 -1 1 6.123234e-17 251.5517 1545.8484)" class="st55" width="17.9" height="36.1"/>
	<rect x="556.4" y="673.1" class="st55" width="17.9" height="17.9"/>
	<rect x="664.6" y="656.1" class="st5" width="17.9" height="44.8"/>
	
		<rect x="664.6" y="584.1" transform="matrix(-1.836970e-16 1 -1 -1.836970e-16 1284.6694 -62.3728)" class="st9" width="17.9" height="54.2"/>
	
		<rect x="808.8" y="584.1" transform="matrix(-1.836970e-16 1 -1 -1.836970e-16 1428.8771 -206.5804)" class="st9" width="17.9" height="54.2"/>
	<rect x="808.8" y="656.1" class="st5" width="17.9" height="44.8"/>
	<rect x="736.5" y="737" class="st55" width="17.9" height="35.9"/>
	<rect x="718.5" y="755" class="st55" width="17.9" height="17.9"/>
	
		<rect x="826.7" y="907.7" transform="matrix(-1.836970e-16 1 -1 -1.836970e-16 1770.4275 99.1822)" class="st56" width="17.9" height="54.2"/>
	
		<rect x="730.5" y="790.7" transform="matrix(-1.836970e-16 1 -1 -1.836970e-16 1566.2748 87.2748)" class="st57" width="17.9" height="72.2"/>
	
		<rect x="556.4" y="925.6" transform="matrix(-1.836970e-16 1 -1 -1.836970e-16 1518.0952 387.3705)" class="st56" width="17.9" height="54.2"/>
	
		<rect x="880.7" y="925.6" transform="matrix(-1.836970e-16 1 -1 -1.836970e-16 1842.3705 63.0952)" class="st56" width="17.9" height="54.2"/>
	
		<rect x="520.4" y="961.7" transform="matrix(-1 -1.224647e-16 1.224647e-16 -1 1058.6896 2075.2783)" class="st56" width="17.9" height="151.9"/>
	
		<rect x="916.7" y="961.7" transform="matrix(-1 -1.224647e-16 1.224647e-16 -1 1851.3831 2075.2783)" class="st56" width="17.9" height="151.9"/>
	<rect x="628.3" y="512" class="st54" width="17.9" height="17.9"/>
	
		<rect x="655.4" y="521.1" transform="matrix(-1.836970e-16 1 -1 -1.836970e-16 1203.4275 -125.3691)" class="st54" width="17.9" height="35.9"/>
	
		<rect x="691.4" y="539" transform="matrix(-1.836970e-16 1 -1 -1.836970e-16 1257.2875 -143.3731)" class="st54" width="17.9" height="35.9"/>
	<rect x="700.5" y="512" class="st54" width="17.9" height="17.9"/>
	
		<rect x="727.6" y="521.1" transform="matrix(-1.836970e-16 1 -1 -1.836970e-16 1275.6294 -197.4781)" class="st54" width="17.9" height="35.9"/>
	
		<rect x="763.5" y="539" transform="matrix(-1.836970e-16 1 -1 -1.836970e-16 1329.4894 -215.4821)" class="st54" width="17.9" height="35.9"/>
	<rect x="772.6" y="512.2" class="st54" width="17.9" height="17.9"/>
	
		<rect x="799.7" y="521.2" transform="matrix(-1.836970e-16 1 -1 -1.836970e-16 1347.8663 -269.4861)" class="st54" width="17.9" height="35.9"/>
	
		<rect x="844.7" y="530.1" transform="matrix(-1.836970e-16 1 -1 -1.836970e-16 1410.776 -296.5398)" class="st54" width="17.9" height="54"/>
	<rect x="610.4" y="529.8" class="st54" width="17.9" height="126.2"/>
	<rect x="592.3" y="656.1" class="st54" width="17.9" height="17.9"/>
	<rect x="574.3" y="835.7" class="st55" width="17.9" height="17.9"/>
	<rect x="592.3" y="854.1" class="st55" width="17.9" height="17.9"/>
	<rect x="628.1" y="890" class="st55" width="17.9" height="17.9"/>
	<g class="st5">
		
			<rect x="826.9" y="872.1" transform="matrix(-1 4.464239e-11 -4.464239e-11 -1 1671.7072 1762.0415)" class="st58" width="17.9" height="17.9"/>
		
			<rect x="862.7" y="835.7" transform="matrix(-1 4.464239e-11 -4.464239e-11 -1 1743.4192 1689.4056)" class="st58" width="17.9" height="17.9"/>
		
			<rect x="844.8" y="854.1" transform="matrix(-1 4.514998e-11 -4.514998e-11 -1 1707.5631 1726.1854)" class="st58" width="17.9" height="17.9"/>
		
			<rect x="809" y="890" transform="matrix(-1 4.525124e-11 -4.525124e-11 -1 1635.8511 1797.8976)" class="st58" width="17.9" height="17.9"/>
	</g>
	<rect x="466.4" y="782" class="st54" width="17.9" height="17.9"/>
	<rect x="538.5" y="817.8" class="st54" width="17.9" height="17.9"/>
	
		<rect x="730.5" y="826.7" transform="matrix(-1.836970e-16 1 -1 -1.836970e-16 1584.2028 105.2028)" class="st59" width="17.9" height="35.9"/>
	<rect x="685.5" y="799.9" class="st57" width="17.9" height="17.9"/>
	<rect x="775.6" y="799.9" class="st57" width="17.9" height="17.9"/>
	<g class="st5">
		
			<rect x="430.4" y="746" transform="matrix(-1 -1.224647e-16 1.224647e-16 -1 878.7935 1527.9774)" class="st60" width="17.9" height="35.9"/>
		<rect x="448.4" y="728.1" class="st60" width="17.9" height="17.9"/>
	</g>
	
		<rect x="502.4" y="781.8" transform="matrix(-1.836970e-16 1 -1 -1.836970e-16 1320.2283 297.4652)" class="st54" width="17.9" height="54.2"/>
	
		<rect x="511.5" y="466.8" transform="matrix(-1.836970e-16 1 -1 -1.836970e-16 1005.4053 -35.5851)" class="st54" width="17.9" height="36.3"/>
	<rect x="484.3" y="746" class="st54" width="17.9" height="17.9"/>
	<rect x="502.3" y="728.1" class="st54" width="17.9" height="17.9"/>
	<rect x="484.4" y="493.9" class="st54" width="17.9" height="234.3"/>
	
		<rect x="439.4" y="755" transform="matrix(-1.836970e-16 1 -1 -1.836970e-16 1221.3894 324.592)" class="st54" width="17.9" height="35.9"/>
	<rect x="466.2" y="746" class="st54" width="17.9" height="17.9"/>
	<rect x="538.7" y="439.6" class="st54" width="17.9" height="36.3"/>
	
		<rect x="700.7" y="277.6" transform="matrix(-1.836970e-16 1 -1 -1.836970e-16 1140.328 -278.9998)" class="st54" width="17.9" height="306.2"/>
	<g class="st5">
		
			<rect x="862.7" y="439.6" transform="matrix(-1 -1.224647e-16 1.224647e-16 -1 1743.4192 915.5742)" class="st60" width="17.9" height="36.3"/>
		
			<rect x="889.9" y="466.8" transform="matrix(-1.836970e-16 1 -1 -1.836970e-16 1383.7427 -413.9225)" class="st60" width="17.9" height="36.3"/>
	</g>
	<rect x="916.7" y="493.9" class="st54" width="17.9" height="234.3"/>
	<g class="st5">
		
			<rect x="970.7" y="782" transform="matrix(-1 -4.464263e-11 4.464263e-11 -1 1959.3425 1581.8374)" class="st60" width="17.9" height="17.9"/>
		
			<rect x="898.6" y="817.8" transform="matrix(-1 -4.464263e-11 4.464263e-11 -1 1815.1313 1653.5496)" class="st60" width="17.9" height="17.9"/>
		<g>
			<rect x="1006.6" y="746" class="st60" width="17.9" height="35.9"/>
			
				<rect x="988.7" y="728.1" transform="matrix(-1 -4.454138e-11 4.454138e-11 -1 1995.3505 1474.1174)" class="st60" width="17.9" height="17.9"/>
		</g>
		
			<rect x="934.7" y="781.8" transform="matrix(-4.520136e-11 1 -1 -4.520136e-11 1752.4652 -134.7717)" class="st60" width="17.9" height="54.2"/>
		
			<rect x="952.8" y="746" transform="matrix(-1 -4.464263e-11 4.464263e-11 -1 1923.4865 1509.9735)" class="st60" width="17.9" height="17.9"/>
		
			<rect x="934.7" y="728.1" transform="matrix(-1 -4.464263e-11 4.464263e-11 -1 1887.3995 1474.0415)" class="st60" width="17.9" height="17.9"/>
		
			<rect x="997.6" y="755" transform="matrix(-4.459207e-11 1 -1 -4.459207e-11 1779.5919 -233.6106)" class="st60" width="17.9" height="35.9"/>
		
			<rect x="970.8" y="746" transform="matrix(-1 -4.464263e-11 4.464263e-11 -1 1959.5735 1509.9735)" class="st60" width="17.9" height="17.9"/>
	</g>
	
		<rect x="988.6" y="746" transform="matrix(-1 -4.464263e-11 4.464263e-11 -1 1995.1986 1509.9735)" class="st9" width="17.9" height="17.9"/>
</g>
<g id="Layer_1">
	<g>
		<rect x="592.3" y="493.9" width="17.9" height="17.9"/>
		<rect x="574.3" y="511.8" width="17.9" height="36.3"/>
		<rect x="844.8" y="493.9" width="17.9" height="17.9"/>
		<rect x="862.7" y="511.8" width="17.9" height="36.3"/>
		<rect x="556.4" y="548.1" width="17.9" height="90.1"/>
		<rect x="880.7" y="548.1" width="17.9" height="90.1"/>
		
			<rect x="619.4" y="466.8" transform="matrix(-1.836970e-16 1 -1 -1.836970e-16 1113.2515 -143.4314)" width="17.9" height="36.3"/>
		
			<rect x="817.7" y="466.8" transform="matrix(-1.836970e-16 1 -1 -1.836970e-16 1311.5686 -341.7485)" width="17.9" height="36.3"/>
		<rect x="718.5" y="386" transform="matrix(-1.836970e-16 1 -1 -1.836970e-16 1194.4821 -260.518)" width="17.9" height="162"/>
		<rect x="556.4" y="620.1" transform="matrix(-1.836970e-16 1 -1 -1.836970e-16 1212.5449 81.7518)" width="17.9" height="54.2"/>
		<rect x="520.4" y="656" width="17.9" height="54.2"/>
		<rect x="556.4" y="692.2" transform="matrix(-1.836970e-16 1 -1 -1.836970e-16 1284.6549 153.8618)" width="17.9" height="54.2"/>
		<rect x="556.4" y="728.2" width="17.9" height="107.5"/>
		<rect x="880.7" y="728.2" width="17.9" height="107.5"/>
		<rect x="610.2" y="872.1" width="17.9" height="17.9"/>
		<rect x="610.4" y="907.7" transform="matrix(-1.836970e-16 1 -1 -1.836970e-16 1554.1823 315.4275)" width="17.9" height="54.2"/>
		<rect x="718.5" y="835.9" transform="matrix(-1.836970e-16 1 -1 -1.836970e-16 1644.3768 189.3768)" width="17.9" height="162"/>
		
			<rect x="718.5" y="853.8" transform="matrix(-1.836970e-16 1 -1 -1.836970e-16 1662.3048 207.3049)" class="st68" width="17.9" height="162"/>
		<rect x="718.5" y="871.7" transform="matrix(-1.836970e-16 1 -1 -1.836970e-16 1680.2329 225.2329)" width="17.9" height="162"/>
		<rect x="889.7" y="701.2" transform="matrix(6.123234e-17 -1 1 6.123234e-17 179.4417 1617.9584)" width="17.9" height="36.1"/>
		
			<rect x="916.7" y="656.1" transform="matrix(-1 -1.224647e-16 1.224647e-16 -1 1851.3809 1366.4067)" width="17.9" height="54.2"/>
		<rect x="889.7" y="629.1" transform="matrix(6.123234e-17 -1 1 6.123234e-17 251.5517 1545.8484)" width="17.9" height="36.1"/>
		<rect x="556.4" y="673.1" width="17.9" height="17.9"/>
		<rect x="664.6" y="656.1" width="17.9" height="44.8"/>
		<rect x="664.6" y="584.1" transform="matrix(-1.836970e-16 1 -1 -1.836970e-16 1284.6694 -62.3728)" width="17.9" height="54.2"/>
		
			<rect x="808.8" y="584.1" transform="matrix(-1.836970e-16 1 -1 -1.836970e-16 1428.8771 -206.5804)" width="17.9" height="54.2"/>
		<rect x="808.8" y="656.1" width="17.9" height="44.8"/>
		<rect x="736.5" y="737" width="17.9" height="35.9"/>
		<rect x="718.5" y="755" width="17.9" height="17.9"/>
		<rect x="826.7" y="907.7" transform="matrix(-1.836970e-16 1 -1 -1.836970e-16 1770.4275 99.1822)" width="17.9" height="54.2"/>
		<rect x="730.5" y="790.7" transform="matrix(-1.836970e-16 1 -1 -1.836970e-16 1566.2748 87.2748)" width="17.9" height="72.2"/>
		<rect x="556.4" y="925.6" transform="matrix(-1.836970e-16 1 -1 -1.836970e-16 1518.0952 387.3705)" width="17.9" height="54.2"/>
		<rect x="880.7" y="925.6" transform="matrix(-1.836970e-16 1 -1 -1.836970e-16 1842.3705 63.0952)" width="17.9" height="54.2"/>
		
			<rect x="520.4" y="961.7" transform="matrix(-1 -1.224647e-16 1.224647e-16 -1 1058.6896 2075.2783)" width="17.9" height="151.9"/>
		
			<rect x="916.7" y="961.7" transform="matrix(-1 -1.224647e-16 1.224647e-16 -1 1851.3831 2075.2783)" width="17.9" height="151.9"/>
		<rect x="628.3" y="512" width="17.9" height="17.9"/>
		
			<rect x="655.4" y="521.1" transform="matrix(-1.836970e-16 1 -1 -1.836970e-16 1203.4275 -125.3691)" width="17.9" height="35.9"/>
		<rect x="691.4" y="539" transform="matrix(-1.836970e-16 1 -1 -1.836970e-16 1257.2875 -143.3731)" width="17.9" height="35.9"/>
		<rect x="700.5" y="512" width="17.9" height="17.9"/>
		
			<rect x="727.6" y="521.1" transform="matrix(-1.836970e-16 1 -1 -1.836970e-16 1275.6294 -197.4781)" width="17.9" height="35.9"/>
		<rect x="763.5" y="539" transform="matrix(-1.836970e-16 1 -1 -1.836970e-16 1329.4894 -215.4821)" width="17.9" height="35.9"/>
		<rect x="772.6" y="512.2" width="17.9" height="17.9"/>
		
			<rect x="799.7" y="521.2" transform="matrix(-1.836970e-16 1 -1 -1.836970e-16 1347.8663 -269.4861)" width="17.9" height="35.9"/>
		<rect x="844.7" y="530.1" transform="matrix(-1.836970e-16 1 -1 -1.836970e-16 1410.776 -296.5398)" width="17.9" height="54"/>
		<rect x="610.4" y="529.8" width="17.9" height="126.2"/>
		<rect x="592.3" y="656.1" width="17.9" height="17.9"/>
		<rect x="574.3" y="835.7" width="17.9" height="17.9"/>
		<rect x="592.3" y="854.1" width="17.9" height="17.9"/>
		<rect x="628.1" y="890" width="17.9" height="17.9"/>
		<g>
			
				<rect x="826.9" y="872.1" transform="matrix(-1 4.464239e-11 -4.464239e-11 -1 1671.7072 1762.0415)" width="17.9" height="17.9"/>
			
				<rect x="862.7" y="835.7" transform="matrix(-1 4.464239e-11 -4.464239e-11 -1 1743.4192 1689.4056)" width="17.9" height="17.9"/>
			
				<rect x="844.8" y="854.1" transform="matrix(-1 4.514998e-11 -4.514998e-11 -1 1707.5631 1726.1854)" width="17.9" height="17.9"/>
			<rect x="809" y="890" transform="matrix(-1 4.525124e-11 -4.525124e-11 -1 1635.8511 1797.8976)" width="17.9" height="17.9"/>
		</g>
		<rect x="466.4" y="782" width="17.9" height="17.9"/>
		<rect x="538.5" y="817.8" width="17.9" height="17.9"/>
		<rect x="730.5" y="826.7" transform="matrix(-1.836970e-16 1 -1 -1.836970e-16 1584.2028 105.2028)" width="17.9" height="35.9"/>
		<rect x="685.5" y="799.9" width="17.9" height="17.9"/>
		<rect x="775.6" y="799.9" width="17.9" height="17.9"/>
		<g>
			<rect x="430.4" y="746" transform="matrix(-1 -1.224647e-16 1.224647e-16 -1 878.7935 1527.9774)" width="17.9" height="35.9"/>
			<rect x="448.4" y="728.1" width="17.9" height="17.9"/>
		</g>
		<rect x="502.4" y="781.8" transform="matrix(-1.836970e-16 1 -1 -1.836970e-16 1320.2283 297.4652)" width="17.9" height="54.2"/>
		<rect x="511.5" y="466.8" transform="matrix(-1.836970e-16 1 -1 -1.836970e-16 1005.4053 -35.5851)" width="17.9" height="36.3"/>
		<rect x="484.3" y="746" width="17.9" height="17.9"/>
		<rect x="502.3" y="728.1" width="17.9" height="17.9"/>
		<rect x="484.4" y="493.9" width="17.9" height="234.3"/>
		<rect x="439.4" y="755" transform="matrix(-1.836970e-16 1 -1 -1.836970e-16 1221.3894 324.592)" width="17.9" height="35.9"/>
		<rect x="466.2" y="746" width="17.9" height="17.9"/>
		<rect x="538.7" y="439.6" width="17.9" height="36.3"/>
		
			<rect x="700.7" y="277.6" transform="matrix(-1.836970e-16 1 -1 -1.836970e-16 1140.328 -278.9998)" width="17.9" height="306.2"/>
		<g>
			
				<rect x="862.7" y="439.6" transform="matrix(-1 -1.224647e-16 1.224647e-16 -1 1743.4192 915.5742)" width="17.9" height="36.3"/>
			
				<rect x="889.9" y="466.8" transform="matrix(-1.836970e-16 1 -1 -1.836970e-16 1383.7427 -413.9225)" width="17.9" height="36.3"/>
		</g>
		<rect x="916.7" y="493.9" width="17.9" height="234.3"/>
		<g>
			<rect x="970.7" y="782" transform="matrix(-1 -4.464263e-11 4.464263e-11 -1 1959.3425 1581.8374)" width="17.9" height="17.9"/>
			
				<rect x="898.6" y="817.8" transform="matrix(-1 -4.464263e-11 4.464263e-11 -1 1815.1313 1653.5496)" width="17.9" height="17.9"/>
			<g>
				<rect x="1006.6" y="746" width="17.9" height="35.9"/>
				
					<rect x="988.7" y="728.1" transform="matrix(-1 -4.454138e-11 4.454138e-11 -1 1995.3505 1474.1174)" width="17.9" height="17.9"/>
			</g>
			
				<rect x="934.7" y="781.8" transform="matrix(-4.520136e-11 1 -1 -4.520136e-11 1752.4652 -134.7717)" width="17.9" height="54.2"/>
			<rect x="952.8" y="746" transform="matrix(-1 -4.464263e-11 4.464263e-11 -1 1923.4865 1509.9735)" width="17.9" height="17.9"/>
			
				<rect x="934.7" y="728.1" transform="matrix(-1 -4.464263e-11 4.464263e-11 -1 1887.3995 1474.0415)" width="17.9" height="17.9"/>
			<rect x="997.6" y="755" transform="matrix(-4.459207e-11 1 -1 -4.459207e-11 1779.5919 -233.6106)" width="17.9" height="35.9"/>
			<rect x="970.8" y="746" transform="matrix(-1 -4.464263e-11 4.464263e-11 -1 1959.5735 1509.9735)" width="17.9" height="17.9"/>
		</g>
	</g>
</g>
</svg>
