<?xml version="1.0" encoding="utf-8"?>
<!-- Generator: Adobe Illustrator 22.1.0, SVG Export Plug-In . SVG Version: 6.00 Build 0)  -->
<svg version="1.1" xmlns="http://www.w3.org/2000/svg" xmlns:xlink="http://www.w3.org/1999/xlink" x="0px" y="0px"
	 viewBox="0 0 1455 1455" style="enable-background:new 0 0 1455 1455;" xml:space="preserve">
<style type="text/css">
	.st0{fill:#8DC63F;}
</style>
<g id="Layer_4">
	<g>
		<g>
			<rect x="718.5" y="215.6" transform="matrix(6.123234e-17 -1 1 6.123234e-17 430.8999 1024.1001)" width="17.9" height="162"/>
			<g>
				
					<rect x="619.6" y="296.6" transform="matrix(-1.836970e-16 1 -1 -1.836970e-16 943.0626 -314.0062)" width="17.9" height="35.9"/>
				
					<rect x="583.6" y="296.6" transform="matrix(-1.836970e-16 1 -1 -1.836970e-16 907.1306 -278.0742)" width="17.9" height="35.9"/>
			</g>
			<g>
				<rect x="520.8" y="323.5" width="17.9" height="17.9"/>
				
					<rect x="547.7" y="314.5" transform="matrix(-1.836970e-16 1 -1 -1.836970e-16 889.1266 -224.2142)" width="17.9" height="35.9"/>
			</g>
			
				<rect x="493.8" y="332.4" transform="matrix(-1.836970e-16 1 -1 -1.836970e-16 853.1947 -152.4262)" width="17.9" height="35.9"/>
			<rect x="466.9" y="359.3" width="17.9" height="17.9"/>
			<rect x="449" y="377.3" width="17.9" height="17.9"/>
			<rect x="431.1" y="395.2" width="17.9" height="17.9"/>
			<rect x="413.1" y="413.1" width="17.9" height="17.9"/>
			<rect x="395.2" y="431.1" width="17.9" height="17.9"/>
			<rect x="377.3" y="449" width="17.9" height="17.9"/>
			<rect x="359.3" y="466.9" width="17.9" height="17.9"/>
			<rect x="341.4" y="484.8" width="17.9" height="35.9"/>
			<g>
				
					<rect x="323.5" y="520.8" transform="matrix(-1.836970e-16 1 -1 -1.836970e-16 862.1967 197.2843)" width="17.9" height="17.9"/>
				
					<rect x="323.5" y="538.7" transform="matrix(-1 -1.224647e-16 1.224647e-16 -1 664.9124 1113.3409)" width="17.9" height="35.9"/>
			</g>
			
				<rect x="305.6" y="610.6" transform="matrix(-1 -1.224647e-16 1.224647e-16 -1 629.0563 1257.0687)" width="17.9" height="35.9"/>
			
				<rect x="305.6" y="574.6" transform="matrix(-1 -1.224647e-16 1.224647e-16 -1 629.0563 1185.2048)" width="17.9" height="35.9"/>
			<rect x="287.6" y="646.5" transform="matrix(-1 -1.224647e-16 1.224647e-16 -1 593.2003 1455)" width="17.9" height="162"/>
			<g>
				<rect x="305.6" y="808.5" width="17.9" height="35.9"/>
				<rect x="305.6" y="844.4" width="17.9" height="35.9"/>
			</g>
			<g>
				
					<rect x="323.5" y="916.3" transform="matrix(6.123234e-17 -1 1 6.123234e-17 -592.8033 1257.7157)" width="17.9" height="17.9"/>
				<rect x="323.5" y="880.4" width="17.9" height="35.9"/>
			</g>
			<rect x="341.4" y="934.2" width="17.9" height="35.9"/>
			<rect x="359.3" y="970.2" transform="matrix(6.123234e-17 -1 1 6.123234e-17 -610.8073 1347.4318)" width="17.9" height="17.9"/>
			<rect x="377.3" y="988.1" transform="matrix(6.123234e-17 -1 1 6.123234e-17 -610.8073 1383.2878)" width="17.9" height="17.9"/>
			<rect x="395.2" y="1006" transform="matrix(6.123234e-17 -1 1 6.123234e-17 -610.8073 1419.1439)" width="17.9" height="17.9"/>
			<rect x="413.1" y="1023.9" transform="matrix(6.123234e-17 -1 1 6.123234e-17 -610.8073 1455)" width="17.9" height="17.9"/>
			
				<rect x="431.1" y="1041.9" transform="matrix(6.123234e-17 -1 1 6.123234e-17 -610.8073 1490.8561)" width="17.9" height="17.9"/>
			<rect x="449" y="1059.8" transform="matrix(6.123234e-17 -1 1 6.123234e-17 -610.8073 1526.7122)" width="17.9" height="17.9"/>
			
				<rect x="466.9" y="1077.7" transform="matrix(6.123234e-17 -1 1 6.123234e-17 -610.8073 1562.5682)" width="17.9" height="17.9"/>
			
				<rect x="493.8" y="1086.6" transform="matrix(6.123234e-17 -1 1 6.123234e-17 -601.8053 1607.4263)" width="17.9" height="35.9"/>
			<g>
				<rect x="520.8" y="1113.6" width="17.9" height="17.9"/>
				
					<rect x="547.7" y="1104.6" transform="matrix(-1.836970e-16 1 -1 -1.836970e-16 1679.2142 565.8734)" width="17.9" height="35.9"/>
			</g>
			<g>
				
					<rect x="619.6" y="1122.5" transform="matrix(-1.836970e-16 1 -1 -1.836970e-16 1769.0062 511.9374)" width="17.9" height="35.9"/>
				
					<rect x="583.6" y="1122.5" transform="matrix(-1.836970e-16 1 -1 -1.836970e-16 1733.0742 547.8694)" width="17.9" height="35.9"/>
			</g>
		</g>
		<rect x="718.5" y="1077.4" transform="matrix(4.489635e-11 1 -1 4.489635e-11 1885.8999 430.8999)" width="17.9" height="162"/>
		<g>
			
				<rect x="817.5" y="1122.5" transform="matrix(-4.489647e-11 -1 1 -4.489647e-11 -314.0062 1966.9374)" width="17.9" height="35.9"/>
			
				<rect x="853.4" y="1122.5" transform="matrix(-4.484584e-11 -1 1 -4.484584e-11 -278.0742 2002.8694)" width="17.9" height="35.9"/>
		</g>
		<g>
			
				<rect x="916.3" y="1113.6" transform="matrix(-1 4.514998e-11 -4.514998e-11 -1 1850.519 2245.0876)" width="17.9" height="17.9"/>
			
				<rect x="889.4" y="1104.6" transform="matrix(-4.489647e-11 -1 1 -4.489647e-11 -224.2142 2020.8733)" width="17.9" height="35.9"/>
		</g>
		
			<rect x="943.2" y="1086.6" transform="matrix(-4.484584e-11 -1 1 -4.484584e-11 -152.4262 2056.8054)" width="17.9" height="35.9"/>
		
			<rect x="970.2" y="1077.7" transform="matrix(-1 4.525124e-11 -4.525124e-11 -1 1958.2391 2173.3755)" width="17.9" height="17.9"/>
		
			<rect x="988.1" y="1059.8" transform="matrix(-1 4.454114e-11 -4.454114e-11 -1 1994.0951 2137.5193)" width="17.9" height="17.9"/>
		
			<rect x="1006" y="1041.9" transform="matrix(-1 4.454114e-11 -4.454114e-11 -1 2029.9512 2101.6633)" width="17.9" height="17.9"/>
		
			<rect x="1023.9" y="1023.9" transform="matrix(-1 4.464239e-11 -4.464239e-11 -1 2065.8074 2065.8074)" width="17.9" height="17.9"/>
		
			<rect x="1041.9" y="1006" transform="matrix(-1 4.454114e-11 -4.454114e-11 -1 2101.6633 2029.9512)" width="17.9" height="17.9"/>
		
			<rect x="1059.8" y="988.1" transform="matrix(-1 4.464239e-11 -4.464239e-11 -1 2137.5193 1994.0951)" width="17.9" height="17.9"/>
		
			<rect x="1077.7" y="970.2" transform="matrix(-1 4.464239e-11 -4.464239e-11 -1 2173.3755 1958.2391)" width="17.9" height="17.9"/>
		
			<rect x="1095.7" y="934.2" transform="matrix(-1 4.464239e-11 -4.464239e-11 -1 2209.2314 1904.379)" width="17.9" height="35.9"/>
		<g>
			
				<rect x="1113.6" y="916.3" transform="matrix(-4.464245e-11 -1 1 -4.464245e-11 197.2843 2047.8033)" width="17.9" height="17.9"/>
			<rect x="1113.6" y="880.4" width="17.9" height="35.9"/>
		</g>
		<g>
			<rect x="1131.5" y="808.5" width="17.9" height="35.9"/>
			<rect x="1131.5" y="844.4" width="17.9" height="35.9"/>
		</g>
		<rect x="1149.4" y="646.5" width="17.9" height="162"/>
		<g>
			
				<rect x="1131.5" y="610.6" transform="matrix(-1 4.464239e-11 -4.464239e-11 -1 2280.9436 1257.0687)" width="17.9" height="35.9"/>
			
				<rect x="1131.5" y="574.6" transform="matrix(-1 4.514998e-11 -4.514998e-11 -1 2280.9436 1185.2048)" width="17.9" height="35.9"/>
		</g>
		<g>
			
				<rect x="1113.6" y="520.8" transform="matrix(4.464233e-11 1 -1 4.464233e-11 1652.2843 -592.8033)" width="17.9" height="17.9"/>
			
				<rect x="1113.6" y="538.7" transform="matrix(-1 4.514998e-11 -4.514998e-11 -1 2245.0876 1113.3409)" width="17.9" height="35.9"/>
		</g>
		
			<rect x="1095.7" y="484.8" transform="matrix(-1 4.514998e-11 -4.514998e-11 -1 2209.2314 1005.6209)" width="17.9" height="35.9"/>
		<rect x="1077.7" y="466.9" transform="matrix(4.520099e-11 1 -1 4.520099e-11 1562.5682 -610.8073)" width="17.9" height="17.9"/>
		<rect x="1059.8" y="449" transform="matrix(4.514948e-11 1 -1 4.514948e-11 1526.7122 -610.8073)" width="17.9" height="17.9"/>
		<rect x="1041.9" y="431.1" transform="matrix(4.514948e-11 1 -1 4.514948e-11 1490.8561 -610.8073)" width="17.9" height="17.9"/>
		<rect x="1023.9" y="413.1" transform="matrix(4.520099e-11 1 -1 4.520099e-11 1455 -610.8073)" width="17.9" height="17.9"/>
		<rect x="1006" y="395.2" transform="matrix(4.520099e-11 1 -1 4.520099e-11 1419.1439 -610.8073)" width="17.9" height="17.9"/>
		<rect x="988.1" y="377.3" transform="matrix(4.489635e-11 1 -1 4.489635e-11 1383.2878 -610.8073)" width="17.9" height="17.9"/>
		<rect x="970.2" y="359.3" transform="matrix(4.489635e-11 1 -1 4.489635e-11 1347.4318 -610.8073)" width="17.9" height="17.9"/>
		<rect x="943.2" y="332.4" transform="matrix(4.489635e-11 1 -1 4.489635e-11 1302.5737 -601.8053)" width="17.9" height="35.9"/>
		<g>
			<rect x="916.3" y="323.5" transform="matrix(-1 4.514998e-11 -4.514998e-11 -1 1850.519 664.9124)" width="17.9" height="17.9"/>
			
				<rect x="889.4" y="314.5" transform="matrix(-4.489647e-11 -1 1 -4.489647e-11 565.8734 1230.7858)" width="17.9" height="35.9"/>
		</g>
		<g>
			
				<rect x="817.5" y="296.6" transform="matrix(-4.489647e-11 -1 1 -4.489647e-11 511.9374 1140.9938)" width="17.9" height="35.9"/>
			
				<rect x="853.4" y="296.6" transform="matrix(-4.484584e-11 -1 1 -4.484584e-11 547.8694 1176.9258)" width="17.9" height="35.9"/>
		</g>
	</g>
	<polygon points="1149.1,646.8 1131.5,646.8 1131.5,574.3 1113.4,574.3 1113.4,520.6 1095.7,520.6 1095.7,484.8 1077.7,484.8 
		1077.7,466.9 1059.8,466.9 1059.8,449 1041.9,449 1041.9,431.1 1023.9,431.1 1023.9,413.1 1006,413.1 1006,395.2 988.1,395.2 
		988.1,377.3 970.2,377.3 970.2,359.3 934.2,359.3 934.2,341.4 880.7,341.4 880.7,323.5 807.9,323.5 807.9,305.6 646.5,305.6 
		646.5,323.5 574.3,323.5 574.3,341.4 520.4,341.4 520.4,359.3 484.8,359.3 484.8,377.3 466.9,377.3 466.9,395.2 449,395.2 
		449,413.1 431.1,413.1 431.1,431.1 413.1,431.1 413.1,449 395.2,449 395.2,466.9 377.3,466.9 377.3,484.8 359.3,484.8 359.3,520.6 
		341.2,520.6 341.2,574.3 323.5,574.3 323.5,646.8 305.3,646.8 305.3,808.2 323.5,808.2 323.5,880.7 341.2,880.7 341.2,934.4 
		359.3,934.4 359.3,970.2 377.3,970.2 377.3,988.1 395.2,988.1 395.2,1006 413.1,1006 413.1,1023.9 431.1,1023.9 431.1,1041.9 
		449,1041.9 449,1059.8 466.9,1059.8 466.9,1077.7 484.8,1077.7 484.8,1095.7 520.4,1095.7 520.4,1113.6 574.3,1113.6 574.3,1131.5 
		646.5,1131.5 646.5,1149.4 807.9,1149.4 807.9,1131.5 880.7,1131.5 880.7,1113.6 934.2,1113.6 934.2,1095.7 970.2,1095.7 
		970.2,1077.7 988.1,1077.7 988.1,1059.8 1006,1059.8 1006,1041.9 1023.9,1041.9 1023.9,1023.9 1041.9,1023.9 1041.9,1006 
		1059.8,1006 1059.8,988.1 1077.7,988.1 1077.7,970.2 1095.7,970.2 1095.7,934.4 1113.4,934.4 1113.4,880.7 1131.5,880.7 
		1131.5,808.2 1149.1,808.2 	"/>
</g>
<g id="Layer_2">
	<g>
		<g>
			
				<rect x="718.5" y="215.6" transform="matrix(6.123234e-17 -1 1 6.123234e-17 430.8999 1024.1001)" class="st0" width="17.9" height="162"/>
			<g>
				
					<rect x="619.6" y="296.6" transform="matrix(-1.836970e-16 1 -1 -1.836970e-16 943.0626 -314.0062)" class="st0" width="17.9" height="35.9"/>
				
					<rect x="583.6" y="296.6" transform="matrix(-1.836970e-16 1 -1 -1.836970e-16 907.1306 -278.0742)" class="st0" width="17.9" height="35.9"/>
			</g>
			<g>
				<rect x="520.8" y="323.5" class="st0" width="17.9" height="17.9"/>
				
					<rect x="547.7" y="314.5" transform="matrix(-1.836970e-16 1 -1 -1.836970e-16 889.1266 -224.2142)" class="st0" width="17.9" height="35.9"/>
			</g>
			
				<rect x="493.8" y="332.4" transform="matrix(-1.836970e-16 1 -1 -1.836970e-16 853.1947 -152.4262)" class="st0" width="17.9" height="35.9"/>
			<rect x="466.9" y="359.3" class="st0" width="17.9" height="17.9"/>
			<rect x="449" y="377.3" class="st0" width="17.9" height="17.9"/>
			<rect x="431.1" y="395.2" class="st0" width="17.9" height="17.9"/>
			<rect x="413.1" y="413.1" class="st0" width="17.9" height="17.9"/>
			<rect x="395.2" y="431.1" class="st0" width="17.9" height="17.9"/>
			<rect x="377.3" y="449" class="st0" width="17.9" height="17.9"/>
			<rect x="359.3" y="466.9" class="st0" width="17.9" height="17.9"/>
			<rect x="341.4" y="484.8" class="st0" width="17.9" height="35.9"/>
			<g>
				
					<rect x="323.5" y="520.8" transform="matrix(-1.836970e-16 1 -1 -1.836970e-16 862.1967 197.2843)" class="st0" width="17.9" height="17.9"/>
				
					<rect x="323.5" y="538.7" transform="matrix(-1 -1.224647e-16 1.224647e-16 -1 664.9124 1113.3409)" class="st0" width="17.9" height="35.9"/>
			</g>
			
				<rect x="305.6" y="610.6" transform="matrix(-1 -1.224647e-16 1.224647e-16 -1 629.0563 1257.0687)" class="st0" width="17.9" height="35.9"/>
			
				<rect x="305.6" y="574.6" transform="matrix(-1 -1.224647e-16 1.224647e-16 -1 629.0563 1185.2048)" class="st0" width="17.9" height="35.9"/>
			
				<rect x="287.6" y="646.5" transform="matrix(-1 -1.224647e-16 1.224647e-16 -1 593.2003 1455)" class="st0" width="17.9" height="162"/>
			<g>
				<rect x="305.6" y="808.5" class="st0" width="17.9" height="35.9"/>
				<rect x="305.6" y="844.4" class="st0" width="17.9" height="35.9"/>
			</g>
			<g>
				
					<rect x="323.5" y="916.3" transform="matrix(6.123234e-17 -1 1 6.123234e-17 -592.8033 1257.7157)" class="st0" width="17.9" height="17.9"/>
				<rect x="323.5" y="880.4" class="st0" width="17.9" height="35.9"/>
			</g>
			<rect x="341.4" y="934.2" class="st0" width="17.9" height="35.9"/>
			
				<rect x="359.3" y="970.2" transform="matrix(6.123234e-17 -1 1 6.123234e-17 -610.8073 1347.4318)" class="st0" width="17.9" height="17.9"/>
			
				<rect x="377.3" y="988.1" transform="matrix(6.123234e-17 -1 1 6.123234e-17 -610.8073 1383.2878)" class="st0" width="17.9" height="17.9"/>
			
				<rect x="395.2" y="1006" transform="matrix(6.123234e-17 -1 1 6.123234e-17 -610.8073 1419.1439)" class="st0" width="17.9" height="17.9"/>
			
				<rect x="413.1" y="1023.9" transform="matrix(6.123234e-17 -1 1 6.123234e-17 -610.8073 1455)" class="st0" width="17.9" height="17.9"/>
			
				<rect x="431.1" y="1041.9" transform="matrix(6.123234e-17 -1 1 6.123234e-17 -610.8073 1490.8561)" class="st0" width="17.9" height="17.9"/>
			
				<rect x="449" y="1059.8" transform="matrix(6.123234e-17 -1 1 6.123234e-17 -610.8073 1526.7122)" class="st0" width="17.9" height="17.9"/>
			
				<rect x="466.9" y="1077.7" transform="matrix(6.123234e-17 -1 1 6.123234e-17 -610.8073 1562.5682)" class="st0" width="17.9" height="17.9"/>
			
				<rect x="493.8" y="1086.6" transform="matrix(6.123234e-17 -1 1 6.123234e-17 -601.8053 1607.4263)" class="st0" width="17.9" height="35.9"/>
			<g>
				<rect x="520.8" y="1113.6" class="st0" width="17.9" height="17.9"/>
				
					<rect x="547.7" y="1104.6" transform="matrix(-1.836970e-16 1 -1 -1.836970e-16 1679.2142 565.8734)" class="st0" width="17.9" height="35.9"/>
			</g>
			<g>
				
					<rect x="619.6" y="1122.5" transform="matrix(-1.836970e-16 1 -1 -1.836970e-16 1769.0062 511.9374)" class="st0" width="17.9" height="35.9"/>
				
					<rect x="583.6" y="1122.5" transform="matrix(-1.836970e-16 1 -1 -1.836970e-16 1733.0742 547.8694)" class="st0" width="17.9" height="35.9"/>
			</g>
		</g>
		
			<rect x="718.5" y="1077.4" transform="matrix(4.489635e-11 1 -1 4.489635e-11 1885.8999 430.8999)" class="st0" width="17.9" height="162"/>
		<g>
			
				<rect x="817.5" y="1122.5" transform="matrix(-4.489647e-11 -1 1 -4.489647e-11 -314.0062 1966.9374)" class="st0" width="17.9" height="35.9"/>
			
				<rect x="853.4" y="1122.5" transform="matrix(-4.484584e-11 -1 1 -4.484584e-11 -278.0742 2002.8694)" class="st0" width="17.9" height="35.9"/>
		</g>
		<g>
			
				<rect x="916.3" y="1113.6" transform="matrix(-1 4.514998e-11 -4.514998e-11 -1 1850.519 2245.0876)" class="st0" width="17.9" height="17.9"/>
			
				<rect x="889.4" y="1104.6" transform="matrix(-4.489647e-11 -1 1 -4.489647e-11 -224.2142 2020.8733)" class="st0" width="17.9" height="35.9"/>
		</g>
		
			<rect x="943.2" y="1086.6" transform="matrix(-4.484584e-11 -1 1 -4.484584e-11 -152.4262 2056.8054)" class="st0" width="17.9" height="35.9"/>
		
			<rect x="970.2" y="1077.7" transform="matrix(-1 4.525124e-11 -4.525124e-11 -1 1958.2391 2173.3755)" class="st0" width="17.9" height="17.9"/>
		
			<rect x="988.1" y="1059.8" transform="matrix(-1 4.454114e-11 -4.454114e-11 -1 1994.0951 2137.5193)" class="st0" width="17.9" height="17.9"/>
		
			<rect x="1006" y="1041.9" transform="matrix(-1 4.454114e-11 -4.454114e-11 -1 2029.9512 2101.6633)" class="st0" width="17.9" height="17.9"/>
		
			<rect x="1023.9" y="1023.9" transform="matrix(-1 4.464239e-11 -4.464239e-11 -1 2065.8074 2065.8074)" class="st0" width="17.9" height="17.9"/>
		
			<rect x="1041.9" y="1006" transform="matrix(-1 4.454114e-11 -4.454114e-11 -1 2101.6633 2029.9512)" class="st0" width="17.9" height="17.9"/>
		
			<rect x="1059.8" y="988.1" transform="matrix(-1 4.464239e-11 -4.464239e-11 -1 2137.5193 1994.0951)" class="st0" width="17.9" height="17.9"/>
		
			<rect x="1077.7" y="970.2" transform="matrix(-1 4.464239e-11 -4.464239e-11 -1 2173.3755 1958.2391)" class="st0" width="17.9" height="17.9"/>
		
			<rect x="1095.7" y="934.2" transform="matrix(-1 4.464239e-11 -4.464239e-11 -1 2209.2314 1904.379)" class="st0" width="17.9" height="35.9"/>
		<g>
			
				<rect x="1113.6" y="916.3" transform="matrix(-4.464245e-11 -1 1 -4.464245e-11 197.2843 2047.8033)" class="st0" width="17.9" height="17.9"/>
			<rect x="1113.6" y="880.4" class="st0" width="17.9" height="35.9"/>
		</g>
		<g>
			<rect x="1131.5" y="808.5" class="st0" width="17.9" height="35.9"/>
			<rect x="1131.5" y="844.4" class="st0" width="17.9" height="35.9"/>
		</g>
		<rect x="1149.4" y="646.5" class="st0" width="17.9" height="162"/>
		<g>
			
				<rect x="1131.5" y="610.6" transform="matrix(-1 4.464239e-11 -4.464239e-11 -1 2280.9436 1257.0687)" class="st0" width="17.9" height="35.9"/>
			
				<rect x="1131.5" y="574.6" transform="matrix(-1 4.514998e-11 -4.514998e-11 -1 2280.9436 1185.2048)" class="st0" width="17.9" height="35.9"/>
		</g>
		<g>
			
				<rect x="1113.6" y="520.8" transform="matrix(4.464233e-11 1 -1 4.464233e-11 1652.2843 -592.8033)" class="st0" width="17.9" height="17.9"/>
			
				<rect x="1113.6" y="538.7" transform="matrix(-1 4.514998e-11 -4.514998e-11 -1 2245.0876 1113.3409)" class="st0" width="17.9" height="35.9"/>
		</g>
		
			<rect x="1095.7" y="484.8" transform="matrix(-1 4.514998e-11 -4.514998e-11 -1 2209.2314 1005.6209)" class="st0" width="17.9" height="35.9"/>
		
			<rect x="1077.7" y="466.9" transform="matrix(4.520099e-11 1 -1 4.520099e-11 1562.5682 -610.8073)" class="st0" width="17.9" height="17.9"/>
		
			<rect x="1059.8" y="449" transform="matrix(4.514948e-11 1 -1 4.514948e-11 1526.7122 -610.8073)" class="st0" width="17.9" height="17.9"/>
		
			<rect x="1041.9" y="431.1" transform="matrix(4.514948e-11 1 -1 4.514948e-11 1490.8561 -610.8073)" class="st0" width="17.9" height="17.9"/>
		
			<rect x="1023.9" y="413.1" transform="matrix(4.520099e-11 1 -1 4.520099e-11 1455 -610.8073)" class="st0" width="17.9" height="17.9"/>
		
			<rect x="1006" y="395.2" transform="matrix(4.520099e-11 1 -1 4.520099e-11 1419.1439 -610.8073)" class="st0" width="17.9" height="17.9"/>
		
			<rect x="988.1" y="377.3" transform="matrix(4.489635e-11 1 -1 4.489635e-11 1383.2878 -610.8073)" class="st0" width="17.9" height="17.9"/>
		
			<rect x="970.2" y="359.3" transform="matrix(4.489635e-11 1 -1 4.489635e-11 1347.4318 -610.8073)" class="st0" width="17.9" height="17.9"/>
		
			<rect x="943.2" y="332.4" transform="matrix(4.489635e-11 1 -1 4.489635e-11 1302.5737 -601.8053)" class="st0" width="17.9" height="35.9"/>
		<g>
			
				<rect x="916.3" y="323.5" transform="matrix(-1 4.514998e-11 -4.514998e-11 -1 1850.519 664.9124)" class="st0" width="17.9" height="17.9"/>
			
				<rect x="889.4" y="314.5" transform="matrix(-4.489647e-11 -1 1 -4.489647e-11 565.8734 1230.7858)" class="st0" width="17.9" height="35.9"/>
		</g>
		<g>
			
				<rect x="817.5" y="296.6" transform="matrix(-4.489647e-11 -1 1 -4.489647e-11 511.9374 1140.9938)" class="st0" width="17.9" height="35.9"/>
			
				<rect x="853.4" y="296.6" transform="matrix(-4.484584e-11 -1 1 -4.484584e-11 547.8694 1176.9258)" class="st0" width="17.9" height="35.9"/>
		</g>
	</g>
</g>
<g id="Layer_1">
	<g>
		<rect x="592.3" y="502.6" class="st0" width="17.9" height="17.9"/>
		<rect x="574.4" y="520.5" class="st0" width="17.9" height="36.3"/>
		<rect x="844.8" y="502.6" class="st0" width="17.9" height="17.9"/>
		<rect x="862.8" y="520.5" class="st0" width="17.9" height="36.3"/>
		<rect x="556.4" y="556.9" class="st0" width="17.9" height="90.1"/>
		<rect x="880.7" y="556.9" class="st0" width="17.9" height="90.1"/>
		
			<rect x="619.4" y="475.5" transform="matrix(-1.836970e-16 1 -1 -1.836970e-16 1122.0109 -134.7246)" class="st0" width="17.9" height="36.3"/>
		
			<rect x="817.7" y="475.5" transform="matrix(-1.836970e-16 1 -1 -1.836970e-16 1320.3281 -333.0418)" class="st0" width="17.9" height="36.3"/>
		
			<rect x="718.6" y="394.7" transform="matrix(-1.836970e-16 1 -1 -1.836970e-16 1203.2415 -251.8112)" class="st0" width="17.9" height="162"/>
		
			<rect x="556.5" y="628.8" transform="matrix(-1.836970e-16 1 -1 -1.836970e-16 1221.3043 90.4585)" class="st0" width="17.9" height="54.2"/>
		<rect x="520.4" y="664.8" class="st0" width="17.9" height="54.2"/>
		
			<rect x="556.5" y="700.9" transform="matrix(-1.836970e-16 1 -1 -1.836970e-16 1293.4143 162.5685)" class="st0" width="17.9" height="54.2"/>
		<rect x="556.4" y="737" class="st0" width="17.9" height="107.5"/>
		<rect x="880.7" y="737" class="st0" width="17.9" height="107.5"/>
		<rect x="610.2" y="880.8" class="st0" width="17.9" height="17.9"/>
		
			<rect x="610.4" y="916.4" transform="matrix(-1.836970e-16 1 -1 -1.836970e-16 1562.9417 324.1342)" class="st0" width="17.9" height="54.2"/>
		
			<rect x="718.6" y="844.6" transform="matrix(-1.836970e-16 1 -1 -1.836970e-16 1653.1362 198.0836)" class="st0" width="17.9" height="162"/>
		
			<rect x="718.6" y="862.5" transform="matrix(-1.836970e-16 1 -1 -1.836970e-16 1671.0643 216.0116)" class="st0" width="17.9" height="162"/>
		
			<rect x="718.6" y="880.5" transform="matrix(-1.836970e-16 1 -1 -1.836970e-16 1688.9923 233.9396)" class="st0" width="17.9" height="162"/>
		
			<rect x="889.8" y="710" transform="matrix(6.123234e-17 -1 1 6.123234e-17 170.7349 1626.7178)" class="st0" width="17.9" height="36.1"/>
		
			<rect x="916.8" y="664.8" transform="matrix(-1 -1.224647e-16 1.224647e-16 -1 1851.4336 1383.8728)" class="st0" width="17.9" height="54.2"/>
		
			<rect x="889.8" y="637.9" transform="matrix(6.123234e-17 -1 1 6.123234e-17 242.845 1554.6078)" class="st0" width="17.9" height="36.1"/>
		<rect x="556.4" y="681.8" class="st0" width="17.9" height="17.9"/>
		<rect x="664.6" y="664.9" class="st0" width="17.9" height="44.8"/>
		
			<rect x="664.6" y="592.8" transform="matrix(-1.836970e-16 1 -1 -1.836970e-16 1293.429 -53.6661)" class="st0" width="17.9" height="54.2"/>
		
			<rect x="808.8" y="592.8" transform="matrix(-1.836970e-16 1 -1 -1.836970e-16 1437.6365 -197.8737)" class="st0" width="17.9" height="54.2"/>
		<rect x="808.8" y="664.9" class="st0" width="17.9" height="44.8"/>
		<rect x="736.5" y="745.8" class="st0" width="17.9" height="35.9"/>
		<rect x="693.3" y="808.8" class="st0" width="17.9" height="17.9"/>
		<rect x="765.5" y="808.8" class="st0" width="17.9" height="17.9"/>
		
			<rect x="729.4" y="808.5" transform="matrix(-1.836970e-16 1 -1 -1.836970e-16 1574.0366 97.3272)" class="st0" width="17.9" height="54.3"/>
		<rect x="718.6" y="763.8" class="st0" width="17.9" height="17.9"/>
		
			<rect x="826.7" y="916.4" transform="matrix(-1.836970e-16 1 -1 -1.836970e-16 1779.1869 107.889)" class="st0" width="17.9" height="54.2"/>
		
			<rect x="556.4" y="934.3" transform="matrix(-1.836970e-16 1 -1 -1.836970e-16 1526.8546 396.0773)" class="st0" width="17.9" height="54.2"/>
		
			<rect x="880.7" y="934.3" transform="matrix(-1.836970e-16 1 -1 -1.836970e-16 1851.13 71.802)" class="st0" width="17.9" height="54.2"/>
		
			<rect x="520.4" y="970.4" transform="matrix(-1 -1.224647e-16 1.224647e-16 -1 1058.7405 2083.4631)" class="st0" width="17.9" height="142.6"/>
		
			<rect x="916.8" y="970.4" transform="matrix(-1 -1.224647e-16 1.224647e-16 -1 1851.4338 2083.4631)" class="st0" width="17.9" height="142.6"/>
		<rect x="628.4" y="520.7" class="st0" width="17.9" height="17.9"/>
		
			<rect x="655.5" y="529.8" transform="matrix(-1.836970e-16 1 -1 -1.836970e-16 1212.187 -116.6624)" class="st0" width="17.9" height="35.9"/>
		
			<rect x="691.4" y="547.7" transform="matrix(-1.836970e-16 1 -1 -1.836970e-16 1266.047 -134.6664)" class="st0" width="17.9" height="35.9"/>
		<rect x="700.5" y="520.8" class="st0" width="17.9" height="17.9"/>
		
			<rect x="727.6" y="529.8" transform="matrix(-1.836970e-16 1 -1 -1.836970e-16 1284.3889 -188.7714)" class="st0" width="17.9" height="35.9"/>
		
			<rect x="763.5" y="547.8" transform="matrix(-1.836970e-16 1 -1 -1.836970e-16 1338.2489 -206.7753)" class="st0" width="17.9" height="35.9"/>
		<rect x="772.6" y="520.9" class="st0" width="17.9" height="17.9"/>
		
			<rect x="799.7" y="530" transform="matrix(-1.836970e-16 1 -1 -1.836970e-16 1356.6257 -260.7794)" class="st0" width="17.9" height="35.9"/>
		
			<rect x="844.7" y="538.8" transform="matrix(-1.836970e-16 1 -1 -1.836970e-16 1419.5354 -287.833)" class="st0" width="17.9" height="54"/>
		<rect x="610.4" y="538.6" class="st0" width="17.9" height="126.2"/>
		<rect x="592.3" y="664.9" class="st0" width="17.9" height="17.9"/>
		<rect x="574.4" y="844.5" class="st0" width="17.9" height="17.9"/>
		<rect x="592.3" y="862.9" class="st0" width="17.9" height="17.9"/>
		<rect x="628.1" y="898.7" class="st0" width="17.9" height="17.9"/>
		<g>
			
				<rect x="826.9" y="880.8" transform="matrix(-1 4.525124e-11 -4.525124e-11 -1 1671.7598 1779.5077)" class="st0" width="17.9" height="17.9"/>
			
				<rect x="862.8" y="844.5" transform="matrix(-1 4.464239e-11 -4.464239e-11 -1 1743.4719 1706.8718)" class="st0" width="17.9" height="17.9"/>
			
				<rect x="844.8" y="862.9" transform="matrix(-1 4.514998e-11 -4.514998e-11 -1 1707.6158 1743.6516)" class="st0" width="17.9" height="17.9"/>
			
				<rect x="809" y="898.7" transform="matrix(-1 4.525124e-11 -4.525124e-11 -1 1635.9037 1815.3638)" class="st0" width="17.9" height="17.9"/>
		</g>
		<rect x="556.4" y="502.6" class="st0" width="17.9" height="17.9"/>
		<rect x="574.4" y="484.7" class="st0" width="17.9" height="17.9"/>
		<rect x="592.3" y="466.8" class="st0" width="17.9" height="17.9"/>
		<rect x="610.2" y="448.8" class="st0" width="17.9" height="17.9"/>
		<rect x="592.3" y="430.9" class="st0" width="17.9" height="17.9"/>
		<rect x="520.2" y="430.9" class="st0" width="17.9" height="17.9"/>
		
			<rect x="556.2" y="394.8" transform="matrix(-1.836970e-16 1 -1 -1.836970e-16 987.123 -143.261)" class="st0" width="17.9" height="54.2"/>
		<rect x="502.2" y="448.8" class="st0" width="17.9" height="17.9"/>
		<rect x="484.3" y="466.8" class="st0" width="17.9" height="90.1"/>
		<rect x="502.2" y="556.8" class="st0" width="17.9" height="35.9"/>
		<rect x="520.2" y="592.7" class="st0" width="17.9" height="17.9"/>
		<rect x="538.1" y="610.7" class="st0" width="17.9" height="17.9"/>
		<rect x="610.2" y="466.8" class="st0" width="17.9" height="17.9"/>
	</g>
</g>
</svg>
